<svg width="55" height="55" viewBox="0 0 55 55" fill="none" xmlns="http://www.w3.org/2000/svg">
<path d="M54.1929 14.6377C52.7388 14.6377 51.5559 13.4549 51.5559 12.0008C51.5559 11.5548 51.1945 11.1935 50.7486 11.1935C50.3027 11.1935 49.9413 11.5548 49.9413 12.0008C49.9413 13.4548 48.7585 14.6377 47.3043 14.6377C46.8584 14.6377 46.4971 14.9991 46.4971 15.445C46.4971 15.8909 46.8584 16.2523 47.3043 16.2523C48.7584 16.2523 49.9413 17.4352 49.9413 18.8893C49.9413 19.3352 50.3027 19.6965 50.7486 19.6965C51.1945 19.6965 51.5559 19.3352 51.5559 18.8893C51.5559 17.4352 52.7387 16.2523 54.1929 16.2523C54.6388 16.2523 55.0001 15.8909 55.0001 15.445C55.0001 14.9991 54.6388 14.6377 54.1929 14.6377ZM50.7487 16.3993C50.4832 16.0331 50.1605 15.7106 49.7944 15.445C50.1606 15.1795 50.4833 14.8568 50.7487 14.4907C51.0143 14.8569 51.337 15.1795 51.703 15.445C51.3368 15.7106 51.0143 16.0333 50.7487 16.3993Z" fill="white"/>
<path d="M7.69579 14.6377C6.24184 14.6377 5.0588 13.4549 5.0588 12.0008C5.0588 11.5548 4.69733 11.1935 4.25153 11.1935C3.80573 11.1935 3.44426 11.5548 3.44426 12.0008C3.44426 13.4548 2.26122 14.6377 0.807273 14.6377C0.361474 14.6377 0 14.9991 0 15.445C0 15.8909 0.361474 16.2523 0.807273 16.2523C2.26122 16.2523 3.44426 17.4352 3.44426 18.8893C3.44426 19.3352 3.80573 19.6965 4.25153 19.6965C4.69733 19.6965 5.0588 19.3352 5.0588 18.8893C5.0588 17.4352 6.24184 16.2523 7.69579 16.2523C8.14159 16.2523 8.50306 15.8909 8.50306 15.445C8.50306 14.9991 8.14159 14.6377 7.69579 14.6377ZM4.25153 16.3993C3.98599 16.0331 3.6634 15.7106 3.2972 15.445C3.66351 15.1795 3.98609 14.8568 4.25153 14.4907C4.51708 14.8569 4.83966 15.1795 5.20586 15.445C4.83977 15.7106 4.51708 16.0333 4.25153 16.3993Z" fill="white"/>
<path d="M31.8056 4.30524C29.8767 4.30524 28.3075 2.73614 28.3075 0.807166C28.3076 0.361366 27.9462 0 27.5003 0C27.0545 0 26.693 0.361366 26.693 0.807273C26.693 2.73614 25.1237 4.30535 23.195 4.30535C22.7492 4.30535 22.3877 4.66672 22.3877 5.11262C22.3877 5.55853 22.7492 5.9199 23.195 5.9199C25.1237 5.9199 26.693 7.48911 26.693 9.41797C26.693 9.86388 27.0545 10.2252 27.5003 10.2252C27.9462 10.2252 28.3076 9.86388 28.3076 9.41797C28.3076 7.48911 29.8768 5.9199 31.8057 5.9199C32.2516 5.9199 32.6129 5.55853 32.6129 5.11262C32.6129 4.66672 32.2515 4.30524 31.8056 4.30524ZM27.5003 6.66304C27.1012 6.04171 26.5711 5.51159 25.9497 5.11251C26.5711 4.71344 27.1012 4.18332 27.5003 3.56199C27.8994 4.18332 28.4295 4.71344 29.0508 5.11251C28.4295 5.51159 27.8994 6.04171 27.5003 6.66304Z" fill="white"/>
<path d="M44.3063 27.2314L41.1662 18.3343C40.9313 17.6685 40.299 17.2212 39.593 17.2212H15.1909C14.4848 17.2212 13.8526 17.6685 13.6177 18.3342L10.4776 27.2314C10.2952 27.7482 10.6916 28.3073 11.2388 28.3073H43.5452C43.807 28.3073 44.0527 28.1801 44.204 27.9664C44.3553 27.7525 44.3936 27.4784 44.3063 27.2314ZM12.3797 26.6928L15.1401 18.8715C15.1474 18.8508 15.1688 18.8356 15.1908 18.8356H39.593C39.615 18.8356 39.6364 18.8508 39.6438 18.8716L42.4042 26.6928H12.3797Z" fill="white"/>
<path d="M42.8918 37.8857C40.0249 37.8857 37.7793 39.375 37.7793 41.2762C37.7793 43.1773 40.0249 44.6666 42.8918 44.6666C45.7587 44.6666 48.0043 43.1773 48.0043 41.2762C48.0043 39.375 45.7587 37.8857 42.8918 37.8857ZM42.8918 43.0521C40.8897 43.0521 39.3937 42.1145 39.3937 41.2762C39.3937 40.4379 40.8896 39.5003 42.8918 39.5003C44.8939 39.5003 46.3899 40.4379 46.3899 41.2762C46.3899 42.1145 44.8939 43.0521 42.8918 43.0521Z" fill="white"/>
<path d="M11.8933 37.8857C9.02641 37.8857 6.78076 39.375 6.78076 41.2762C6.78076 43.1773 9.02641 44.6666 11.8933 44.6666C14.7601 44.6666 17.0058 43.1773 17.0058 41.2762C17.0058 39.375 14.7601 37.8857 11.8933 37.8857ZM11.8933 43.0521C9.89126 43.0521 8.3952 42.1145 8.3952 41.2762C8.3952 40.4379 9.89115 39.5003 11.8933 39.5003C13.8954 39.5003 15.3914 40.4379 15.3914 41.2762C15.3914 42.1145 13.8954 43.0521 11.8933 43.0521Z" fill="white"/>
<path d="M53.2245 25.8315H48.9193C48.5489 25.8315 48.226 26.0836 48.1362 26.4429L47.5691 28.7111L43.603 17.4742C43.0042 15.7777 41.3931 14.6377 39.5939 14.6377H15.1918C13.3926 14.6377 11.7815 15.7777 11.1827 17.4743L7.21671 28.7112L6.64963 26.4429C6.55972 26.0835 6.23681 25.8315 5.86653 25.8315H1.56118C1.11538 25.8315 0.753906 26.1928 0.753906 26.6387V30.083C0.753906 30.5289 1.11538 30.8903 1.56118 30.8903H6.01993L3.26789 34.743C2.74991 35.4682 2.47609 36.3229 2.47609 37.2142V47.3041C2.47609 48.7021 3.15467 49.9446 4.19956 50.7199C4.19924 50.7293 4.19816 50.7386 4.19816 50.7482V53.3314C4.19816 54.2513 4.94657 54.9996 5.86642 54.9996H11.0328C11.9527 54.9996 12.701 54.2512 12.701 53.3314V51.5555H42.0845V53.3314C42.0845 54.2513 42.8329 54.9996 43.7527 54.9996H48.9191C49.839 54.9996 50.5873 54.2512 50.5873 53.3314V50.7482C50.5873 50.7386 50.5862 50.7293 50.5859 50.7199C51.6308 49.9446 52.3094 48.7021 52.3094 47.3041V37.2142C52.3094 36.3228 52.0355 35.4681 51.5175 34.743L48.7654 30.8903H53.2243C53.6702 30.8903 54.0316 30.5289 54.0316 30.083V26.6387C54.0317 26.1927 53.6704 25.8315 53.2245 25.8315ZM2.36845 29.2756V27.4459H5.23618L5.69358 29.2756H2.36845ZM11.0867 53.3314C11.0867 53.361 11.0626 53.3852 11.0329 53.3852H5.86653C5.83688 53.3852 5.81271 53.361 5.81271 53.3314V51.5555H6.72762H11.0867V53.3314ZM48.973 53.3314C48.973 53.361 48.9488 53.3852 48.9192 53.3852H43.7528C43.7232 53.3852 43.699 53.361 43.699 53.3314V51.5555H48.0581H48.973V53.3314ZM48.0582 49.9409H6.72751C5.55501 49.9409 4.55921 49.1716 4.21739 48.1112H50.5682C50.2264 49.1716 49.2307 49.9409 48.0582 49.9409ZM34.3351 41.2228V43.0525H20.4506V41.2228H34.3351ZM20.5775 39.6083C20.9193 38.5479 21.915 37.7786 23.0876 37.7786H31.6982C32.8707 37.7786 33.8665 38.5479 34.2083 39.6083H20.5775ZM34.3351 44.667V46.4967H20.4506V44.667H34.3351ZM50.204 35.6814C50.5253 36.1311 50.6952 36.6612 50.6952 37.2141V46.4968H35.9496V40.4155C35.9496 38.0713 34.0423 36.1641 31.6982 36.1641H23.0876C20.7433 36.1641 18.8362 38.0714 18.8362 40.4155V46.4968H4.09053V37.2141C4.09053 36.6612 4.26036 36.1311 4.58166 35.6814L8.004 30.8902H37.7254C38.1713 30.8902 38.5327 30.5288 38.5327 30.0829C38.5327 29.637 38.1713 29.2756 37.7254 29.2756H8.72953L12.7051 18.0115C13.0766 16.9593 14.0758 16.2521 15.1918 16.2521H39.594C40.7099 16.2521 41.7091 16.9592 42.0807 18.0115L46.0562 29.2756H41.1697C40.7238 29.2756 40.3624 29.637 40.3624 30.0829C40.3624 30.5288 40.7238 30.8902 41.1697 30.8902H46.7817L50.204 35.6814ZM52.4172 29.2756H49.092L49.5494 27.4459H52.4172V29.2756Z" fill="white"/>
<path d="M14.4765 35.3037H9.3102C8.8644 35.3037 8.50293 35.6651 8.50293 36.111C8.50293 36.5569 8.8644 36.9183 9.3102 36.9183H14.4765C14.9223 36.9183 15.2838 36.5569 15.2838 36.111C15.2838 35.6651 14.9223 35.3037 14.4765 35.3037Z" fill="white"/>
<path d="M45.4746 35.3037H40.3083C39.8623 35.3037 39.501 35.6651 39.501 36.111C39.501 36.5569 39.8623 36.9183 40.3083 36.9183H45.4746C45.9205 36.9183 46.2819 36.5569 46.2819 36.111C46.2819 35.6651 45.9205 35.3037 45.4746 35.3037Z" fill="white"/>
</svg>
