<svg width="55" height="55" viewBox="0 0 55 55" fill="none" xmlns="http://www.w3.org/2000/svg">
<path d="M52.9898 24.145C51.8531 23.0083 50.4637 22.5692 49.4982 22.4009C48.3979 22.2086 47.3162 22.7881 46.8674 23.809L42.8101 33.0387C42.3458 34.0951 42.697 35.3393 43.6453 35.9972L45.7566 37.4616C45.3191 38.2676 44.2736 39.9085 42.0885 42.0937C39.9227 44.2594 38.2663 45.3155 37.4546 45.7592L35.992 43.6506C35.3343 42.7023 34.0898 42.3512 33.0335 42.8155L30.7181 43.8334C30.3108 44.0125 30.1257 44.4878 30.3047 44.8951C30.4838 45.3025 30.9592 45.4877 31.3665 45.3085L33.6819 44.2907C34.0342 44.1359 34.4488 44.253 34.6682 44.569L36.5242 47.245C36.7347 47.5486 37.1246 47.6701 37.4701 47.5399C37.5651 47.5041 39.8365 46.6247 43.228 43.2333C46.6195 39.8419 47.4988 37.5704 47.5346 37.4753C47.6647 37.1298 47.5432 36.74 47.2397 36.5295L44.5637 34.6735C44.2476 34.4541 44.1305 34.0394 44.2853 33.6873L48.3426 24.4577C48.4923 24.1173 48.8538 23.9243 49.2216 23.9885C49.9579 24.1169 51.0119 24.4459 51.8506 25.2846C53.4562 26.8902 53.8207 30.0763 52.8258 33.8075C51.7195 37.9558 49.1792 42.1716 45.6728 45.678C42.1665 49.1844 37.9506 51.7248 33.8023 52.831C30.0711 53.8258 26.885 53.4613 25.2794 51.8558C24.4407 51.0171 24.1116 49.9632 23.9833 49.2268C23.9192 48.8589 24.1121 48.4974 24.4525 48.3478L28.4582 46.587C28.8656 46.4079 29.0506 45.9326 28.8716 45.5252C28.6926 45.1179 28.2174 44.9328 27.8099 45.1119L23.8041 46.8727C22.7833 47.3215 22.2043 48.4033 22.3961 49.5035C22.401 49.5319 22.4071 49.562 22.4125 49.5912C20.4277 49.1373 18.5223 48.4189 16.7263 47.4466C17.2963 46.4591 17.6244 45.3151 17.6244 44.0953C17.6244 42.3363 16.9497 40.6728 15.7245 39.4112C14.5023 38.1528 12.8647 37.4292 11.1133 37.3738C10.7359 37.3603 10.4001 37.6142 10.3071 37.9806C10.2139 38.347 10.3882 38.7289 10.7259 38.8987C11.9994 39.5394 12.7906 40.8214 12.7906 42.2445C12.7906 44.3087 11.1112 45.9881 9.04684 45.9881C7.62366 45.9881 6.34162 45.197 5.70109 43.9234C5.53116 43.5857 5.14939 43.4116 4.78299 43.5046C4.41659 43.5977 4.16426 43.9331 4.17619 44.3109C4.23161 46.0622 4.95518 47.6998 6.21369 48.922C7.47521 50.1472 9.13868 50.8219 10.8977 50.8219C12.802 50.8219 14.5227 50.0252 15.7476 48.7492C18.0123 50.0041 20.4429 50.8792 22.9857 51.3563C23.254 51.9125 23.625 52.4797 24.1402 52.995C25.465 54.3198 27.4704 54.9998 29.9023 54.9997C31.2278 54.9997 32.6804 54.7976 34.2176 54.3877C38.6357 53.2095 43.1085 50.5208 46.8123 46.8171C50.5161 43.1134 53.2046 38.6404 54.3829 34.2223C55.5444 29.8651 55.0368 26.192 52.9898 24.145ZM10.8972 49.2106C9.17456 49.2106 7.65707 48.3747 6.73155 47.0777C7.43922 47.4158 8.22638 47.5994 9.04641 47.5994C11.9991 47.5994 14.4014 45.1972 14.4014 42.2445C14.4014 41.4245 14.2179 40.6373 13.8797 39.9295C15.1769 40.855 16.0127 42.3726 16.0127 44.0952C16.0127 46.9159 13.7179 49.2106 10.8972 49.2106Z" fill="white"/>
<path d="M10.1016 44.0651C10.2946 44.0651 10.4883 43.9961 10.6424 43.8563C10.9721 43.5575 10.997 43.048 10.6982 42.7183C6.91311 38.5438 4.82855 33.1389 4.82855 27.4991C4.82855 15.0015 14.9961 4.83393 27.4937 4.83393C29.0322 4.83393 30.5692 4.98882 32.0624 5.29443C32.4981 5.3838 32.924 5.10258 33.0132 4.66668C33.1025 4.23077 32.8213 3.80508 32.3854 3.71592C30.7863 3.38862 29.1405 3.22266 27.4937 3.22266C21.0092 3.22266 14.9128 5.74784 10.3277 10.3331C5.74257 14.9183 3.21729 21.0146 3.21729 27.4991C3.21729 33.5398 5.45007 39.3292 9.50446 43.8006C9.66354 43.9761 9.88214 44.0651 10.1016 44.0651Z" fill="white"/>
<path d="M34.8288 39.4462C34.9343 39.4926 35.0443 39.5145 35.1526 39.5145C35.4624 39.5145 35.7579 39.3347 35.8906 39.0328L41.4434 26.4008C41.553 26.1517 41.5293 25.8642 41.3806 25.6362C41.2319 25.4083 40.9781 25.271 40.706 25.271H33.7568C33.3119 25.271 32.9512 25.6317 32.9512 26.0766C32.9512 26.5216 33.3119 26.8823 33.7568 26.8823H39.4719L34.4157 38.3845C34.2364 38.7918 34.4215 39.2671 34.8288 39.4462Z" fill="white"/>
<path d="M24.2785 39.4463C24.384 39.4927 24.494 39.5146 24.6022 39.5146C24.912 39.5146 25.2075 39.3348 25.3402 39.0329L34.8072 17.4971C34.9862 17.0898 34.8012 16.6145 34.3938 16.4354C33.9866 16.2566 33.5112 16.4414 33.3321 16.8488L23.8651 38.3845C23.6862 38.7919 23.8712 39.2672 24.2785 39.4463Z" fill="white"/>
<path d="M24.5877 30.6102H24.5948C25.0364 30.6102 25.3964 30.2541 25.4002 29.8115C25.4031 29.471 25.4128 28.3301 25.4231 26.882H26.238C26.6829 26.882 27.0436 26.5213 27.0436 26.0763C27.0436 25.6314 26.6829 25.2707 26.238 25.2707H25.4338C25.4535 22.1174 25.4672 18.4397 25.4291 17.9812C25.3663 17.2264 24.9308 16.6164 24.3199 16.4272C24.0334 16.3386 23.2894 16.2267 22.5741 17.1042C21.8559 17.9855 18.0337 24.9015 17.6003 25.6872C17.4626 25.9367 17.467 26.2405 17.6119 26.4859C17.7568 26.7314 18.0206 26.882 18.3056 26.882H23.8118C23.8046 27.9029 23.7968 28.8988 23.789 29.7976C23.7852 30.2426 24.1428 30.6065 24.5877 30.6102ZM19.6729 25.2708C21.2793 22.3829 23.4115 18.6271 23.8229 18.1222C23.8232 18.1219 23.8234 18.1216 23.8237 18.1212C23.8536 18.5158 23.8438 21.8186 23.8225 25.2708H19.6729Z" fill="white"/>
<path d="M14.7899 23.0506C10.8683 28.6536 10.3335 29.364 10.314 29.3898C10.1279 29.6329 10.0956 29.9604 10.2307 30.2352C10.3658 30.5098 10.645 30.6843 10.9512 30.6851L17.3882 30.7049H17.3907C17.8344 30.7049 18.1949 30.3458 18.1963 29.9017C18.1977 29.4568 17.8381 29.095 17.3931 29.0936L12.52 29.0787C13.1725 28.1595 14.2713 26.6014 16.1098 23.9744C16.8709 22.887 17.3647 21.8702 17.5776 20.9522C17.5837 20.9258 17.5885 20.8991 17.5919 20.8723L17.6543 20.3836C17.6587 20.3498 17.6608 20.3158 17.6608 20.2816C17.6608 18.055 15.8494 16.2437 13.6229 16.2437C11.6976 16.2437 10.0312 17.6131 9.66075 19.4998C9.57503 19.9364 9.85948 20.3598 10.296 20.4456C10.7327 20.5311 11.1561 20.2469 11.2418 19.8104C11.4644 18.6773 12.4658 17.8549 13.623 17.8549C14.9452 17.8549 16.0237 18.9178 16.0491 20.2339L15.9991 20.6259C15.8275 21.3335 15.4208 22.1491 14.7899 23.0506Z" fill="white"/>
<path d="M33.993 11.7082H37.4132C37.781 14.7743 40.2183 17.2116 43.2844 17.5794V20.9996C43.2844 21.4445 43.6451 21.8052 44.09 21.8052C44.5349 21.8052 44.8956 21.4445 44.8956 20.9996V17.5794C45.5395 17.5021 46.156 17.3349 46.7312 17.0884L48.4408 20.0496C48.5901 20.308 48.8609 20.4525 49.1393 20.4525C49.2759 20.4525 49.4145 20.4177 49.5413 20.3444C49.9267 20.122 50.0587 19.6292 49.8362 19.2439L48.1254 16.2807C48.6336 15.8985 49.0859 15.4461 49.4682 14.9379L52.4314 16.6487C52.5583 16.722 52.6969 16.7568 52.8335 16.7568C53.1119 16.7568 53.3827 16.6122 53.5319 16.3538C53.7544 15.9685 53.6224 15.4758 53.2371 15.2533L50.2758 13.5437C50.5223 12.9686 50.6895 12.3521 50.7668 11.7082H54.187C54.6319 11.7082 54.9926 11.3475 54.9926 10.9026C54.9926 10.4577 54.6319 10.097 54.187 10.097H50.7668C50.6895 9.4531 50.5223 8.83663 50.2758 8.26151L53.2371 6.55185C53.6224 6.32939 53.7544 5.83666 53.5319 5.45135C53.3095 5.06594 52.8166 4.93403 52.4314 5.15649L49.4682 6.86723C49.086 6.35904 48.6336 5.9067 48.1254 5.5244L49.8362 2.56117C50.0587 2.17586 49.9267 1.68313 49.5413 1.46067C49.156 1.23821 48.6633 1.37022 48.4408 1.75553L46.7312 4.71683C46.1561 4.47031 45.5396 4.30306 44.8957 4.22582V0.805635C44.8957 0.360709 44.535 0 44.0901 0C43.6452 0 43.2845 0.360709 43.2845 0.805635V4.22582C42.6406 4.30306 42.0241 4.47031 41.449 4.71683L39.7394 1.75553C39.5169 1.37012 39.0242 1.23821 38.6389 1.46067C38.2535 1.68313 38.1215 2.17586 38.344 2.56117L40.0548 5.5244C39.5466 5.90659 39.0942 6.35904 38.712 6.86723L35.7488 5.15638C35.3634 4.93381 34.8706 5.06594 34.6483 5.45125C34.4258 5.83655 34.5578 6.32928 34.9431 6.55174L37.9043 8.26141C37.6578 8.83652 37.4906 9.4531 37.4133 10.097H33.9931C33.5482 10.097 33.1875 10.4577 33.1875 10.9026C33.1875 11.3475 33.5481 11.7082 33.993 11.7082ZM38.9745 10.9026C38.9745 8.08191 41.2693 5.78714 44.09 5.78714C46.9107 5.78714 49.2055 8.08191 49.2055 10.9026C49.2055 13.7233 46.9107 16.0181 44.09 16.0181C41.2693 16.0181 38.9745 13.7233 38.9745 10.9026Z" fill="white"/>
<path d="M4.83381 39.4808C4.83381 39.0359 4.4731 38.6752 4.02817 38.6752H3.22254V37.3325C3.22254 36.8876 2.86183 36.5269 2.4169 36.5269C1.97198 36.5269 1.61127 36.8876 1.61127 37.3325V38.6752H0.805635C0.360709 38.6752 0 39.0359 0 39.4808C0 39.9258 0.360709 40.2865 0.805635 40.2865H1.61127V41.6292C1.61127 42.0741 1.97198 42.4348 2.4169 42.4348C2.86183 42.4348 3.22254 42.0741 3.22254 41.6292V40.2865H4.02817C4.4731 40.2865 4.83381 39.9258 4.83381 39.4808Z" fill="white"/>
<path d="M17.3764 51.9736H17.1222V51.3662C17.1222 50.9213 16.7615 50.5605 16.3166 50.5605C15.8717 50.5605 15.511 50.9213 15.511 51.3662V51.9736H15.2568C14.8119 51.9736 14.4512 52.3343 14.4512 52.7793C14.4512 53.2242 14.8119 53.5849 15.2568 53.5849H15.511V54.1923C15.511 54.6373 15.8717 54.998 16.3166 54.998C16.7615 54.998 17.1222 54.6373 17.1222 54.1923V53.5849H17.3764C17.8213 53.5849 18.182 53.2242 18.182 52.7793C18.182 52.3343 17.8213 51.9736 17.3764 51.9736Z" fill="white"/>
</svg>
