<svg width="55" height="55" viewBox="0 0 55 55" fill="none" xmlns="http://www.w3.org/2000/svg">
<path d="M29.3332 45.8333C30.6023 45.8333 31.8429 45.457 32.8981 44.7519C33.9533 44.0469 34.7757 43.0447 35.2614 41.8722C35.7471 40.6997 35.8741 39.4096 35.6265 38.1648C35.379 36.9201 34.7678 35.7768 33.8704 34.8794C32.9731 33.982 31.8297 33.3709 30.585 33.1233C29.3403 32.8757 28.0501 33.0028 26.8776 33.4884C25.7051 33.9741 24.703 34.7965 23.9979 35.8518C23.2928 36.907 22.9165 38.1476 22.9165 39.4167C22.9184 41.1179 23.5951 42.7489 24.798 43.9518C26.001 45.1548 27.632 45.8314 29.3332 45.8333V45.8333ZM29.3332 34.8333C30.2397 34.8333 31.1258 35.1021 31.8795 35.6058C32.6333 36.1094 33.2207 36.8252 33.5676 37.6627C33.9145 38.5002 34.0053 39.4218 33.8284 40.3108C33.6516 41.1999 33.2151 42.0166 32.5741 42.6576C31.9331 43.2986 31.1164 43.7351 30.2273 43.9119C29.3383 44.0888 28.4167 43.998 27.5792 43.6511C26.7417 43.3042 26.0259 42.7168 25.5223 41.963C25.0186 41.2093 24.7498 40.3232 24.7498 39.4167C24.7512 38.2015 25.2346 37.0365 26.0938 36.1773C26.953 35.3181 28.118 34.8347 29.3332 34.8333Z" fill="white"/>
<path d="M42.0904 42.7451L44.2141 42.2359C44.4144 42.1879 44.5927 42.0738 44.7202 41.9121C44.8477 41.7504 44.9171 41.5504 44.9171 41.3445V37.4892C44.9171 37.2832 44.8477 37.0833 44.7202 36.9216C44.5927 36.7598 44.4144 36.6458 44.2141 36.5978L42.0905 36.0887C41.7482 36.0066 41.4301 35.8446 41.1623 35.616C40.8946 35.3874 40.6847 35.0987 40.5499 34.7735C40.4152 34.4482 40.3593 34.0957 40.3869 33.7447C40.4145 33.3937 40.5247 33.0543 40.7087 32.7541L41.8572 30.8798C41.9648 30.7043 42.0101 30.4976 41.9859 30.2931C41.9617 30.0886 41.8694 29.8983 41.7238 29.7527L38.9978 27.0268C38.8522 26.8813 38.6618 26.789 38.4574 26.7648C38.2529 26.7406 38.0463 26.7859 37.8707 26.8935L35.9965 28.042C35.6963 28.2259 35.3568 28.3362 35.0059 28.3637C34.6549 28.3913 34.3024 28.3354 33.9772 28.2006C33.6519 28.0659 33.3632 27.856 33.1346 27.5883C32.9061 27.3205 32.7441 27.0025 32.662 26.6602L32.1528 24.5364C32.1048 24.3362 31.9907 24.1579 31.829 24.0304C31.6673 23.9029 31.4673 23.8335 31.2614 23.8335H27.4061C27.2001 23.8335 27.0002 23.9028 26.8385 24.0304C26.6767 24.1579 26.5627 24.3362 26.5147 24.5364L26.0056 26.66C25.9235 27.0024 25.7615 27.3205 25.5329 27.5882C25.3043 27.856 25.0156 28.0658 24.6904 28.2006C24.3651 28.3354 24.0126 28.3913 23.6616 28.3637C23.3106 28.3361 22.9712 28.2258 22.671 28.0419L20.7967 26.8933L19.8389 28.4566L21.713 29.6051C22.2599 29.9402 22.8784 30.1411 23.5179 30.1914C24.1573 30.2417 24.7996 30.1399 25.3921 29.8943C25.9847 29.6488 26.5107 29.2665 26.9272 28.7786C27.3437 28.2908 27.6387 27.7113 27.7883 27.0876L28.1289 25.6668H30.5385L30.8793 27.0876C31.0288 27.7113 31.3239 28.2908 31.7403 28.7786C32.1568 29.2664 32.6828 29.6488 33.2753 29.8943C33.8678 30.1399 34.5101 30.2417 35.1495 30.1914C35.7889 30.1412 36.4074 29.9403 36.9543 29.6052L38.2125 28.8342L39.9165 30.5381L39.1455 31.7961C38.8104 32.343 38.6094 32.9615 38.5592 33.601C38.5089 34.2404 38.6107 34.8827 38.8562 35.4752C39.1018 36.0678 39.4841 36.5938 39.9719 37.0103C40.4597 37.4268 41.0392 37.7218 41.663 37.8714L43.0837 38.212V40.6216L41.663 40.9624C41.0392 41.1119 40.4598 41.407 39.9719 41.8234C39.4841 42.2399 39.1018 42.7659 38.8562 43.3584C38.6107 43.9509 38.5089 44.5932 38.5591 45.2326C38.6094 45.872 38.8103 46.4905 39.1454 47.0374L39.9164 48.2956L38.2125 49.9996L36.9544 49.2286C36.4075 48.8935 35.789 48.6925 35.1496 48.6423C34.5101 48.592 33.8679 48.6938 33.2753 48.9393C32.6828 49.1849 32.1567 49.5672 31.7403 50.055C31.3238 50.5428 31.0287 51.1223 30.8791 51.7461L30.5385 53.1668H28.1289L27.7882 51.7461C27.6386 51.1223 27.3436 50.5429 26.9271 50.055C26.5107 49.5672 25.9847 49.1849 25.3922 48.9393C24.7996 48.6938 24.1574 48.592 23.5179 48.6422C22.8785 48.6925 22.2601 48.8934 21.7132 49.2285L19.8389 50.377L20.7967 51.9402L22.671 50.7917C22.9712 50.6078 23.3106 50.4975 23.6616 50.4699C24.0126 50.4423 24.3651 50.4982 24.6903 50.633C25.0155 50.7678 25.3042 50.9776 25.5328 51.2454C25.7614 51.5131 25.9233 51.8312 26.0054 52.1735L26.5147 54.2972C26.5627 54.4975 26.6767 54.6758 26.8385 54.8033C27.0002 54.9308 27.2001 55.0002 27.4061 55.0002H31.2614C31.4673 55.0002 31.6673 54.9308 31.829 54.8033C31.9907 54.6758 32.1048 54.4975 32.1528 54.2972L32.6619 52.1736C32.744 51.8313 32.906 51.5132 33.1345 51.2454C33.3631 50.9777 33.6518 50.7678 33.9771 50.633C34.3023 50.4983 34.6549 50.4424 35.0058 50.47C35.3568 50.4976 35.6963 50.6079 35.9965 50.7918L37.8707 51.9403C38.0463 52.0479 38.253 52.0932 38.4574 52.069C38.6619 52.0448 38.8523 51.9525 38.9979 51.8069L41.7237 49.081C41.8693 48.9354 41.9616 48.745 41.9858 48.5405C42.01 48.3361 41.9647 48.1294 41.8571 47.9538L40.7086 46.0796C40.5247 45.7794 40.4144 45.4399 40.3868 45.089C40.3592 44.738 40.4151 44.3855 40.5499 44.0603C40.6847 43.735 40.8945 43.4463 41.1623 43.2178C41.43 42.9892 41.7481 42.8272 42.0904 42.7451V42.7451Z" fill="white"/>
<path d="M54.0837 25.6665H50.417V21.0832C50.417 20.8401 50.3204 20.6069 50.1485 20.435C49.9766 20.2631 49.7434 20.1665 49.5003 20.1665H45.8337C45.5905 20.1665 45.3574 20.2631 45.1855 20.435C45.0136 20.6069 44.917 20.8401 44.917 21.0832V25.6665H42.167V27.4998H53.167V31.1665H43.0837V32.9998H53.167V36.6665H46.7503V38.4998H53.167V42.1665H46.7503V43.9998H53.167V47.6665H44.0003V49.4998H44.917V54.0832C44.917 54.3263 45.0136 54.5594 45.1855 54.7313C45.3574 54.9032 45.5905 54.9998 45.8337 54.9998H49.5003C49.7434 54.9998 49.9766 54.9032 50.1485 54.7313C50.3204 54.5594 50.417 54.3263 50.417 54.0832V49.4998H54.0837C54.3268 49.4998 54.5599 49.4032 54.7318 49.2313C54.9037 49.0594 55.0003 48.8263 55.0003 48.5832V26.5832C55.0003 26.3401 54.9037 26.1069 54.7318 25.935C54.5599 25.7631 54.3268 25.6665 54.0837 25.6665V25.6665ZM48.5837 25.6665H46.7503V21.9998H48.5837V25.6665ZM48.5837 53.1665H46.7503V49.4998H48.5837V53.1665Z" fill="white"/>
<path d="M14.0114 26.3218L13.4886 28.079C15.5689 28.6978 16.5 29.615 16.5 30.2496C16.5 30.8189 15.7827 31.4915 14.6281 32.0046C13.1845 32.6462 11.2448 32.9996 9.16667 32.9996C4.69008 32.9996 1.83333 31.3708 1.83333 30.2496C1.83333 29.615 2.76444 28.6978 4.84473 28.079L4.32194 26.3218C1.5753 27.1389 0 28.5705 0 30.2496V50.6782C0 51.9832 1.05945 53.1391 2.98331 53.933C4.64991 54.6208 6.8458 54.9996 9.16667 54.9996C11.4875 54.9996 13.6834 54.6208 15.35 53.933C17.2739 53.1391 18.3333 51.9832 18.3333 50.6782V30.2496C18.3333 28.5705 16.758 27.1389 14.0114 26.3218ZM3.66667 52.2315C2.55253 51.7686 1.83333 51.16 1.83333 50.6782V48.649C2.40713 49.0197 3.02245 49.3217 3.66667 49.5489V52.2315ZM8.25 53.1439C7.32517 53.1041 6.40529 52.987 5.5 52.7938V50.0611C6.40646 50.2445 7.32598 50.3563 8.25 50.3952V53.1439ZM12.8333 52.7938C11.928 52.987 11.0082 53.1041 10.0833 53.1439V50.3952C11.0074 50.3563 11.9269 50.2445 12.8333 50.0611V52.7938ZM16.5 50.6782C16.5 51.16 15.7808 51.7686 14.6667 52.2315V49.5489C15.3109 49.3217 15.9262 49.0197 16.5 48.649V50.6782ZM16.5 45.8329C16.5 46.4023 15.7827 47.0748 14.6281 47.588C13.1845 48.2296 11.2448 48.5829 9.16667 48.5829C4.69008 48.5829 1.83333 46.9542 1.83333 45.8329V33.0657C3.47834 34.1541 6.10061 34.8329 9.16667 34.8329C12.2327 34.8329 14.855 34.1541 16.5 33.0657V45.8329Z" fill="white"/>
<path d="M5.49984 35.75H3.6665V45.8333H5.49984V35.75Z" fill="white"/>
<path d="M10.0833 36.6665H8.25V46.7498H10.0833V36.6665Z" fill="white"/>
<path d="M14.6668 35.75H12.8335V45.8333H14.6668V35.75Z" fill="white"/>
<path d="M8.25033 22.9165C8.25033 22.6734 8.3469 22.4402 8.51881 22.2683C8.69072 22.0964 8.92388 21.9998 9.16699 21.9998C9.41011 21.9998 9.64326 22.0964 9.81517 22.2683C9.98708 22.4402 10.0837 22.6734 10.0837 22.9165V30.2498H11.917V22.9165C11.917 22.1872 11.6273 21.4877 11.1115 20.972C10.5958 20.4562 9.89634 20.1665 9.16699 20.1665C8.43765 20.1665 7.73817 20.4562 7.22245 20.972C6.70672 21.4877 6.41699 22.1872 6.41699 22.9165V30.2498H8.25033V22.9165Z" fill="white"/>
<path d="M11 18.3333H24.2917L26.7666 21.6333C26.852 21.7472 26.9627 21.8396 27.09 21.9032C27.2173 21.9669 27.3577 22 27.5 22C27.6423 22 27.7827 21.9669 27.91 21.9032C28.0373 21.8396 28.148 21.7472 28.2334 21.6333L30.7083 18.3333H44C44.7291 18.3325 45.4281 18.0425 45.9436 17.527C46.4592 17.0114 46.7492 16.3124 46.75 15.5833V2.75C46.7492 2.02091 46.4592 1.32192 45.9436 0.806377C45.4281 0.290833 44.7291 0.000833982 44 0H11C10.2709 0.000833982 9.57192 0.290833 9.05638 0.806377C8.54083 1.32192 8.25083 2.02091 8.25 2.75V15.5833C8.25083 16.3124 8.54083 17.0114 9.05638 17.527C9.57192 18.0425 10.2709 18.3325 11 18.3333V18.3333ZM10.0833 2.75C10.0836 2.50697 10.1803 2.27397 10.3521 2.10213C10.524 1.93028 10.757 1.83361 11 1.83333H44C44.243 1.83361 44.476 1.93028 44.6479 2.10213C44.8197 2.27397 44.9164 2.50697 44.9167 2.75V15.5833C44.9164 15.8264 44.8197 16.0594 44.6479 16.2312C44.476 16.4031 44.243 16.4997 44 16.5H30.25C30.1077 16.5 29.9673 16.5331 29.84 16.5968C29.7127 16.6604 29.602 16.7528 29.5166 16.8667L27.5 19.5556L25.4834 16.8667C25.398 16.7528 25.2873 16.6604 25.16 16.5968C25.0327 16.5331 24.8923 16.5 24.75 16.5H11C10.757 16.4997 10.524 16.4031 10.3521 16.2312C10.1803 16.0594 10.0836 15.8264 10.0833 15.5833V2.75Z" fill="white"/>
<path d="M18.333 14.6665H21.9997C23.4584 14.6665 24.8573 14.087 25.8888 13.0556C26.9202 12.0241 27.4997 10.6252 27.4997 9.1665C27.4997 7.70781 26.9202 6.30887 25.8888 5.27742C24.8573 4.24597 23.4584 3.6665 21.9997 3.6665H18.333C16.8743 3.6665 15.4754 4.24597 14.4439 5.27742C13.4125 6.30887 12.833 7.70781 12.833 9.1665C12.833 10.6252 13.4125 12.0241 14.4439 13.0556C15.4754 14.087 16.8743 14.6665 18.333 14.6665V14.6665ZM25.5503 8.24984H23.7552C23.5842 7.23897 23.1331 6.29631 22.4533 5.5289C23.1823 5.62091 23.8671 5.92932 24.4191 6.41433C24.9712 6.89934 25.3652 7.53869 25.5503 8.24984V8.24984ZM23.7552 10.0832H25.5503C25.3652 10.7943 24.9712 11.4337 24.4191 11.9187C23.8671 12.4037 23.1823 12.7121 22.4533 12.8041C23.1331 12.0367 23.5842 11.094 23.7552 10.0832V10.0832ZM18.333 5.49984C19.0582 5.49984 19.7671 5.71488 20.3701 6.11778C20.9731 6.52068 21.443 7.09334 21.7206 7.76333C21.9981 8.43333 22.0707 9.17057 21.9292 9.88184C21.7877 10.5931 21.4385 11.2464 20.9257 11.7592C20.4129 12.272 19.7596 12.6212 19.0483 12.7627C18.3371 12.9042 17.5998 12.8316 16.9298 12.5541C16.2598 12.2765 15.6872 11.8066 15.2843 11.2036C14.8814 10.6006 14.6663 9.8917 14.6663 9.1665C14.6675 8.19438 15.0541 7.2624 15.7415 6.57501C16.4289 5.88761 17.3609 5.50095 18.333 5.49984V5.49984Z" fill="white"/>
<path d="M34.8338 9.54617L36.0189 10.7314C36.1908 10.9032 36.424 10.9998 36.6671 10.9998C36.9102 10.9998 37.1434 10.9032 37.3153 10.7314L41.2504 6.79628V9.1665H43.0838V4.58317C43.0838 4.34006 42.9872 4.10691 42.8153 3.935C42.6434 3.7631 42.4102 3.66652 42.1671 3.6665H37.5838V5.49984H39.954L36.6671 8.78683L35.482 7.60161C35.31 7.42976 35.0769 7.33323 34.8338 7.33323C34.5907 7.33323 34.3575 7.42976 34.1855 7.60161L28.6855 13.1016L29.982 14.3981L34.8338 9.54617Z" fill="white"/>
</svg>
