<svg width="57" height="55" viewBox="0 0 57 55" fill="none" xmlns="http://www.w3.org/2000/svg">
<path d="M23.1279 49.2426L22.9625 50.0505L23.1219 49.2418C22.6752 49.1537 22.2415 49.4445 22.1534 49.8912C22.0654 50.3382 22.3561 50.7716 22.8032 50.8596C22.8045 50.86 22.8169 50.8622 22.8182 50.8626C22.8706 50.8725 22.9226 50.8777 22.9741 50.8777C23.3619 50.8777 23.7077 50.6028 23.7828 50.2077C23.8687 49.7602 23.5754 49.3281 23.1279 49.2426Z" fill="white"/>
<path d="M29.4326 49.508L29.5147 50.3283L29.4301 49.5084C28.977 49.5548 28.6476 49.9598 28.6944 50.4129C28.7377 50.8372 29.0959 51.1533 29.5134 51.1533C29.5417 51.1533 29.5705 51.1516 29.5988 51.149L29.6216 51.1464C30.0726 51.0936 30.3925 50.6869 30.3423 50.2359C30.2916 49.7854 29.8836 49.4607 29.4326 49.508Z" fill="white"/>
<path d="M26.2762 49.6118C26.2762 49.6118 26.2646 49.6113 26.2642 49.6113C25.8098 49.5907 25.4301 49.9437 25.4095 50.3986C25.3893 50.8534 25.7466 51.2386 26.2015 51.2592C26.2143 51.2601 26.2268 51.2601 26.2397 51.2601C26.6777 51.2601 27.0428 50.9152 27.0625 50.4729C27.0832 50.018 26.7314 49.6324 26.2762 49.6118Z" fill="white"/>
<path d="M20.0824 48.4049L20.0721 48.401C19.6434 48.2473 19.1762 48.4715 19.0224 48.9001C18.8682 49.3287 19.0959 49.8028 19.5245 49.957C19.6168 49.9901 19.7109 50.0055 19.8032 50.0055C20.1412 50.0055 20.4586 49.7964 20.5793 49.4597C20.7334 49.0311 20.511 48.5586 20.0824 48.4049Z" fill="white"/>
<path d="M32.5447 48.9307L32.7478 49.7299L32.5421 48.9315C32.1011 49.0449 31.8356 49.4946 31.949 49.9356C32.0448 50.3075 32.3798 50.5549 32.747 50.5549C32.8153 50.5549 32.8844 50.5463 32.9536 50.5283C32.957 50.5274 32.9716 50.5236 32.9755 50.5227C33.4131 50.4033 33.6691 49.9537 33.5523 49.5152C33.4354 49.0771 32.9841 48.8164 32.5447 48.9307Z" fill="white"/>
<path d="M35.5255 47.8909L35.8523 48.6476L35.5229 47.8918C35.1055 48.0739 34.9144 48.5596 35.096 48.977C35.2313 49.2875 35.5345 49.4726 35.8528 49.4726C35.9623 49.4726 36.0744 49.4503 36.1813 49.4039C36.1847 49.4022 36.1981 49.3966 36.2015 49.3949C36.6151 49.2081 36.7976 48.7236 36.6129 48.3092C36.4283 47.8943 35.9412 47.7084 35.5255 47.8909Z" fill="white"/>
<path d="M16.9324 10.3017C17.0647 10.3017 17.1991 10.2699 17.3232 10.2038C17.7252 9.98948 17.8768 9.49 17.6625 9.08802C17.4482 8.68646 16.9492 8.534 16.5472 8.74873L16.5373 8.75389C16.1357 8.96819 15.9884 9.46509 16.2027 9.86708C16.3505 10.1445 16.6374 10.3017 16.9324 10.3017Z" fill="white"/>
<path d="M7.39432 19.5118C7.51672 19.5758 7.64771 19.6063 7.77698 19.6063C8.07374 19.6063 8.36063 19.4457 8.50794 19.1644L8.52254 19.1356C8.72354 18.7268 8.55518 18.2324 8.14632 18.0319C7.74047 17.8317 7.25001 17.9967 7.04644 18.3999C6.836 18.8028 6.99147 19.3005 7.39432 19.5118Z" fill="white"/>
<path d="M6.23348 22.6138C6.32109 22.6434 6.40999 22.6576 6.49803 22.6576C6.84161 22.6576 7.16243 22.4407 7.27882 22.0972L7.28955 22.0645C7.42355 21.6295 7.17918 21.1678 6.74369 21.0342C6.31207 20.9011 5.85382 21.1407 5.71596 21.5702C5.57123 22.001 5.80272 22.4682 6.23348 22.6138Z" fill="white"/>
<path d="M9.02114 16.6268C9.16759 16.7333 9.33723 16.7849 9.50558 16.7849C9.76026 16.7849 10.0119 16.6668 10.173 16.4452L10.1837 16.4306C10.4483 16.0604 10.362 15.5467 9.99261 15.2822C9.62283 15.0172 9.10746 15.1022 8.84205 15.4716L9.50644 15.9603L8.83947 15.475C8.57148 15.8435 8.65308 16.3593 9.02114 16.6268Z" fill="white"/>
<path d="M14.133 12.083C14.306 12.083 14.4804 12.0285 14.6294 11.9151C14.9971 11.6462 15.0765 11.1304 14.8077 10.7628C14.5384 10.3952 14.0226 10.3157 13.6554 10.5846L13.6348 10.5996C13.2723 10.8749 13.2001 11.3933 13.4754 11.7562C13.6378 11.9701 13.8839 12.083 14.133 12.083Z" fill="white"/>
<path d="M5.49703 35.1191C5.60612 35.4734 5.93166 35.7006 6.28383 35.7006C6.36414 35.7006 6.44617 35.6886 6.52691 35.6636C6.95982 35.5309 7.20419 35.0723 7.07449 34.6385C6.95037 34.2056 6.50157 33.9513 6.0648 34.0703C5.62545 34.1901 5.36647 34.6436 5.4863 35.083C5.48887 35.0916 5.49446 35.1105 5.49703 35.1191Z" fill="white"/>
<path d="M11.6421 14.256C11.8564 14.256 12.0707 14.1731 12.2326 14.0082C12.5543 13.6861 12.5543 13.1638 12.2326 12.8422C11.9105 12.5201 11.3883 12.5201 11.0662 12.8422L11.0524 12.8559C10.7337 13.181 10.7402 13.7024 11.0653 14.0211C11.2255 14.1783 11.4338 14.256 11.6421 14.256Z" fill="white"/>
<path d="M6.40867 31.524C6.35069 31.076 5.9414 30.7582 5.49303 30.8115C5.04122 30.8656 4.71826 31.2757 4.77195 31.728L4.77667 31.7611C4.8368 32.1708 5.18853 32.4645 5.59095 32.4645C5.63046 32.4645 5.67083 32.4615 5.71163 32.4555C6.16043 32.3902 6.4718 31.9728 6.40867 31.524Z" fill="white"/>
<path d="M5.37273 29.1625C5.38132 29.1625 5.38948 29.1629 5.39764 29.1629C5.84171 29.1629 6.20848 28.8094 6.22136 28.3624L6.22222 28.3272C6.22222 27.8715 5.85288 27.5026 5.39764 27.5026C4.9454 27.5026 4.57863 27.8659 4.57305 28.3164C4.56102 28.7708 4.91877 29.1492 5.37273 29.1625Z" fill="white"/>
<path d="M5.55344 25.8556C5.60283 25.8641 5.65136 25.8684 5.69989 25.8684C6.09157 25.8684 6.43901 25.588 6.51074 25.189C6.51288 25.177 6.5146 25.165 6.51632 25.1529C6.58289 24.7024 6.27152 24.2833 5.82057 24.2171C5.37521 24.151 4.95819 24.4572 4.88647 24.9013C4.80831 25.3488 5.10636 25.7752 5.55344 25.8556Z" fill="white"/>
<path d="M44.4508 16.8871C44.6106 17.119 44.8674 17.2431 45.1294 17.2431C45.2904 17.2431 45.4536 17.1959 45.5962 17.0976C45.9711 16.8399 46.066 16.3262 45.8084 15.9509L45.1229 16.4095L45.8058 15.947C45.5498 15.5699 45.037 15.4716 44.6604 15.7271C44.2833 15.9826 44.185 16.4954 44.4405 16.8725L44.4508 16.8871Z" fill="white"/>
<path d="M48.6621 25.1849C48.2094 25.2356 47.8839 25.644 47.935 26.0967L47.9393 26.1323C47.9981 26.5433 48.3511 26.8401 48.7548 26.8401C48.7935 26.8401 48.833 26.8375 48.8725 26.8319C49.3196 26.7679 49.6314 26.3561 49.5734 25.9094C49.5214 25.4581 49.1117 25.1342 48.6621 25.1849Z" fill="white"/>
<path d="M47.27 22.858L47.2735 22.8688C47.3791 23.2282 47.7076 23.461 48.0641 23.461C48.141 23.461 48.2192 23.4503 48.2969 23.4271C48.7341 23.2987 48.984 22.8404 48.8556 22.4032L48.8522 22.3925C48.7238 21.9553 48.2655 21.7053 47.8283 21.8342C47.3916 21.9626 47.1416 22.4208 47.27 22.858Z" fill="white"/>
<path d="M46.1057 19.7753C46.2496 20.0677 46.5438 20.2382 46.8496 20.2382C46.9711 20.2382 47.0948 20.2112 47.2112 20.1536C47.6196 19.9526 47.7893 19.4613 47.5879 19.0525L46.8406 19.4008L47.587 19.0508C47.3937 18.6385 46.9028 18.4611 46.4906 18.6543C46.0783 18.8476 45.9005 19.3385 46.0937 19.7508L46.1057 19.7753Z" fill="white"/>
<path d="M42.3735 14.3119C42.535 14.4769 42.7484 14.5593 42.9623 14.5593C43.1706 14.5593 43.3789 14.4812 43.5395 14.3235C43.8625 14.0074 43.8698 13.4908 43.5584 13.1653C43.2496 12.8324 42.7291 12.8122 42.395 13.1206C42.0604 13.4294 42.0398 13.9512 42.3486 14.2857L42.3735 14.3119Z" fill="white"/>
<path d="M48.9296 28.6282C48.4766 28.6166 48.0973 28.9718 48.0814 29.4249C48.0608 29.8763 48.4074 30.2606 48.8592 30.286C48.8751 30.2868 48.8901 30.2873 48.906 30.2873C49.3402 30.2873 49.704 29.9475 49.7285 29.5082L49.7298 29.4743C49.7426 29.0195 49.3845 28.6415 48.9296 28.6282Z" fill="white"/>
<path d="M37.1007 10.2631L37.1205 10.2738C37.2433 10.3391 37.3751 10.37 37.5048 10.37C37.7982 10.37 38.0821 10.212 38.2311 9.93496C38.4458 9.53512 38.2946 9.03521 37.8961 8.81876L37.4971 9.54027L37.8935 8.81704C37.4941 8.59801 36.9929 8.74446 36.7739 9.14387C36.5553 9.54285 36.7013 10.0445 37.1007 10.2631Z" fill="white"/>
<path d="M39.89 12.0715L39.9029 12.0814C40.0519 12.1944 40.2267 12.2489 40.4006 12.2489C40.6497 12.2489 40.8958 12.1364 41.0581 11.9225C41.3334 11.5596 41.2621 11.0425 40.8997 10.7672L40.8941 10.7634C40.5329 10.4859 40.0154 10.5538 39.7379 10.915C39.4605 11.2762 39.5288 11.7941 39.89 12.0715Z" fill="white"/>
<path d="M55.7829 41.1117L51.9121 37.234C51.5827 36.9042 51.1451 36.7225 50.6791 36.7225C50.2135 36.7225 49.7755 36.9042 49.4465 37.234L49.3567 37.3238L49.1025 37.0695C48.7885 36.7547 48.5455 36.3884 48.3805 35.9894C48.3659 35.9366 48.3466 35.885 48.3217 35.8365C48.1954 35.4818 48.1297 35.1042 48.1297 34.7164V33.6196C48.2049 33.6591 48.2869 33.6878 48.375 33.7029C48.4222 33.711 48.469 33.7149 48.5154 33.7149C48.9066 33.7149 49.2528 33.4357 49.3254 33.0389C49.4134 32.5931 49.1244 32.1598 48.6782 32.0704C48.4819 32.0314 48.2878 32.0653 48.1246 32.1538C48.0739 30.9822 47.595 29.8879 46.7619 29.053L43.0065 25.2912C42.1639 24.4473 41.0434 23.9826 39.8516 23.9826C38.9291 23.9826 38.0504 24.2622 37.3092 24.7797L36.9106 24.379V14.9478C36.9106 13.811 36.4979 12.7141 35.7489 11.8599C35.2159 11.2526 34.9226 10.4727 34.9226 9.66357V8.97254H34.9793C35.9404 8.97254 36.7225 8.19048 36.7225 7.22889V1.74366C36.7225 0.78207 35.9404 0 34.9793 0H19.5762C18.6151 0 17.833 0.78207 17.833 1.74366V7.22889C17.833 8.19048 18.6151 8.97254 19.5762 8.97254H19.7034V9.33416C19.7034 10.2232 19.3576 11.0589 18.7302 11.6872L17.0677 13.3527C16.1855 14.2366 15.6998 15.4112 15.6998 16.661V21.9808C15.6998 22.7036 15.8733 23.3861 16.1787 23.9908C15.0852 24.0539 14.0661 24.5096 13.2853 25.2912L9.53 29.053C8.64786 29.9368 8.16213 31.1119 8.16213 32.3612V34.7164C8.16213 35.6054 7.81683 36.4412 7.18937 37.0695L6.93813 37.3212C6.93684 37.322 6.93599 37.3229 6.93513 37.3238L6.8458 37.234C6.51639 36.9042 6.07876 36.7225 5.61278 36.7225C5.14723 36.7225 4.70917 36.9042 4.38019 37.234L0.508925 41.1117C-0.169642 41.7916 -0.169642 42.8979 0.508925 43.5777L1.83471 44.9052C2.15638 45.2278 2.67862 45.2282 3.00073 44.9065C3.32283 44.5844 3.32369 44.0626 3.00159 43.7401L1.67623 42.4122C1.63887 42.3748 1.63887 42.3142 1.67623 42.2769L5.5475 38.3992C5.58358 38.3631 5.64241 38.3627 5.67849 38.3992L6.35147 39.0734H6.3519L15.5413 48.2788L16.5708 49.3103C16.6081 49.3477 16.6081 49.4083 16.5708 49.4456L12.6999 53.3233C12.6634 53.3598 12.6046 53.3598 12.5685 53.3233L5.3362 46.0786C5.01452 45.756 4.49229 45.7556 4.17018 46.0773C3.84765 46.3994 3.84722 46.9212 4.16889 47.2437L11.4016 54.4885C11.7306 54.8183 12.1687 55 12.6347 55C13.1002 55 13.5378 54.8183 13.8672 54.4885L17.7381 50.6108C18.4167 49.9314 18.4167 48.825 17.7381 48.1452L17.696 48.1031L18.1843 47.6139C18.7546 47.0423 19.5122 46.6987 20.3175 46.6468C21.4509 46.5733 22.5173 46.0897 23.3199 45.2853L26.876 41.7216C27.9016 41.4523 28.6999 40.617 28.9168 39.5708C29.2823 39.7447 29.6907 39.8426 30.1219 39.8426C31.6728 39.8426 32.9345 38.5795 32.9345 37.0266V35.0686C33.2893 35.2305 33.6831 35.3216 34.098 35.3216C35.6488 35.3216 36.9102 34.0585 36.9102 32.5055V26.7171L39.4466 29.266C39.6077 29.4279 39.8194 29.5086 40.0312 29.5086C40.2416 29.5086 40.452 29.4288 40.6131 29.2686C40.9356 28.9473 40.9369 28.4255 40.6157 28.1026L38.5009 25.9775C38.9102 25.752 39.3715 25.6318 39.8516 25.6318C40.6024 25.6318 41.3084 25.9247 41.8392 26.4568L45.5945 30.2181C46.1657 30.7906 46.4805 31.5516 46.4805 32.3612V34.7164C46.4805 36.0457 46.9972 37.295 47.9352 38.2347L48.1911 38.4911L46.9951 39.6893L39.761 46.9358L39.3577 46.5317C39.3535 46.5278 39.3496 46.5235 39.3453 46.5196L39.2744 46.4483C38.4206 45.5933 37.2864 45.0792 36.0813 45.001C35.3482 44.9533 34.6585 44.6407 34.1366 44.1185L31.4271 41.4235C31.1041 41.1023 30.5819 41.1035 30.2607 41.4265C29.9398 41.7495 29.9411 42.2717 30.2641 42.5925L32.9719 45.2853C33.7746 46.0897 34.841 46.5733 35.9748 46.6468C36.7796 46.6987 37.5372 47.0423 38.1075 47.6135L38.1475 47.6534C38.169 47.6779 38.1917 47.7007 38.2158 47.7222L38.5959 48.1027L38.5538 48.1452C37.8752 48.825 37.8752 49.9309 38.5538 50.6108L42.4246 54.4885C42.754 54.8183 43.1916 55 43.6576 55C44.1232 55 44.5612 54.8183 44.8906 54.4885L55.7829 43.5773C56.4615 42.8975 56.4615 41.7916 55.7829 41.1117ZM48.6825 32.9122L48.667 32.9096L48.5167 32.8791L48.6825 32.9122ZM22.1526 44.1202C21.6334 44.6407 20.9437 44.9533 20.211 45.001C19.0055 45.0792 17.8712 45.5933 17.0174 46.4483L16.5308 46.9358L16.0928 46.4969C16.0872 46.4913 16.0816 46.4853 16.076 46.4801L8.10072 38.4911L8.35668 38.2347C9.29465 37.295 9.81131 36.0457 9.81131 34.7164V32.3612C9.81131 31.5516 10.1257 30.7906 10.6973 30.2181L14.4526 26.4568C14.9834 25.9247 15.6895 25.6318 16.4402 25.6318C16.9217 25.6318 17.3846 25.7529 17.7952 25.9801L15.677 28.1017C15.3554 28.4238 15.3558 28.946 15.6779 29.2677C15.839 29.4283 16.0498 29.5086 16.2607 29.5086C16.472 29.5086 16.6833 29.4279 16.8444 29.2669L19.3744 26.7321V37.0266C19.3744 38.5795 20.6362 39.8426 22.187 39.8426C22.6242 39.8426 23.0382 39.7421 23.4076 39.5635C23.575 40.3807 24.0973 41.0696 24.8051 41.4622L22.1526 44.1202ZM35.2614 32.5059C35.2614 33.1493 34.7392 33.6728 34.098 33.6728C33.4564 33.6728 32.9345 33.1493 32.9345 32.5059V23.3079C32.9345 22.8527 32.5656 22.4833 32.11 22.4833C31.6543 22.4833 31.2854 22.8527 31.2854 23.3079V37.027C31.2854 37.6703 30.7636 38.1934 30.1219 38.1934C29.546 38.1934 29.068 37.7717 28.9757 37.2198V23.2985C28.9757 22.8428 28.6068 22.4739 28.1511 22.4739C28.0046 22.4739 27.8668 22.5125 27.7474 22.5795C27.4867 22.7183 27.3093 22.9923 27.3093 23.3079V37.0266C27.3093 37.1314 27.3153 37.234 27.3265 37.3358V38.9974C27.3265 39.6408 26.8047 40.1643 26.1631 40.1643C25.5218 40.1643 25 39.6408 25 38.9974V23.2886C25 22.8333 24.6307 22.464 24.1755 22.464C23.7198 22.464 23.3504 22.8333 23.3504 23.2886V37.0266C23.3504 37.6699 22.8286 38.1934 22.1874 38.1934C21.5458 38.1934 21.024 37.6699 21.024 37.0266V21.6879C21.024 21.2323 20.6546 20.8629 20.1994 20.8629C19.7437 20.8629 19.3748 21.2323 19.3748 21.6879V24.525C19.3057 24.5474 19.2387 24.5787 19.1764 24.62C18.11 24.2193 17.349 23.1877 17.349 21.9808V16.661C17.349 15.8514 17.6638 15.0904 18.235 14.5179L19.8975 12.8524C20.8359 11.9127 21.3525 10.6634 21.3525 9.33416V8.97254H23.0103C23.466 8.97254 23.8349 8.6032 23.8349 8.14796C23.8349 7.69229 23.466 7.32337 23.0103 7.32337H19.5762C19.5243 7.32337 19.4822 7.28085 19.4822 7.22889V1.74366C19.4822 1.69169 19.5243 1.64918 19.5762 1.64918H34.9788C35.0312 1.64918 35.0733 1.69169 35.0733 1.74366V7.22889C35.0733 7.28128 35.0312 7.32337 34.9788 7.32337H26.8816C26.4263 7.32337 26.057 7.69229 26.057 8.14796C26.057 8.6032 26.4263 8.97254 26.8816 8.97254H33.2734V9.66357C33.2734 10.873 33.7119 12.039 34.5086 12.9477C34.9939 13.5009 35.2614 14.2113 35.2614 14.9478V32.5059ZM54.6156 42.4122L43.7233 53.3233C43.7053 53.3418 43.6834 53.3508 43.6576 53.3508C43.6323 53.3508 43.6104 53.3418 43.5919 53.3233L39.7211 49.4456C39.6837 49.4083 39.6837 49.3477 39.7211 49.3103L40.3442 48.6859L40.3447 48.6855L46.6678 42.3516L50.6134 38.3992C50.6494 38.3627 50.7083 38.3627 50.7444 38.3992L54.6156 42.2769C54.653 42.3142 54.653 42.3748 54.6156 42.4122Z" fill="white"/>
<path d="M22.1869 3.60693C21.7029 3.60693 21.3091 4.00162 21.3091 4.48649C21.3091 4.9718 21.7029 5.36605 22.1869 5.36605C22.6714 5.36605 23.0652 4.9718 23.0652 4.48649C23.0652 4.00162 22.6714 3.60693 22.1869 3.60693Z" fill="white"/>
<path d="M50.9486 41.1948C50.4641 41.1948 50.0703 41.5895 50.0703 42.0744C50.0703 42.5593 50.4641 42.9539 50.9486 42.9539C51.4326 42.9539 51.8264 42.5593 51.8264 42.0744C51.8264 41.5895 51.4326 41.1948 50.9486 41.1948Z" fill="white"/>
<path d="M13.7415 49.6076C13.7415 49.1227 13.3476 48.728 12.8636 48.728C12.3792 48.728 11.9854 49.1227 11.9854 49.6076C11.9854 50.0925 12.3792 50.4871 12.8636 50.4871C13.3476 50.4871 13.7415 50.0925 13.7415 49.6076Z" fill="white"/>
</svg>
