<svg width="52" height="56" viewBox="0 0 52 56" fill="none" xmlns="http://www.w3.org/2000/svg">
<path d="M21.083 13.7085H22.9163V15.5418H21.083V13.7085Z" fill="white"/>
<path d="M28.417 13.7085H30.2503V15.5418H28.417V13.7085Z" fill="white"/>
<path d="M25.667 21.9582C27.2091 21.9582 28.417 20.9516 28.417 19.6665H26.5837C26.5837 19.8281 26.2357 20.1248 25.667 20.1248C25.0983 20.1248 24.7503 19.8281 24.7503 19.6665H22.917C22.917 20.9516 24.1249 21.9582 25.667 21.9582Z" fill="white"/>
<path d="M49.0513 40.3799L45.5649 36.8935L44.2685 38.1899L47.7549 41.6762C48.3099 42.2282 48.7499 42.8848 49.0495 43.608C49.349 44.3312 49.5021 45.1066 49.5 45.8894V51.5208C49.4993 52.1892 49.2334 52.8299 48.7608 53.3025C48.2883 53.7751 47.6475 54.0409 46.9792 54.0417H44.9167V49.4583H46.75V47.625H43.0834V31.125C43.0834 30.8819 42.9868 30.6487 42.8149 30.4768C42.643 30.3049 42.4098 30.2083 42.1667 30.2083H37.1956L31.9673 26.8812L31.2085 23.8462L31.5293 23.6836C32.2489 23.3219 32.8535 22.7669 33.2752 22.0807C33.6969 21.3946 33.919 20.6045 33.9167 19.7991V19.2083H34.375C35.2256 19.2074 36.0411 18.869 36.6426 18.2676C37.2441 17.6661 37.5824 16.8506 37.5834 16V15.0833C37.5824 14.2447 37.2535 13.4398 36.6669 12.8404C36.0804 12.2411 35.2827 11.8949 34.4443 11.8758C34.7 11.4054 34.8337 10.8784 34.8334 10.343V7.52083C34.8314 5.75886 34.1305 4.06963 32.8846 2.82373C31.6387 1.57783 29.9495 0.877002 28.1875 0.875H23.1459C21.3839 0.877002 19.6947 1.57783 18.4488 2.82373C17.2029 4.06963 16.502 5.75886 16.5 7.52083V10.343C16.4998 10.8785 16.6338 11.4054 16.8896 11.8758C16.0511 11.8947 15.2533 12.2409 14.6666 12.8402C14.08 13.4396 13.751 14.2446 13.75 15.0833V16C13.751 16.8506 14.0893 17.6661 14.6908 18.2676C15.2923 18.869 16.1078 19.2074 16.9584 19.2083H17.4167V19.8338C17.4139 20.643 17.638 21.4368 18.0634 22.1252C18.4888 22.8135 19.0986 23.3689 19.8236 23.7283L20.1177 23.8753L19.3661 26.8812L14.1378 30.2083H9.16669C8.92358 30.2083 8.69042 30.3049 8.51851 30.4768C8.3466 30.6487 8.25003 30.8819 8.25003 31.125V34.4119L4.85183 37.8101L6.14823 39.1065L8.25003 37.0047V47.625H4.58336V49.4583H6.41669V54.0417H4.3542C3.68586 54.0409 3.04512 53.7751 2.57253 53.3025C2.09995 52.8299 1.83412 52.1892 1.83336 51.5208V45.8894C1.83124 45.1066 1.98437 44.3312 2.28389 43.608C2.58342 42.8848 3.02339 42.2282 3.57835 41.6762L4.31478 40.9399L3.01861 39.6435L2.28207 40.3799C1.55629 41.1017 0.980895 41.9604 0.589182 42.9061C0.197469 43.8518 -0.00277891 44.8658 2.91279e-05 45.8894V51.5208C0.00133321 52.6752 0.460493 53.782 1.27678 54.5983C2.09306 55.4145 3.1998 55.8737 4.3542 55.875H46.9792C48.1336 55.8737 49.2403 55.4145 50.0566 54.5983C50.8729 53.782 51.332 52.6752 51.3334 51.5208V45.8894C51.3362 44.8658 51.1359 43.8518 50.7442 42.9061C50.3525 41.9604 49.7771 41.1017 49.0513 40.3799ZM22.9167 32.0417H28.4167V38.4583H22.9167V32.0417ZM29.7131 30.2083L31.2949 28.6271L33.7807 30.2083H29.7131ZM19.0596 11.5553C18.8387 11.4396 18.6541 11.2652 18.5259 11.0513C18.3978 10.8374 18.3312 10.5923 18.3334 10.343V9.66434L21.6601 7.81611C22.8842 7.13078 24.2637 6.77091 25.6667 6.77091C27.0696 6.77091 28.4492 7.13078 29.6733 7.81611L33 9.66434V10.343C33 10.5919 32.9324 10.8361 32.8046 11.0496C32.6767 11.263 32.4932 11.4378 32.2738 11.5552C32.0544 11.6727 31.8072 11.7283 31.5586 11.7163C31.3101 11.7043 31.0694 11.6251 30.8624 11.487L28.7176 10.0573C27.8148 9.45305 26.753 9.1305 25.6667 9.1305C24.5804 9.1305 23.5186 9.45305 22.6158 10.0573L20.471 11.487C20.2648 11.6271 20.0239 11.7076 19.7749 11.7197C19.5259 11.7317 19.2784 11.6749 19.0596 11.5553ZM35.75 15.0833V16C35.7496 16.3646 35.6046 16.7141 35.3469 16.9718C35.0891 17.2296 34.7396 17.3746 34.375 17.375H33.9167V13.7083H34.375C34.7396 13.7087 35.0891 13.8537 35.3469 14.1115C35.6046 14.3693 35.7496 14.7188 35.75 15.0833ZM23.1459 2.70833H28.1875C29.4634 2.70976 30.6867 3.21725 31.5889 4.11946C32.4911 5.02167 32.9986 6.24492 33 7.52083V7.56667L30.5635 6.21355C29.0674 5.3759 27.3814 4.93605 25.6667 4.93605C23.952 4.93605 22.266 5.3759 20.7699 6.21355L18.3334 7.56667V7.52083C18.3348 6.24492 18.8423 5.02167 19.7445 4.11946C20.6467 3.21725 21.8699 2.70976 23.1459 2.70833ZM16.9584 17.375C16.5938 17.3746 16.2443 17.2296 15.9865 16.9718C15.7287 16.7141 15.5838 16.3646 15.5834 16V15.0833C15.5838 14.7188 15.7287 14.3693 15.9865 14.1115C16.2443 13.8537 16.5938 13.7087 16.9584 13.7083H17.4167V17.375H16.9584ZM19.25 19.8338V13.519C20.033 13.6325 20.8302 13.4521 21.488 13.0125L23.6327 11.5826C24.2346 11.1799 24.9424 10.9649 25.6666 10.9649C26.3907 10.9649 27.0986 11.1799 27.7004 11.5826L29.8452 13.0125C30.5031 13.4519 31.3004 13.6323 32.0834 13.5189V19.7991C32.0847 20.2654 31.9561 20.7228 31.712 21.1201C31.4679 21.5173 31.1179 21.8387 30.7013 22.0481L26.2814 24.2862C26.0898 24.3827 25.8783 24.4333 25.6637 24.4339C25.4492 24.4344 25.2374 24.385 25.0453 24.2894L20.6436 22.0886C20.2238 21.8805 19.8708 21.559 19.6245 21.1604C19.3782 20.7619 19.2484 20.3023 19.25 19.8338ZM24.2253 25.9297C24.6736 26.1526 25.1677 26.268 25.6684 26.2668C26.169 26.2655 26.6625 26.1476 27.1096 25.9223L29.5311 24.6963L30.1516 27.1778L27.1203 30.2083H24.2131L21.1818 27.1771L21.7973 24.7152L24.2253 25.9297ZM20.0385 28.627L21.6203 30.2083H17.5526L20.0385 28.627ZM10.0834 32.0417H21.0834V39.375C21.0834 39.6181 21.1799 39.8513 21.3518 40.0232C21.5238 40.1951 21.7569 40.2917 22 40.2917H29.3334C29.5765 40.2917 29.8096 40.1951 29.9815 40.0232C30.1534 39.8513 30.25 39.6181 30.25 39.375V32.0417H41.25V47.625H40.3334C38.5478 47.6274 36.8243 48.2801 35.4852 49.4611C34.146 50.6421 33.2829 52.2705 33.0573 54.0417H30.25V49.4583C30.25 49.2152 30.1534 48.9821 29.9815 48.8102C29.8096 48.6382 29.5765 48.5417 29.3334 48.5417H22C21.7569 48.5417 21.5238 48.6382 21.3518 48.8102C21.1799 48.9821 21.0834 49.2152 21.0834 49.4583V54.0417H18.2761C18.0504 52.2705 17.1873 50.6421 15.8482 49.4611C14.509 48.2801 12.7855 47.6274 11 47.625H10.0834V32.0417ZM8.25003 54.0417V49.4583H11C12.2994 49.46 13.5563 49.9209 14.5488 50.7596C15.5412 51.5983 16.2053 52.7608 16.4236 54.0417H8.25003ZM22.9167 54.0417V50.375H28.4167V54.0417H22.9167ZM43.0834 54.0417H34.9098C35.1281 52.7608 35.7921 51.5983 36.7846 50.7596C37.777 49.9209 39.034 49.46 40.3334 49.4583H43.0834V54.0417Z" fill="white"/>
<path d="M11.9165 33.875H13.7498V35.7083H11.9165V33.875Z" fill="white"/>
<path d="M15.5835 33.875H19.2502V35.7083H15.5835V33.875Z" fill="white"/>
<path d="M11.917 37.5415H19.2503V39.3748H11.917V37.5415Z" fill="white"/>
<path d="M33.0002 40.2917H36.2085C37.0591 40.2907 37.8746 39.9524 38.4761 39.3509C39.0775 38.7494 39.4159 37.9339 39.4168 37.0833V34.7917C39.4168 34.5486 39.3203 34.3154 39.1483 34.1435C38.9764 33.9716 38.7433 33.875 38.5002 33.875H35.2918C34.4412 33.876 33.6257 34.2143 33.0243 34.8158C32.4228 35.4172 32.0845 36.2327 32.0835 37.0833V39.375C32.0835 39.6181 32.1801 39.8513 32.352 40.0232C32.5239 40.1951 32.757 40.2917 33.0002 40.2917ZM33.9168 37.0833C33.9172 36.7188 34.0622 36.3693 34.32 36.1115C34.5778 35.8537 34.9273 35.7087 35.2918 35.7083H37.5835V37.0833C37.5831 37.4479 37.4381 37.7974 37.1803 38.0552C36.9226 38.3129 36.573 38.4579 36.2085 38.4583H33.9168V37.0833Z" fill="white"/>
</svg>
