<svg width="50" height="50" viewBox="0 0 50 50" fill="none" xmlns="http://www.w3.org/2000/svg">
<path d="M12.9034 20.9677H11.2904C10.8461 20.9677 10.484 20.6064 10.484 20.1613H8.87109C8.87109 21.4951 9.95658 22.5806 11.2904 22.5806V24.1935H12.9034V22.5806C14.2372 22.5806 15.3227 21.4951 15.3227 20.1613C15.3227 18.8274 14.2372 17.7419 12.9034 17.7419H11.2904C10.8461 17.7419 10.484 17.3806 10.484 16.9355C10.484 16.4903 10.8461 16.129 11.2904 16.129H12.9034C13.3477 16.129 13.7098 16.4903 13.7098 16.9355H15.3227C15.3227 15.6016 14.2372 14.5161 12.9034 14.5161V12.9032H11.2904V14.5161C9.95658 14.5161 8.87109 15.6016 8.87109 16.9355C8.87109 18.2693 9.95658 19.3548 11.2904 19.3548H12.9034C13.3477 19.3548 13.7098 19.7161 13.7098 20.1613C13.7098 20.6064 13.3477 20.9677 12.9034 20.9677Z" fill="#FF6600"/>
<path d="M33.8705 38.7097H35.4834C35.9278 38.7097 36.2899 39.071 36.2899 39.5161H37.9028C37.9028 38.1823 36.8173 37.0968 35.4834 37.0968V35.4839H33.8705V37.0968C32.5367 37.0968 31.4512 38.1823 31.4512 39.5161C31.4512 40.85 32.5367 41.9355 33.8705 41.9355H35.4834C35.9278 41.9355 36.2899 42.2968 36.2899 42.742C36.2899 43.1871 35.9278 43.5484 35.4834 43.5484H33.8705C33.4262 43.5484 33.0641 43.1871 33.0641 42.742H31.4512C31.4512 44.0758 32.5367 45.1613 33.8705 45.1613V46.7742H35.4834V45.1613C36.8173 45.1613 37.9028 44.0758 37.9028 42.742C37.9028 41.4081 36.8173 40.3226 35.4834 40.3226H33.8705C33.4262 40.3226 33.0641 39.9613 33.0641 39.5161C33.0641 39.071 33.4262 38.7097 33.8705 38.7097Z" fill="#FF6600"/>
<path d="M6.45237 29.0322H4.83947C3.94995 29.0322 3.22656 29.7556 3.22656 30.6451V32.258C3.22656 33.1475 3.94995 33.8709 4.83947 33.8709H6.45237C7.34189 33.8709 8.06527 33.1475 8.06527 32.258V30.6451C8.06527 29.7556 7.34189 29.0322 6.45237 29.0322ZM4.83947 32.258V30.6451H6.45237L6.45318 32.258H4.83947Z" fill="#FF6600"/>
<path d="M12.9035 29.0322H11.2906C10.4011 29.0322 9.67773 29.7556 9.67773 30.6451V32.258C9.67773 33.1475 10.4011 33.8709 11.2906 33.8709H12.9035C13.7931 33.8709 14.5164 33.1475 14.5164 32.258V30.6451C14.5164 29.7556 13.7931 29.0322 12.9035 29.0322ZM11.2906 32.258V30.6451H12.9035L12.9043 32.258H11.2906Z" fill="#FF6600"/>
<path d="M19.3547 29.0322H17.7418C16.8523 29.0322 16.1289 29.7556 16.1289 30.6451V32.258C16.1289 33.1475 16.8523 33.8709 17.7418 33.8709H19.3547C20.2442 33.8709 20.9676 33.1475 20.9676 32.258V30.6451C20.9676 29.7556 20.2442 29.0322 19.3547 29.0322ZM17.7418 32.258V30.6451H19.3547L19.3555 32.258H17.7418Z" fill="#FF6600"/>
<path d="M6.45237 35.4839H4.83947C3.94995 35.4839 3.22656 36.2073 3.22656 37.0968V38.7097C3.22656 39.5992 3.94995 40.3226 4.83947 40.3226H6.45237C7.34189 40.3226 8.06527 39.5992 8.06527 38.7097V37.0968C8.06527 36.2073 7.34189 35.4839 6.45237 35.4839ZM4.83947 38.7097V37.0968H6.45237L6.45318 38.7097H4.83947Z" fill="#FF6600"/>
<path d="M12.9035 35.4839H11.2906C10.4011 35.4839 9.67773 36.2073 9.67773 37.0968V38.7097C9.67773 39.5992 10.4011 40.3226 11.2906 40.3226H12.9035C13.7931 40.3226 14.5164 39.5992 14.5164 38.7097V37.0968C14.5164 36.2073 13.7931 35.4839 12.9035 35.4839ZM11.2906 38.7097V37.0968H12.9035L12.9043 38.7097H11.2906Z" fill="#FF6600"/>
<path d="M19.3547 35.4839H17.7418C16.8523 35.4839 16.1289 36.2073 16.1289 37.0968V38.7097C16.1289 39.5992 16.8523 40.3226 17.7418 40.3226H19.3547C20.2442 40.3226 20.9676 39.5992 20.9676 38.7097V37.0968C20.9676 36.2073 20.2442 35.4839 19.3547 35.4839ZM17.7418 38.7097V37.0968H19.3547L19.3555 38.7097H17.7418Z" fill="#FF6600"/>
<path d="M6.45237 41.9354H4.83947C3.94995 41.9354 3.22656 42.6588 3.22656 43.5483V45.1612C3.22656 46.0507 3.94995 46.7741 4.83947 46.7741H6.45237C7.34189 46.7741 8.06527 46.0507 8.06527 45.1612V43.5483C8.06527 42.6588 7.34189 41.9354 6.45237 41.9354ZM4.83947 45.1612V43.5483H6.45237L6.45318 45.1612H4.83947Z" fill="#FF6600"/>
<path d="M12.9035 41.9354H11.2906C10.4011 41.9354 9.67773 42.6588 9.67773 43.5483V45.1612C9.67773 46.0507 10.4011 46.7741 11.2906 46.7741H12.9035C13.7931 46.7741 14.5164 46.0507 14.5164 45.1612V43.5483C14.5164 42.6588 13.7931 41.9354 12.9035 41.9354ZM11.2906 45.1612V43.5483H12.9035L12.9043 45.1612H11.2906Z" fill="#FF6600"/>
<path d="M19.3547 41.9354H17.7418C16.8523 41.9354 16.1289 42.6588 16.1289 43.5483V45.1612C16.1289 46.0507 16.8523 46.7741 17.7418 46.7741H19.3547C20.2442 46.7741 20.9676 46.0507 20.9676 45.1612V43.5483C20.9676 42.6588 20.2442 41.9354 19.3547 41.9354ZM17.7418 45.1612V43.5483H19.3547L19.3555 45.1612H17.7418Z" fill="#FF6600"/>
<path d="M35.4844 25.8064H46.7747V27.4193H35.4844V25.8064Z" fill="#FF6600"/>
<path d="M45.1621 29.0322H46.775V30.6451H45.1621V29.0322Z" fill="#FF6600"/>
<path d="M35.4844 29.0322H43.5489V30.6451H35.4844V29.0322Z" fill="#FF6600"/>
<path d="M50 0H17.7419V11.7105C16.2073 10.4411 14.2395 9.67742 12.0968 9.67742C8.02742 9.67742 4.59839 12.4347 3.55726 16.1774C1.55968 16.4153 0 18.1008 0 20.1613V45.9677C0 48.1911 1.80887 50 4.03226 50H20.1613C22.3847 50 24.1935 48.1911 24.1935 45.9677V41.9355H25.8476C26.2565 46.45 30.0581 50 34.6774 50C39.2968 50 43.0984 46.45 43.5073 41.9355H50V0ZM12.0968 11.2903C16.0984 11.2903 19.3548 14.546 19.3548 18.5484C19.3548 22.5508 16.0984 25.8065 12.0968 25.8065C8.09516 25.8065 4.83871 22.5508 4.83871 18.5484C4.83871 14.546 8.09516 11.2903 12.0968 11.2903ZM19.3548 23.6331V25.8065H17.1815C18.0258 25.2129 18.7613 24.4774 19.3548 23.6331ZM4.83871 23.6331C5.43226 24.4774 6.16774 25.2129 7.0121 25.8065H4.83871V23.6331ZM22.5806 45.9677C22.5806 47.3016 21.4952 48.3871 20.1613 48.3871H4.03226C2.69839 48.3871 1.6129 47.3016 1.6129 45.9677V20.1613C1.6129 19.0992 2.30564 18.204 3.25968 17.8798C3.24274 18.1016 3.22581 18.3226 3.22581 18.5484V27.4194H20.9677V18.5484C20.9677 18.3226 20.9508 18.1016 20.9339 17.8798C21.8879 18.204 22.5806 19.0992 22.5806 20.1613V26.6129V45.9677ZM27.4194 22.5806H24.1935V20.1613V14.5161H27.4194V22.5806ZM34.6774 48.3871C30.6758 48.3871 27.4194 45.1315 27.4194 41.129C27.4194 37.1266 30.6758 33.871 34.6774 33.871C38.679 33.871 41.9355 37.1266 41.9355 41.129C41.9355 45.1315 38.679 48.3871 34.6774 48.3871ZM48.3871 40.3226H43.5073C43.0984 35.8081 39.2968 32.2581 34.6774 32.2581C30.0581 32.2581 26.2565 35.8081 25.8476 40.3226H24.1935V26.6129V24.1935H46.7742V22.5806H45.1613V3.22581H38.7097V22.5806H37.0968V8.06452H30.6452V22.5806H29.0323V12.9032H22.5806V16.9565C22.025 16.5363 21.3621 16.2637 20.6363 16.1774C20.3629 15.1935 19.9274 14.279 19.3548 13.4637V1.6129H48.3871V40.3226ZM35.4839 22.5806H32.2581V9.67742H35.4839V22.5806ZM43.5484 22.5806H40.3226V4.83871H43.5484V22.5806Z" fill="#FF6600"/>
</svg>
