<svg width="56" height="55" viewBox="0 0 56 55" fill="none" xmlns="http://www.w3.org/2000/svg">
<path d="M49.4932 29.5808L44.96 28.9357L42.1683 27.8V25.6616C43.1848 24.9037 44.0318 23.942 44.6553 22.8379C45.2788 21.7339 45.665 20.5118 45.7891 19.25H45.8349C46.7197 19.2494 47.5743 18.9289 48.2413 18.3477C48.9083 17.7664 49.3427 16.9636 49.4643 16.0873C49.5859 15.211 49.3865 14.3202 48.903 13.5793C48.4194 12.8384 47.6843 12.2974 46.8332 12.0559C47.019 11.3529 46.9906 10.6104 46.7516 9.9236V6.41667C46.7516 4.71486 46.0756 3.08276 44.8722 1.8794C43.6689 0.67604 42.0367 0 40.3349 0H33.0016C31.2998 0 29.6677 0.67604 28.4643 1.8794C27.261 3.08276 26.5849 4.71486 26.5849 6.41667V9.9236C26.346 10.6104 26.3176 11.3529 26.5034 12.0559C25.6522 12.2974 24.9171 12.8384 24.4336 13.5793C23.95 14.3202 23.7507 15.211 23.8723 16.0873C23.9939 16.9636 24.4282 17.7664 25.0952 18.3477C25.7622 18.9289 26.6169 19.2494 27.5016 19.25H27.5474C27.6715 20.5119 28.0577 21.7341 28.6812 22.8382C29.3046 23.9424 30.1518 24.9042 31.1683 25.6622V27.8393L28.3266 29.2028L23.4015 30.2524C22.0841 30.5447 20.8911 31.2416 19.9894 32.2455C19.0877 33.2493 18.5223 34.51 18.3725 35.8511C17.7984 35.3308 17.1713 34.872 16.5016 34.4824V20.5189C18.6845 19.2628 20.3689 17.2941 21.272 14.943C22.1751 12.592 22.2418 10.0019 21.4611 7.60742C21.4125 7.45879 21.3267 7.32506 21.2118 7.21897C21.0969 7.11287 20.9568 7.03793 20.8048 7.00128C20.6527 6.96462 20.4939 6.96747 20.3432 7.00954C20.1926 7.05162 20.0553 7.13153 19.9443 7.24167L14.0272 13.1129C13.7775 13.3578 13.4414 13.4945 13.0916 13.4932C12.7497 13.4905 12.4227 13.3531 12.1815 13.1109L8.89064 9.81979C8.64848 9.57863 8.5111 9.25175 8.50828 8.91C8.5067 8.56243 8.64162 8.22813 8.884 7.97901L14.7598 2.05734C14.87 1.94631 14.95 1.80892 14.992 1.65826C15.0341 1.5076 15.037 1.34867 15.0003 1.19661C14.9636 1.04454 14.8886 0.9044 14.7824 0.789513C14.6762 0.674627 14.5424 0.58882 14.3937 0.54026C11.8095 -0.30021 9.00557 -0.153777 6.52295 0.951306C4.04032 2.05639 2.05496 4.0418 0.949948 6.52446C-0.155067 9.00711 -0.301423 11.8111 0.539118 14.3953C1.37966 16.9795 3.14753 19.1608 5.50161 20.5183V34.4811C3.31868 35.7372 1.6343 37.7059 0.731232 40.057C-0.171837 42.408 -0.238618 44.9981 0.542099 47.3926C0.590718 47.5412 0.676552 47.6749 0.791438 47.781C0.906325 47.8871 1.04644 47.9621 1.19847 47.9987C1.35049 48.0354 1.50937 48.0325 1.65998 47.9905C1.81059 47.9484 1.94794 47.8685 2.05895 47.7583L7.97604 41.8871C8.22571 41.6422 8.56186 41.5055 8.91161 41.5068C9.25349 41.5095 9.5805 41.6469 9.82175 41.8891L13.1126 45.1799C13.3549 45.4211 13.4922 45.7482 13.4949 46.0901C13.4965 46.4377 13.3616 46.772 13.1192 47.0211L7.24328 52.9427C7.1331 53.0537 7.05318 53.1912 7.01113 53.3419C6.96908 53.4925 6.9663 53.6515 7.00306 53.8036C7.03981 53.9556 7.11488 54.0958 7.22111 54.2106C7.32734 54.3255 7.4612 54.4112 7.60994 54.4597C11.4069 55.7001 15.7294 54.6784 18.5922 51.9266C18.9063 52.8238 19.4912 53.6013 20.2661 54.1518C21.041 54.7023 21.9677 54.9987 22.9183 55H25.6683C25.7319 55 35.7516 52.8925 35.7516 52.8925V55H37.5849V52.8973L47.4794 54.9804C47.5415 54.9934 47.6048 55 47.6683 55H50.4183C51.6334 54.9986 52.7984 54.5153 53.6577 53.6561C54.5169 52.7968 55.0002 51.6318 55.0016 50.4167V35.9333C54.9926 34.3914 54.4324 32.9035 53.4222 31.7385C52.412 30.5734 51.0184 29.8081 49.4932 29.5808ZM36.6683 39.438L35.3484 35.75H37.9838L36.6683 39.438ZM33.0016 26.7307C34.1574 27.2381 35.406 27.5002 36.6683 27.5002C37.9306 27.5002 39.1791 27.2381 40.3349 26.7307V28.2776L38.5763 33.9167H34.7607L33.0016 28.277V26.7307ZM40.1172 35.1342L41.83 29.6418L43.755 30.4249L43.2079 36.9905L40.1224 35.2274L40.1517 35.1465L40.1172 35.1342ZM40.4358 12.532C37.9414 12.1154 35.3952 12.1154 32.9008 12.532L30.3868 12.9509C30.1105 12.9966 29.8275 12.9795 29.5587 12.9009C29.29 12.8223 29.0424 12.6841 28.8343 12.4967C28.6262 12.3093 28.463 12.0775 28.3567 11.8183C28.2505 11.5592 28.204 11.2795 28.2206 11H45.1159C45.1326 11.2795 45.0861 11.5592 44.9798 11.8183C44.8736 12.0775 44.7104 12.3093 44.5023 12.4967C44.2942 12.6841 44.0466 12.8223 43.7778 12.9009C43.509 12.9795 43.226 12.9966 42.9497 12.9509L40.4358 12.532ZM39.4183 9.16667H33.9183V7.33333H39.4183V9.16667ZM47.6683 15.5833C47.6672 16.0692 47.4737 16.5349 47.1301 16.8785C46.7865 17.2221 46.3208 17.4156 45.8349 17.4167V13.7615C45.8386 13.7578 45.8425 13.7545 45.8464 13.7509C46.3303 13.7544 46.7933 13.9489 47.1345 14.2921C47.4758 14.6353 47.6676 15.0994 47.6683 15.5833ZM28.4183 6.41667C28.4183 5.20109 28.9012 4.0353 29.7607 3.17576C30.6202 2.31622 31.786 1.83333 33.0016 1.83333H40.3349C41.5505 1.83333 42.7163 2.31622 43.5758 3.17576C44.4354 4.0353 44.9183 5.20109 44.9183 6.41667V9.16667H41.2516V6.41667C41.2516 6.17355 41.155 5.94039 40.9831 5.76849C40.8112 5.59658 40.5781 5.5 40.3349 5.5H33.0016C32.7585 5.5 32.5253 5.59658 32.3534 5.76849C32.1815 5.94039 32.0849 6.17355 32.0849 6.41667V9.16667H28.4183V6.41667ZM26.2068 16.8781C25.9507 16.6227 25.7759 16.297 25.7046 15.9424C25.6333 15.5877 25.6686 15.2198 25.8061 14.8852C25.9437 14.5506 26.1772 14.2642 26.4773 14.0621C26.7774 13.8601 27.1307 13.7515 27.4924 13.75L27.5016 13.7594V17.4167C27.016 17.4145 26.5508 17.221 26.2068 16.8781ZM29.3349 18.3333V14.7374C29.7809 14.8272 30.2396 14.8346 30.6883 14.7594L31.2487 14.6659C31.1683 14.8913 31.1481 15.1337 31.1901 15.3693C31.2321 15.6049 31.3349 15.8255 31.4883 16.0092C31.6417 16.1929 31.8403 16.3334 32.0647 16.4168C32.289 16.5001 32.5312 16.5235 32.7673 16.4846C33.0034 16.4457 33.2253 16.3459 33.411 16.1949C33.5967 16.044 33.7398 15.8472 33.8262 15.624C33.9125 15.4008 33.9391 15.1589 33.9033 14.9223C33.8675 14.6857 33.7706 14.4625 33.6221 14.2748C35.6421 13.9791 37.6944 13.9791 39.7145 14.2748C39.5657 14.4625 39.4685 14.6858 39.4325 14.9227C39.3965 15.1595 39.423 15.4016 39.5093 15.625C39.5956 15.8485 39.7388 16.0455 39.9246 16.1966C40.1105 16.3478 40.3326 16.4478 40.5689 16.4867C40.8053 16.5257 41.0477 16.5022 41.2722 16.4187C41.4967 16.3352 41.6955 16.1945 41.849 16.0106C42.0024 15.8266 42.1052 15.6058 42.147 15.3699C42.1889 15.1341 42.1685 14.8914 42.0878 14.6659L42.6483 14.7594C43.042 14.8385 43.7645 14.7857 44.0016 14.7378V18.3333C44.0016 20.2783 43.229 22.1435 41.8537 23.5188C40.4785 24.8941 38.6132 25.6667 36.6683 25.6667C34.7234 25.6667 32.8581 24.8941 31.4828 23.5188C30.1076 22.1435 29.3349 20.2783 29.3349 18.3333ZM31.5254 29.7018L33.2181 35.1293L33.1837 35.1417L33.2148 35.2274L30.129 36.9905L29.5985 30.6264L31.5254 29.7018ZM23.7876 32.0448L27.8057 31.1886L28.4214 38.5762C28.4342 38.7298 28.4855 38.8776 28.5706 39.0061C28.6557 39.1346 28.7717 39.2395 28.9081 39.3112C29.0418 39.3816 29.649 39.3763 29.7897 39.2959L33.8443 36.9789L35.7516 42.3253V44.4203L30.4733 44.0143L26.5849 42.3479V38.5H24.7516V41.5622L24.196 41.3241C24.0819 41.2752 23.9591 41.25 23.8349 41.25H20.1683V36.5292C20.174 35.4822 20.5353 34.4682 21.1929 33.6534C21.8505 32.8387 22.7654 32.2715 23.7876 32.0448ZM12.1393 53.0999C11.3275 53.1987 10.5062 53.1897 9.69685 53.0729L14.4252 48.3076C15.0061 47.7159 15.3305 46.9192 15.3283 46.09C15.3285 45.6797 15.2474 45.2734 15.0896 44.8947C14.9318 44.5159 14.7005 44.1722 14.409 43.8835L11.1181 40.5926C10.8294 40.3011 10.4857 40.0698 10.107 39.912C9.72821 39.7542 9.32192 39.6731 8.91161 39.6733C8.08003 39.6713 7.28123 39.9975 6.68869 40.581L1.92879 45.3046C1.65561 43.4124 1.98197 41.4822 2.86204 39.7849C3.7421 38.0877 5.13166 36.7087 6.83559 35.8417C6.98586 35.7648 7.11201 35.648 7.20012 35.504C7.28823 35.3601 7.33488 35.1946 7.33494 35.0258V19.9742C7.33495 19.8054 7.28837 19.6399 7.20034 19.496C7.11231 19.352 6.98625 19.2351 6.83605 19.1582C5.24488 18.3434 3.92587 17.0823 3.04057 15.5293C2.15526 13.9763 1.7421 12.1988 1.85167 10.4145C2.11647 6.10042 5.56326 2.43948 9.86391 1.90014C10.6757 1.80136 11.497 1.81041 12.3064 1.92706L7.57798 6.69235C6.99712 7.2841 6.6727 8.08081 6.67494 8.91C6.67469 9.32031 6.75581 9.72659 6.91361 10.1053C7.0714 10.4841 7.30275 10.8278 7.59425 11.1165L10.8851 14.4074C11.1738 14.6989 11.5175 14.9302 11.8963 15.088C12.275 15.2458 12.6813 15.3269 13.0916 15.3267C13.923 15.3285 14.7216 15.0024 15.314 14.4191L20.0744 9.69535C20.3476 11.5876 20.0212 13.5178 19.1412 15.2151C18.2611 16.9123 16.8716 18.2913 15.1676 19.1583C15.0174 19.2352 14.8912 19.352 14.8031 19.496C14.715 19.6399 14.6683 19.8054 14.6683 19.9742V35.0258C14.6683 35.1945 14.7148 35.36 14.8028 35.5039C14.8908 35.6479 15.0168 35.7647 15.1669 35.8417C16.4109 36.4824 17.4939 37.396 18.3349 38.5143V49.4542C17.6001 50.4469 16.6727 51.2813 15.6082 51.9077C14.5437 52.5341 13.364 52.9395 12.1393 53.0999ZM25.5726 53.1667H22.9183C22.1892 53.1658 21.4902 52.8759 20.9746 52.3603C20.4591 51.8448 20.1691 51.1458 20.1683 50.4167V49.5H23.4553L25.0201 51.0649C25.1052 51.15 25.2063 51.2175 25.3175 51.2636C25.4287 51.3096 25.5479 51.3333 25.6683 51.3333H30.1562L32.2109 51.7659L25.5726 53.1667ZM53.1683 50.4167C53.1675 51.1458 52.8775 51.8448 52.3619 52.3603C51.8464 52.8759 51.1474 53.1658 50.4183 53.1667H47.7637L30.4404 49.5196C30.3783 49.5066 26.0479 49.5 26.0479 49.5L24.4831 47.9351C24.398 47.85 24.297 47.7825 24.1857 47.7364C24.0745 47.6904 23.9553 47.6667 23.8349 47.6667H20.1683V43.0833H23.6467C23.6467 43.0833 30.0811 45.8229 30.1814 45.8307L53.1683 47.5988V50.4167ZM53.1683 45.7601L44.9254 45.126L49.6903 43.0833H53.1683V45.7601ZM53.1683 41.25H49.5016C49.3771 41.25 48.5849 41.563 48.5849 41.563V38.5H46.7516V41.25H39.4183V43.0833H45.0388L42.8633 44.0143L37.5849 44.4221V42.3253L39.4923 36.9788L43.5468 39.2958C43.6806 39.3723 43.8315 39.4138 43.9856 39.4165C44.1397 39.4192 44.292 39.383 44.4284 39.3112C44.5648 39.2395 44.6809 39.1345 44.766 39.006C44.8511 38.8775 44.9024 38.7297 44.9152 38.5761L45.5569 30.8724L49.2319 31.3958C50.3215 31.5582 51.3171 32.1047 52.039 32.9368C52.7608 33.769 53.1614 34.8318 53.1683 35.9333V41.25Z" fill="#FF6600"/>
<path d="M33.9183 40.3333H32.0849V42.1667H33.9183V40.3333Z" fill="#FF6600"/>
<path d="M39.684 20.5219L39.1526 18.7673C38.0843 19.0892 36.9744 19.2519 35.8586 19.25H33.9183V21.0833H35.8586C37.1544 21.0852 38.4434 20.896 39.684 20.5219Z" fill="#FF6600"/>
<path d="M11.9183 19.25H10.0849V35.75H11.9183V19.25Z" fill="#FF6600"/>
</svg>
