<svg width="55" height="55" viewBox="0 0 55 55" fill="none" xmlns="http://www.w3.org/2000/svg">
<path d="M21.9093 4.37668L20.3598 6.78118C20.1015 7.21056 20.1876 7.72581 20.618 7.98343C21.0484 8.24106 21.5649 8.06931 21.8232 7.72581L24.3195 3.77556C24.4056 3.60381 24.4917 3.34618 24.4056 3.08856C24.4056 2.91681 24.2335 2.74506 24.0613 2.57331L20.1015 0.0829334C19.7572 -0.0888166 19.1546 -0.00294163 18.8964 0.426433C18.6381 0.855808 18.7242 1.37106 19.1546 1.62868L21.0484 2.83093C4.95109 6.09418 -4.34577 23.4409 2.0243 38.7267C2.19647 39.1561 2.71296 39.4137 3.14337 39.1561C3.57378 38.9843 3.83203 38.4691 3.57378 38.0397C-2.45196 23.5268 6.58665 7.21056 21.9093 4.37668Z" fill="#FF6600"/>
<path d="M46.0122 43.5357C36.4571 55.9876 18.2077 56.4169 7.96396 44.9956L10.7186 45.0814C11.149 45.0814 11.5794 44.7379 11.5794 44.2227C11.5794 43.7074 11.2351 43.3639 10.7186 43.3639L6.07016 43.1922C5.81191 43.1922 5.63975 43.2781 5.46758 43.4498C5.29542 43.6216 5.20934 43.7933 5.20934 44.0509L5.12326 48.6882C5.12326 49.2034 5.46758 49.5469 5.98408 49.5469C6.41449 49.5469 6.8449 49.2034 6.8449 48.6882L6.93098 46.3696C17.9495 58.4779 37.3179 57.7909 47.4756 44.6521C47.7339 44.3086 47.7339 43.7074 47.3034 43.4498C46.873 43.1063 46.3565 43.1922 46.0122 43.5357Z" fill="#FF6600"/>
<path d="M54.8787 35.8069C54.6204 35.3776 54.1039 35.2058 53.6735 35.4634L51.6075 36.5798C56.6003 20.9506 46.0983 4.54843 29.8288 2.48743C29.3123 2.40156 28.968 2.74506 28.8819 3.26031C28.7958 3.68968 29.1401 4.11906 29.6566 4.20493C44.8931 6.09418 54.7065 21.5517 49.8859 36.3222L48.5947 33.9177C48.3364 33.4883 47.8199 33.3166 47.3895 33.5742C46.9591 33.8318 46.787 34.3471 47.0452 34.7764L49.1973 38.8984C49.4555 39.3278 49.972 39.4996 50.4024 39.2419L54.5343 37.0951C54.9647 36.7516 55.1369 36.2363 54.8787 35.8069Z" fill="#FF6600"/>
<path d="M34.6494 25.7596H28.7097L31.6365 18.3743C31.8087 18.0308 31.6365 17.6014 31.2922 17.3438C30.9479 17.0862 30.5174 17.1721 30.1731 17.4297L17.6051 29.6239C17.3469 29.8816 17.2608 30.2251 17.433 30.5686C17.6051 30.9121 17.8634 31.0838 18.2077 31.0838H25.2664L21.9093 38.2973C21.7371 38.6408 21.8232 39.1561 22.1675 39.3278C22.5118 39.5854 22.9422 39.4996 23.2866 39.2419L35.252 27.2194C35.5102 26.9618 35.5963 26.6183 35.4241 26.2748C35.338 25.9313 34.9937 25.7596 34.6494 25.7596ZM25.5247 34.6047L27.4185 30.5686C27.5046 30.3109 27.5046 29.9674 27.3324 29.7098C27.1603 29.4522 26.902 29.2804 26.6438 29.2804H20.3598L28.6236 21.3799L26.6438 26.2748C26.5577 26.5324 26.5577 26.8759 26.7298 27.0477C26.902 27.3053 27.1603 27.3912 27.4185 27.3912H32.4973L25.5247 34.6047Z" fill="#FF6600"/>
<path d="M42.1385 16.7427L38.0927 12.7066C37.7483 12.3631 37.3179 12.3631 36.9736 12.6207L34.8216 14.2523C33.4442 13.4794 32.0669 12.8783 30.6035 12.4489L30.2592 9.78681C30.1731 9.35744 29.8288 9.01394 29.3984 9.01394H23.6309C23.2005 9.01394 22.8562 9.35744 22.7701 9.78681L22.3397 12.4489C20.8763 12.7924 19.4129 13.3936 18.1216 14.2523L15.9696 12.6207C15.6253 12.3631 15.1088 12.3631 14.8505 12.7066L10.8047 16.7427C10.4603 17.0862 10.4603 17.5156 10.7186 17.8591L12.3541 20.0059C11.5794 21.3799 10.9768 22.7539 10.5464 24.2138L7.87788 24.5573C7.44747 24.6432 7.10314 24.9867 7.10314 25.4161V31.1697C7.10314 31.5991 7.44747 31.9426 7.87788 32.0284L10.5464 32.3719C10.8908 33.8318 11.4933 35.2917 12.3541 36.5798L10.7186 38.7267C10.4603 39.0702 10.4603 39.5854 10.8047 39.8431L14.8505 43.8792C15.1949 44.2227 15.6253 44.2227 15.9696 43.9651L18.1216 42.3334C19.499 43.1063 20.8763 43.7074 22.3397 44.1368L22.684 46.7989C22.7701 47.2283 23.1144 47.5718 23.5448 47.5718H29.3123C29.7427 47.5718 30.087 47.2283 30.1731 46.7989L30.5175 44.1368C31.9809 43.7933 33.4442 43.1922 34.7355 42.3334L36.8875 43.9651C37.2319 44.2227 37.7483 44.2227 38.0066 43.8792L42.0524 39.8431C42.3968 39.4996 42.3968 39.0702 42.1385 38.7267L40.503 36.5798C41.2777 35.2058 41.8803 33.8318 42.3107 32.3719L44.9792 32.0284C45.4096 31.9426 45.754 31.5991 45.754 31.1697V25.4161C45.754 24.9867 45.4096 24.6432 44.9792 24.5573L42.3107 24.2138C41.9664 22.7539 41.3638 21.2941 40.503 20.0059L42.1385 17.8591C42.4829 17.5156 42.4829 17.0862 42.1385 16.7427ZM40.8473 25.2443C40.9334 25.5878 41.1916 25.8454 41.536 25.9313L44.0323 26.2748V30.5686L41.536 30.9121C41.1916 30.9979 40.9334 31.2556 40.8473 31.5991C40.503 33.3166 39.8143 34.8623 38.8674 36.4081C38.6952 36.7516 38.6952 37.0951 38.8674 37.3527L40.4169 39.4137L37.404 42.4193L35.338 40.8736C35.0798 40.6159 34.6494 40.6159 34.3911 40.8736C32.9277 41.8182 31.2922 42.5052 29.5706 42.8487C29.2262 42.9346 28.968 43.1922 28.8819 43.5357L28.5376 46.0261H24.2335L23.8891 43.5357C23.8031 43.1922 23.5448 42.9346 23.2005 42.8487C21.4788 42.5052 19.9294 41.8182 18.3799 40.8736C18.0356 40.7018 17.6912 40.7018 17.433 40.8736L15.4531 42.3334L12.4402 39.3278L13.9897 37.2668C14.2479 37.0092 14.2479 36.5798 13.9897 36.3222C13.0428 34.8623 12.3541 33.2307 12.0098 31.5132C11.9237 31.1697 11.6655 30.9121 11.3212 30.8262L8.82478 30.4827V26.1889L11.3212 25.8454C11.6655 25.7596 11.9237 25.5019 12.0098 25.1584C12.3541 23.4409 13.0428 21.8952 13.9897 20.3494C14.1619 20.0059 14.1619 19.6624 13.9897 19.4048L12.4402 17.3438L15.4531 14.3382L17.5191 15.8839C17.7773 16.1416 18.2077 16.1416 18.466 15.8839C19.9294 14.9393 21.5649 14.2523 23.2866 13.9088C23.6309 13.8229 23.8891 13.5653 23.9752 13.2218L24.3195 10.7314H28.6236L28.968 13.2218C29.0541 13.5653 29.3123 13.8229 29.6566 13.9088C31.3783 14.2523 32.9277 14.9393 34.4772 15.8839C34.8216 16.0557 35.1659 16.0557 35.4241 15.8839L37.4901 14.3382L40.503 17.3438L38.9535 19.4048C38.6952 19.6624 38.6952 20.0918 38.9535 20.3494C39.8143 21.8952 40.503 23.5268 40.8473 25.2443Z" fill="#FF6600"/>
</svg>
