<svg width="60" height="55" viewBox="0 0 60 55" fill="none" xmlns="http://www.w3.org/2000/svg">
<path d="M51.264 5.22497C52.1939 4.8864 52.6751 3.85449 52.3366 2.9246L51.7024 1.18189C51.5385 0.731345 51.2088 0.371721 50.7743 0.169064C50.3399 -0.0334781 49.8524 -0.0547617 49.402 0.109145L9.85943 14.5015C9.76296 14.5367 9.67158 14.5809 9.58413 14.6305L1.91705 8.92717C1.68698 8.75609 1.38716 8.7097 1.11614 8.80317C0.845117 8.89674 0.637833 9.11814 0.562299 9.39471C-0.542252 13.4416 0.000480485 19.161 2.01433 24.6938C3.93899 29.9818 6.91338 34.4334 10.1948 36.9501V39.4988C9.11809 39.8619 8.34031 40.8806 8.34031 42.0783C8.34031 43.276 9.11809 44.2946 10.1948 44.6578V54.1325C10.1948 54.6116 10.5832 55 11.0623 55C11.5414 55 11.9298 54.6116 11.9298 54.1325V44.6578C13.0065 44.2947 13.7843 43.276 13.7843 42.0783C13.7843 40.8806 13.0065 39.862 11.9298 39.4988V19.5415L24.1973 15.0765C24.6476 14.9126 24.8797 14.4148 24.7159 13.9646C24.552 13.5143 24.0541 13.2822 23.6039 13.446L11.128 17.9868C11.1222 17.9889 11.1046 17.9953 11.0823 17.9849C11.0599 17.9744 11.0535 17.9569 11.0514 17.9511L10.4172 16.2085C10.4059 16.1775 10.4219 16.1432 10.4528 16.1319L49.9953 1.73966C50.0011 1.73746 50.0186 1.73121 50.041 1.74162C50.0634 1.75203 50.0698 1.76962 50.0719 1.77528L50.7061 3.518C50.7174 3.549 50.7013 3.58324 50.6708 3.59446L30.7123 10.8472C30.3743 10.6964 30.0005 10.6118 29.6071 10.6118C28.1061 10.6118 26.8851 11.833 26.8851 13.3338V16.1752H26.6624C25.8052 16.1752 25.0643 16.7859 24.9006 17.6273L18.6923 49.5558H16.6257C16.1465 49.5558 15.7581 49.9442 15.7581 50.4233V53.2647H14.7711C14.292 53.2647 13.9036 53.6531 13.9036 54.1322C13.9036 54.6113 14.292 54.9998 14.7711 54.9998H36.0978C36.5769 54.9998 36.9653 54.6113 36.9653 54.1322C36.9653 53.6531 36.5769 53.2647 36.0978 53.2647H17.4933V51.2909H36.0978C36.5769 51.2909 36.9653 50.9024 36.9653 50.4233C36.9653 49.9442 36.5769 49.5558 36.0978 49.5558H22.4932L38.094 40.0305C38.4121 39.8363 38.5598 39.4702 38.4927 39.1246L38.4936 39.1245L34.3135 17.6272C34.1498 16.7858 33.409 16.1751 32.5517 16.1751H32.3291V13.3338C32.3291 12.9279 32.2391 12.5428 32.0791 12.1965L48.2115 6.33415V8.75736H48.1518C47.1621 8.75736 46.3571 9.56244 46.3571 10.5521V26.3152C46.3571 26.7943 46.7455 27.1827 47.2246 27.1827C47.7037 27.1827 48.0921 26.7943 48.0921 26.3152V14.1983C48.1121 14.199 48.1317 14.2013 48.1518 14.2013H50.0063C50.0264 14.2013 50.0459 14.199 50.066 14.1983V26.3152C50.066 26.7943 50.4544 27.1827 50.9335 27.1827C51.4126 27.1827 51.801 26.7943 51.801 26.3152V10.5521C51.801 9.56244 50.996 8.75736 50.0063 8.75736H49.9466V5.70362L51.264 5.22497ZM1.81699 16.0574C1.66581 14.2776 1.71023 12.6036 1.95938 11.1212L6.36822 14.4009L1.81699 16.0574ZM2.02717 17.8274L8.03505 15.6407L8.67923 16.1199C8.67055 16.349 8.70584 16.5799 8.78669 16.8019L9.42092 18.5445C9.56481 18.94 9.83653 19.2653 10.1946 19.476V20.2809L3.20818 22.8238C2.66764 21.1363 2.27251 19.4516 2.02717 17.8274ZM3.77948 24.4624L10.1948 22.1274V34.6755C7.68063 32.3268 5.35447 28.6418 3.77948 24.4624ZM11.0623 41.0914C11.6065 41.0914 12.0492 41.5342 12.0492 42.0783C12.0492 42.6224 11.6064 43.0652 11.0623 43.0652C10.5182 43.0652 10.0754 42.6224 10.0754 42.0783C10.0754 41.5342 10.5181 41.0914 11.0623 41.0914ZM28.6201 13.3338C28.6201 12.7896 29.0629 12.3469 29.6071 12.3469C30.1513 12.3469 30.594 12.7897 30.594 13.3338V16.1752H28.6201V13.3338ZM25.3513 24.4009H31.4771L24.393 29.329L25.3513 24.4009ZM20.6346 48.6577L22.2862 40.164H34.5459L20.6346 48.6577ZM36.5908 38.4291H22.6235L23.9088 31.8189H35.3054L36.5908 38.4291ZM33.9407 24.8007L34.968 30.0838H26.3463L33.9407 24.8007ZM32.5518 17.9104C32.5804 17.9104 32.6049 17.9307 32.6104 17.9586L33.5257 22.6659H25.6886L26.6039 17.9586C26.6093 17.9306 26.6339 17.9104 26.6624 17.9104H32.5518ZM50.0064 10.4924C50.0394 10.4924 50.0661 10.5192 50.0661 10.5521V12.4066C50.0661 12.4395 50.0394 12.4663 50.0064 12.4663H48.1519C48.119 12.4663 48.0923 12.4395 48.0923 12.4066V10.5521C48.0923 10.5192 48.119 10.4924 48.1519 10.4924H50.0064Z" fill="#FF6600"/>
<path d="M58.3515 34.6007C58.8307 34.6007 59.2191 34.2122 59.2191 33.7331C59.2191 33.254 58.8307 32.8656 58.3515 32.8656H58.2919V30.8917H58.3515C58.8307 30.8917 59.2191 30.5032 59.2191 30.0241C59.2191 29.545 58.8307 29.1566 58.3515 29.1566H39.8068C39.3277 29.1566 38.9392 29.545 38.9392 30.0241C38.9392 30.5032 39.3277 30.8917 39.8068 30.8917H39.8665V32.8655H39.8068C39.3277 32.8655 38.9392 33.2539 38.9392 33.733C38.9392 34.2121 39.3277 34.6006 39.8068 34.6006H39.8665V49.5559H39.8068C39.3277 49.5559 38.9392 49.9443 38.9392 50.4234C38.9392 50.9026 39.3277 51.291 39.8068 51.291H39.8665V53.2648H39.8068C39.3277 53.2648 38.9392 53.6532 38.9392 54.1323C38.9392 54.6115 39.3277 54.9999 39.8068 54.9999H58.3517C58.8308 54.9999 59.2192 54.6115 59.2192 54.1323C59.2192 53.6532 58.8308 53.2648 58.3517 53.2648H58.292V51.291H58.3517C58.8308 51.291 59.2192 50.9026 59.2192 50.4234C59.2192 49.9443 58.8308 49.5559 58.3517 49.5559H58.292V34.6007H58.3515ZM41.6016 30.8917H56.5569V32.8655H41.6016V30.8917ZM56.5568 53.2649H41.6016V51.2911H56.5569L56.5568 53.2649ZM56.5568 49.5559H41.6016V34.6007H56.5569L56.5568 49.5559Z" fill="#FF6600"/>
<path d="M49.0792 47.5821C51.0914 47.5821 52.7284 45.9451 52.7284 43.9329C52.7284 40.8522 49.8449 37.6328 49.7222 37.4972C49.5577 37.3156 49.3242 37.2121 49.0792 37.2121C48.8342 37.2121 48.6006 37.3157 48.4361 37.4972C48.3134 37.6328 45.4299 40.852 45.4299 43.9329C45.4299 45.945 47.0669 47.5821 49.0792 47.5821ZM48.4088 40.4472C48.6408 40.0732 48.8744 39.7387 49.0792 39.4633C49.2839 39.7388 49.5176 40.0733 49.7495 40.4472C50.5632 41.7591 50.9933 42.9645 50.9933 43.9329C50.9933 44.9884 50.1347 45.847 49.0792 45.847C48.0237 45.847 47.165 44.9884 47.165 43.9329C47.165 42.9645 47.5951 41.7591 48.4088 40.4472Z" fill="#FF6600"/>
</svg>
