<svg width="55" height="55" viewBox="0 0 55 55" fill="none" xmlns="http://www.w3.org/2000/svg">
<path d="M54.1943 53.3887H51.5556V42.3148C52.083 41.8511 52.4167 41.1723 52.4167 40.4166C52.4167 39.0227 51.2827 37.8888 49.8889 37.8888H44.618L43.8041 24.8664C43.7775 24.4418 43.4254 24.1111 43 24.1111H39.5555C39.1301 24.1111 38.778 24.4418 38.7515 24.8664L37.9375 37.8888H36.0068L35.1929 24.8664C35.1664 24.4418 34.8142 24.1111 34.3889 24.1111H30.9445C30.5191 24.1111 30.167 24.4418 30.1404 24.8664L29.3265 37.8888H27.3958L26.5819 24.8664C26.5553 24.4418 26.2032 24.1111 25.7778 24.1111H22.3334C21.908 24.1111 21.5559 24.4418 21.5294 24.8664L20.7154 37.8888H18.4714L17.9723 15.4266C17.9627 14.9888 17.6048 14.6389 17.1669 14.6389H12.0002C11.5622 14.6389 11.2044 14.9888 11.1948 15.4266L10.6191 41.3333H4.25004C2.85613 41.3333 1.72219 42.4673 1.72219 43.8611C1.72219 44.6168 2.05595 45.2956 2.58328 45.7592V53.3887H0.805664C0.360723 53.3887 0 53.7494 0 54.1943C0 54.6393 0.360723 55 0.805664 55H54.1943C54.6393 55 55 54.6393 55 54.1943C55 53.7494 54.6393 53.3887 54.1943 53.3887ZM10.5423 44.7777H7.69484C7.2499 44.7777 6.88918 45.1385 6.88918 45.5834C6.88918 46.0283 7.2499 46.3891 7.69484 46.3891H10.5065L10.351 53.3887H4.19461V46.3876C4.21309 46.388 4.23145 46.389 4.25004 46.389C4.69498 46.389 5.0557 46.0282 5.0557 45.5833C5.0557 45.1383 4.69498 44.7776 4.25004 44.7776C3.74462 44.7776 3.33352 44.3664 3.33352 43.8611C3.33352 43.3557 3.74473 42.9446 4.25004 42.9446H10.583L10.5423 44.7777ZM40.3123 25.7224H42.243L43.0034 37.8888H39.552L40.3123 25.7224ZM31.7013 25.7224H33.632L34.3924 37.8888H30.9409L31.7013 25.7224ZM23.0902 25.7224H25.0209L25.7812 37.8888H22.3298L23.0902 25.7224ZM13.7778 53.3887H11.9628L12.7879 16.2501H16.3787L16.8596 37.8888H15.4446C14.0507 37.8888 12.9166 39.0228 12.9166 40.4166C12.9166 41.1723 13.2504 41.8511 13.7778 42.3148V53.3887ZM49.8889 41.3331H48.1667C47.7217 41.3331 47.361 41.6939 47.361 42.1388C47.361 42.5837 47.7217 42.9445 48.1667 42.9445H49.8889C49.9075 42.9445 49.9258 42.9434 49.9443 42.9431V53.3887H15.389V42.9431C15.4075 42.9435 15.4259 42.9445 15.4445 42.9445H44.7228C45.1678 42.9445 45.5285 42.5837 45.5285 42.1388C45.5285 41.6939 45.1678 41.3331 44.7228 41.3331H15.4445C14.9391 41.3331 14.5278 40.9219 14.5278 40.4166C14.5278 39.9113 14.9391 39.5001 15.4445 39.5001H49.8888C50.3942 39.5001 50.8054 39.9112 50.8054 40.4166C50.8054 40.922 50.3942 41.3331 49.8889 41.3331Z" fill="#FF6600"/>
<path d="M44.7222 0C42.2951 0 39.9812 0.847021 38.1315 2.39916C36.8036 1.40271 35.1942 0.861094 33.5278 0.861094C31.5048 0.861094 29.5736 1.65978 28.1381 3.07184C27.394 2.75097 26.5891 2.58328 25.7778 2.58328C23.3825 2.58328 21.2473 4.01747 20.3101 6.16387C19.9868 6.07331 19.6557 6.02766 19.3195 6.02766C17.6552 6.02766 16.224 7.10993 15.7128 8.62598C15.6238 8.61609 15.5342 8.61104 15.4445 8.61104C14.0506 8.61104 12.9165 9.7451 12.9165 11.1389C12.9166 11.5839 13.2773 11.9447 13.7223 11.9447C14.1672 11.9447 14.5279 11.5839 14.5279 11.139C14.5279 10.6336 14.9392 10.2225 15.4446 10.2225C15.6044 10.2225 15.7612 10.2677 15.9103 10.357C16.1517 10.5015 16.451 10.5094 16.6999 10.3782C16.9487 10.247 17.1111 9.99539 17.1281 9.71448C17.1987 8.55078 18.1613 7.6392 19.3194 7.6392C19.6856 7.6392 20.0471 7.73813 20.3936 7.93332C20.6107 8.05567 20.8725 8.0705 21.1023 7.9735C21.3321 7.87649 21.5038 7.67862 21.5677 7.43757C22.0736 5.52825 23.8048 4.19472 25.7777 4.19472C26.5254 4.19472 27.266 4.39022 27.9196 4.75997C28.2537 4.94903 28.6751 4.87609 28.926 4.58541C30.0858 3.24264 31.763 2.47253 33.5277 2.47253C35.0364 2.47253 36.487 3.03574 37.6122 4.05829C37.9262 4.3436 38.4076 4.33662 38.7131 4.04218C40.3395 2.47457 42.4735 1.61133 44.7222 1.61133C49.501 1.61133 53.3887 5.49914 53.3887 10.2778C53.3887 15.0565 49.501 18.9443 44.7222 18.9443C41.5495 18.9443 38.6329 17.212 37.1106 14.4234C36.9076 14.0515 36.4511 13.9005 36.0664 14.0777C35.2583 14.45 34.4042 14.6387 33.5278 14.6387C31.7631 14.6387 30.0859 13.8686 28.9261 12.5258C28.6752 12.2352 28.2539 12.1622 27.9197 12.3513C27.2661 12.721 26.5255 12.9165 25.7778 12.9165C24.4163 12.9165 23.1565 12.2931 22.3215 11.2063C22.1698 11.0089 21.9355 10.8927 21.6866 10.8914C21.6853 10.8914 21.684 10.8914 21.6827 10.8914C21.4353 10.8914 21.2014 11.0052 21.0487 11.1999C20.6224 11.7436 19.9922 12.0553 19.3195 12.0553C18.8746 12.0553 18.5138 12.416 18.5138 12.861C18.5138 13.3059 18.8746 13.6666 19.3195 13.6666C20.1734 13.6666 20.9855 13.3813 21.6472 12.8638C22.7527 13.9303 24.216 14.5277 25.7778 14.5277C26.5891 14.5277 27.394 14.36 28.1381 14.0393C29.5736 15.4513 31.5049 16.25 33.5278 16.25C34.3961 16.25 35.2462 16.1043 36.0637 15.816C37.9461 18.7567 41.201 20.5556 44.7222 20.5556C50.3895 20.5556 55 15.945 55 10.2778C55 4.61065 50.3895 0 44.7222 0Z" fill="#FF6600"/>
<path d="M20.6111 44.7776C20.1662 44.7776 19.8055 45.1383 19.8055 45.5833V47.3055C19.8055 47.7504 20.1662 48.1111 20.6111 48.1111C21.0561 48.1111 21.4168 47.7504 21.4168 47.3055V45.5833C21.4168 45.1383 21.0561 44.7776 20.6111 44.7776Z" fill="#FF6600"/>
<path d="M24.0556 44.7776C23.6107 44.7776 23.25 45.1383 23.25 45.5833V47.3055C23.25 47.7504 23.6107 48.1111 24.0556 48.1111C24.5006 48.1111 24.8613 47.7504 24.8613 47.3055V45.5833C24.8613 45.1383 24.5006 44.7776 24.0556 44.7776Z" fill="#FF6600"/>
<path d="M27.5 44.7776C27.0551 44.7776 26.6943 45.1383 26.6943 45.5833V47.3055C26.6943 47.7504 27.0551 48.1111 27.5 48.1111C27.9449 48.1111 28.3057 47.7504 28.3057 47.3055V45.5833C28.3057 45.1383 27.9449 44.7776 27.5 44.7776Z" fill="#FF6600"/>
<path d="M30.9444 44.7776C30.4994 44.7776 30.1387 45.1383 30.1387 45.5833V47.3055C30.1387 47.7504 30.4994 48.1111 30.9444 48.1111C31.3893 48.1111 31.75 47.7504 31.75 47.3055V45.5833C31.75 45.1383 31.3894 44.7776 30.9444 44.7776Z" fill="#FF6600"/>
<path d="M34.3889 44.7776C33.9439 44.7776 33.5832 45.1383 33.5832 45.5833V47.3055C33.5832 47.7504 33.9439 48.1111 34.3889 48.1111C34.8338 48.1111 35.1945 47.7504 35.1945 47.3055V45.5833C35.1945 45.1383 34.8338 44.7776 34.3889 44.7776Z" fill="#FF6600"/>
<path d="M37.8332 44.7776C37.3883 44.7776 37.0276 45.1383 37.0276 45.5833V47.3055C37.0276 47.7504 37.3883 48.1111 37.8332 48.1111C38.2782 48.1111 38.6389 47.7504 38.6389 47.3055V45.5833C38.6389 45.1383 38.2782 44.7776 37.8332 44.7776Z" fill="#FF6600"/>
<path d="M41.2777 44.7776C40.8328 44.7776 40.472 45.1383 40.472 45.5833V47.3055C40.472 47.7504 40.8328 48.1111 41.2777 48.1111C41.7227 48.1111 42.0834 47.7504 42.0834 47.3055V45.5833C42.0834 45.1383 41.7227 44.7776 41.2777 44.7776Z" fill="#FF6600"/>
<path d="M44.7222 44.7776C44.2773 44.7776 43.9165 45.1383 43.9165 45.5833V47.3055C43.9165 47.7504 44.2773 48.1111 44.7222 48.1111C45.1671 48.1111 45.5279 47.7504 45.5279 47.3055V45.5833C45.5279 45.1383 45.1671 44.7776 44.7222 44.7776Z" fill="#FF6600"/>
</svg>
