<svg width="50" height="55" viewBox="0 0 50 55" fill="none" xmlns="http://www.w3.org/2000/svg">
<path d="M46.7283 23.2668C46.6172 23.2668 46.5061 23.2668 46.395 23.2668C46.3709 23.2668 46.2753 23.2821 46.2569 23.2668C46.2414 23.254 46.2481 23.1936 46.2468 23.1696C46.2429 23.0936 46.239 23.0176 46.2346 22.9416C46.2044 22.4154 46.1529 21.8898 46.0794 21.3677C45.9002 20.0799 45.595 18.8144 45.1638 17.5837C45.0103 17.1458 44.524 16.9125 44.0771 17.063C43.6303 17.2135 43.3926 17.6906 43.5461 18.1286C43.7365 18.6723 43.8976 19.224 44.0347 19.7813H41.3682C40.3511 19.7813 39.5237 20.5927 39.5237 21.59V23.2668H29.3527V21.59C29.3527 20.5927 28.5252 19.7813 27.5082 19.7813H21.3321C20.315 19.7813 19.4876 20.5927 19.4876 21.59V23.2668H10.1718V21.59C10.1718 20.5927 9.34438 19.7813 8.32733 19.7813H5.66782C6.93683 14.6608 10.4154 10.2386 15.2784 7.76929L15.9591 9.95425C16.0718 10.3156 16.4105 10.5481 16.7768 10.5481C16.8595 10.5481 16.9438 10.5362 17.027 10.5112C17.4787 10.3759 17.7331 9.90709 17.595 9.46408L16.2341 5.09556C16.2309 5.08546 16.2213 5.05484 16.2473 5.02058C16.2732 4.9862 16.306 4.9862 16.3167 4.9862C16.3807 4.9862 16.4443 4.97922 16.5066 4.96525C17.2417 4.80111 17.9883 4.65899 18.7356 4.53793V13.0178C18.7356 13.481 19.1185 13.8565 19.5909 13.8565C20.0633 13.8565 20.4461 13.481 20.4461 13.0178V2.14221C20.4461 1.8859 20.6589 1.67739 20.9202 1.67739H28.7754C29.0368 1.67739 29.2495 1.88601 29.2495 2.14221V13.0178C29.2495 13.481 29.6323 13.8565 30.1047 13.8565C30.5771 13.8565 30.96 13.481 30.96 13.0178V4.53804C31.7075 4.65899 32.454 4.80111 33.1889 4.96525C33.2475 4.97836 33.3073 4.98534 33.3673 4.98609C33.3782 4.98738 33.4287 4.99447 33.4485 5.02058C33.4743 5.05484 33.4647 5.08567 33.4616 5.09566L32.167 9.25171C32.0289 9.69472 32.2833 10.1635 32.735 10.2989C32.8182 10.3238 32.9024 10.3357 32.9852 10.3357C33.3513 10.3357 33.6902 10.1031 33.8028 9.74188L34.4177 7.768C37.5734 9.37492 40.2591 11.8798 42.0446 14.902C42.2033 15.1704 42.4903 15.3203 42.7854 15.3203C42.931 15.3203 43.0784 15.2838 43.2134 15.2072C43.6221 14.975 43.7615 14.4619 43.5246 14.0611C41.5245 10.6756 38.4887 7.88466 34.9252 6.13884L35.0975 5.58572C35.2656 5.04593 35.1657 4.47616 34.8234 4.02284C34.4597 3.54073 33.918 3.34275 33.493 3.31278C32.6576 3.12802 31.8087 2.96946 30.9598 2.83819V2.14199C30.9602 0.960996 29.9802 0 28.7756 0H20.9203C19.7157 0 18.7356 0.960996 18.7356 2.14221V2.83852C17.8883 2.96957 17.0408 3.1277 16.2066 3.31214C15.6743 3.34318 15.1926 3.5982 14.8722 4.02284C14.5299 4.47659 14.43 5.04625 14.5981 5.58594L14.7702 6.13819C9.00084 8.95812 4.96343 14.2784 3.78326 20.3856C3.77515 20.4128 3.76803 20.4406 3.76277 20.4689C3.63603 21.1474 3.54609 21.8354 3.49087 22.5264C3.47105 22.7729 3.4556 23.0199 3.44497 23.267H2.96767C1.33134 23.267 0 24.5652 0 26.1609V33.4169C0 34.2255 0.583346 34.9229 1.3871 35.0754L5.68053 35.8903C6.10821 37.3908 6.71817 38.8341 7.49947 40.1935L5.0503 43.7479C4.58921 44.4169 4.67739 45.3171 5.25954 45.888L9.28402 49.8344C9.8666 50.4055 10.7844 50.4917 11.4668 50.0396L15.0914 47.6381C16.4774 48.404 17.9493 49.0022 19.4797 49.4216L20.3107 53.6317C20.4672 54.4245 21.1785 55 22.0021 55H27.6935C28.5171 55 29.2284 54.4245 29.3849 53.6318L29.7407 51.829C29.8304 51.3743 29.5272 50.9343 29.0634 50.8463C28.5989 50.7576 28.1509 51.0557 28.0613 51.5104L27.7055 53.313C27.7044 53.3187 27.6993 53.3227 27.6934 53.3227H22.0019C21.9961 53.3227 21.991 53.3186 21.9899 53.313L21.0569 48.5862C20.9938 48.2659 20.7471 48.0109 20.4244 47.9319C18.6902 47.5071 17.0325 46.8333 15.4976 45.9293C15.2127 45.7615 14.854 45.771 14.5784 45.9534L10.5088 48.6498C10.504 48.6532 10.4975 48.6524 10.4934 48.6483L6.46895 44.7019C6.46479 44.6978 6.46413 44.6915 6.46753 44.6869L9.2172 40.6964C9.40332 40.4261 9.41285 40.0746 9.24173 39.795C8.31977 38.2895 7.6328 36.6638 7.19953 34.9637C7.1189 34.6473 6.85872 34.4054 6.53227 34.3435L1.71356 33.43C1.71356 33.43 1.71038 33.4264 1.71038 33.4169V31.4649H10.3911C10.8352 38.9063 17.1497 44.8267 24.8478 44.8267C32.5459 44.8267 38.8605 38.9063 39.3046 31.4649H47.9669V33.4167C47.9669 33.4228 47.9664 33.4279 47.9657 33.4318L43.1634 34.3433C42.8369 34.4052 42.5768 34.6471 42.4962 34.9635C42.063 36.6637 41.3759 38.2892 40.454 39.7948C40.2829 40.0743 40.2924 40.4259 40.4785 40.6961L43.2282 44.6865C43.2315 44.6914 43.2308 44.6977 43.2268 44.7017L39.2023 48.648C39.1981 48.6522 39.1915 48.653 39.1868 48.6494L35.1173 45.9531C34.8416 45.7707 34.4831 45.7613 34.1981 45.9291C32.6632 46.833 31.0054 47.5068 29.2713 47.9316C28.813 48.0439 28.5342 48.4991 28.6487 48.9485C28.7631 49.3979 29.2278 49.671 29.6857 49.559C31.4068 49.1373 33.0589 48.4918 34.6044 47.6378L38.2289 50.0393C38.9112 50.4914 39.8293 50.4054 40.4119 49.8342L44.4364 45.8878C45.0186 45.3168 45.1067 44.4167 44.6456 43.7476L42.1965 40.1932C42.9778 38.8339 43.5878 37.3905 44.0154 35.8901L48.3088 35.0752C49.1147 34.9222 49.6774 34.2402 49.6774 33.4167V26.1607C49.6774 24.565 48.3545 23.2668 46.7283 23.2668ZM41.2343 21.59C41.2343 21.5176 41.2945 21.4586 41.3684 21.4586H44.3641C44.3832 21.5883 44.4013 21.7181 44.4176 21.8483C44.4291 21.9409 44.4392 22.0336 44.4493 22.1263C44.4622 22.2454 44.4745 22.3644 44.4851 22.4837C44.4919 22.5598 44.4984 22.6358 44.5042 22.7119C44.5171 22.8816 44.5285 23.0514 44.5367 23.2218C44.5375 23.2369 44.5387 23.2518 44.5394 23.2667H41.2343V21.59ZM21.1983 21.59C21.1983 21.5176 21.2584 21.4586 21.3323 21.4586H27.5084C27.5822 21.4586 27.6424 21.5176 27.6424 21.59V23.2668H21.1983V21.59ZM5.19556 22.6638C5.19775 22.6358 5.20027 22.6079 5.20257 22.5799C5.23467 22.2035 5.27925 21.8297 5.33458 21.4585H8.32744C8.40128 21.4585 8.46142 21.5176 8.46142 21.59V23.2668H5.15656C5.16598 23.0652 5.17946 22.8642 5.19556 22.6638ZM47.9669 29.7877H19.2848C18.8124 29.7877 18.4296 30.1631 18.4296 30.6263C18.4296 31.0895 18.8124 31.4649 19.2848 31.4649H37.5897C37.1481 37.9806 31.6025 43.1493 24.8479 43.1493C18.0934 43.1493 12.5477 37.9806 12.1061 31.4649H14.8944C15.3668 31.4649 15.7497 31.0895 15.7497 30.6263C15.7497 30.1631 15.3668 29.7877 14.8944 29.7877H1.71049V26.1607C1.71049 25.4898 2.27445 24.9442 2.96767 24.9442H46.7283C47.4113 24.9442 47.9669 25.4899 47.9669 26.1607V29.7877Z" fill="#FF6600"/>
</svg>
