<svg width="55" height="55" viewBox="0 0 55 55" fill="none" xmlns="http://www.w3.org/2000/svg">
<path d="M39.0323 19.5161H40.8064V21.2903H39.0323V19.5161Z" fill="#FF6600"/>
<path d="M42.5806 19.5161H44.3548V21.2903H42.5806V19.5161Z" fill="#FF6600"/>
<path d="M19.5161 40.8064C21.4731 40.8064 23.0645 39.215 23.0645 37.2581C23.0645 35.3011 21.4731 33.7097 19.5161 33.7097C17.5592 33.7097 15.9677 35.3011 15.9677 37.2581C15.9677 39.215 17.5592 40.8064 19.5161 40.8064ZM19.5161 35.4839C20.4946 35.4839 21.2903 36.2796 21.2903 37.2581C21.2903 38.2365 20.4946 39.0323 19.5161 39.0323C18.5377 39.0323 17.7419 38.2365 17.7419 37.2581C17.7419 36.2796 18.5377 35.4839 19.5161 35.4839Z" fill="#FF6600"/>
<path d="M13.3065 14.1935C15.2634 14.1935 16.8548 12.6021 16.8548 10.6452C16.8548 8.68823 15.2634 7.09677 13.3065 7.09677C11.3495 7.09677 9.75806 8.68823 9.75806 10.6452C9.75806 12.6021 11.3495 14.1935 13.3065 14.1935ZM13.3065 8.87097C14.2849 8.87097 15.0806 9.66669 15.0806 10.6452C15.0806 11.6236 14.2849 12.4194 13.3065 12.4194C12.328 12.4194 11.5323 11.6236 11.5323 10.6452C11.5323 9.66669 12.328 8.87097 13.3065 8.87097Z" fill="#FF6600"/>
<path d="M55 32.8483C55 29.3531 52.7459 26.3814 49.6171 25.2902L48.2616 17.1582C47.976 15.4408 46.5034 14.1935 44.7611 14.1935H38.6251C37.8817 14.1935 37.1951 14.4313 36.6211 14.8252L32.2921 12.9206C32.6407 11.9066 32.8226 10.8474 32.8226 9.75806C32.8226 4.37782 28.4448 0 23.0645 0C20.0031 0 17.1671 1.43355 15.3246 3.84468C14.6841 3.65484 14.0081 3.54839 13.3065 3.54839C11.4675 3.54839 9.79532 4.25718 8.53387 5.40863C3.64952 6.01806 0 10.1173 0 15.0806C0 19.336 2.71806 23.0406 6.69758 24.3473L5.33855 37.942L3.96355 41.6075C3.20419 43.6336 2.79347 45.7494 2.70121 47.9032H1.77419C0.795726 47.9032 0 48.699 0 49.6774V55H30.1613V49.6774C30.1613 48.699 29.3656 47.9032 28.3871 47.9032H27.4432C27.2569 46.2789 26.6058 44.7265 25.9671 43.2185C25.7373 42.6756 25.5094 42.138 25.3106 41.6084L25.2441 41.431C26.101 40.2582 26.6129 38.8185 26.6129 37.2581C26.6129 35.9851 26.2714 34.7928 25.6823 33.7585C26.856 32.2194 27.5 30.3378 27.5 28.3871C27.5 23.768 23.9507 19.9668 19.4363 19.5569L19.2544 17.7419H19.3245L33.9217 24.3774L33.7691 25.2911C30.6412 26.3823 28.3862 29.354 28.3862 32.8492C28.3862 34.76 29.071 36.6114 30.3148 38.0618L33.7097 42.0218V45.2419C33.7097 46.7092 34.9037 47.9032 36.371 47.9032H47.0161C48.4834 47.9032 49.6774 46.7092 49.6774 45.2419V42.0218L53.0714 38.0627C54.3152 36.6114 55 34.76 55 32.8483ZM35.1255 17.1582L34.9117 18.4427L20.4032 11.8481V10.6452C20.4032 10.285 20.3677 9.9346 20.3154 9.58863L35.4244 16.2365C35.2896 16.5257 35.1796 16.83 35.1255 17.1582ZM27.3811 10.7587L19.5738 7.32387C19.5436 7.2671 19.5108 7.2121 19.4789 7.15621C20.3083 6.01629 21.6381 5.32258 23.0645 5.32258C25.5102 5.32258 27.5 7.31234 27.5 9.75806C27.5 10.0996 27.4556 10.4331 27.3811 10.7587ZM23.0645 1.77419C27.4663 1.77419 31.0484 5.35629 31.0484 9.75806C31.0484 10.599 30.9189 11.4187 30.6652 12.2038L29.0231 11.4817C29.1846 10.9246 29.2742 10.3489 29.2742 9.75806C29.2742 6.33387 26.4887 3.54839 23.0645 3.54839C21.2504 3.54839 19.5516 4.35565 18.3842 5.69782C17.9673 5.27024 17.4953 4.89855 16.9817 4.58629C18.4906 2.81032 20.7004 1.77419 23.0645 1.77419ZM13.3065 5.32258C16.2419 5.32258 18.629 7.70976 18.629 10.6452V15.9677H13.3065C10.371 15.9677 7.98387 13.5806 7.98387 10.6452C7.98387 7.70976 10.371 5.32258 13.3065 5.32258ZM6.38798 12.2056C6.61242 13.2009 7.0471 14.1137 7.64234 14.9032L7.25911 18.7337C6.07218 17.9202 5.32258 16.5683 5.32258 15.0806C5.32258 14.0002 5.71113 12.9942 6.38798 12.2056ZM1.77419 15.0806C1.77419 11.6795 3.86774 8.7725 6.89452 7.62371C6.55032 8.35024 6.32145 9.14153 6.24339 9.97806C4.57742 11.1295 3.54839 13.0439 3.54839 15.0806C3.54839 17.482 4.94113 19.6359 7.06661 20.6614L6.88032 22.5243C3.83048 21.3524 1.77419 18.4268 1.77419 15.0806ZM28.3871 53.2258H1.77419V49.6774H28.3871V53.2258ZM25.6513 47.9032H4.4754C4.56677 45.9631 4.94024 44.0577 5.62508 42.2311L6.82444 39.0323H12.6527C13.444 42.0883 16.2161 44.3548 19.5161 44.3548C21.1679 44.3548 22.6866 43.7827 23.894 42.8326C24.0385 43.1901 24.1787 43.5458 24.3331 43.9095C24.891 45.2295 25.4588 46.5859 25.6513 47.9032ZM21.5032 30.4496C21.1794 30.3547 20.845 30.2864 20.5044 30.2385L19.9934 25.1279C21.2744 25.669 22.1774 26.9331 22.1774 28.3871C22.1774 29.1385 21.9344 29.8499 21.5032 30.4496ZM19.5161 31.9355C22.4515 31.9355 24.8387 34.3227 24.8387 37.2581C24.8387 40.1935 22.4515 42.5806 19.5161 42.5806C16.5807 42.5806 14.1935 40.1935 14.1935 37.2581C14.1935 34.3227 16.5807 31.9355 19.5161 31.9355ZM25.7258 28.3871C25.7258 29.779 25.3133 31.1238 24.5602 32.2726C24.1423 31.8503 23.6695 31.4857 23.1577 31.1779C23.6722 30.3458 23.9516 29.3877 23.9516 28.3871C23.9516 25.8855 22.1792 23.7414 19.8 23.2011L19.6164 21.3675C23.0627 21.851 25.7258 24.8103 25.7258 28.3871ZM18.7177 30.2092C15.18 30.6075 12.4194 33.6148 12.4194 37.2581H7.18992L9.26839 16.4734C10.4154 17.2709 11.8064 17.7419 13.3065 17.7419H17.4714L18.7177 30.2092ZM20.4032 16.2835V13.7961L34.6092 20.2533L34.2242 22.5651L20.4032 16.2835ZM35.6444 24.8387L36.8757 17.4501C37.0185 16.5914 37.7548 15.9677 38.626 15.9677H44.762C45.6331 15.9677 46.3694 16.5914 46.5123 17.4501L47.7427 24.8387H35.6444ZM47.9032 33.8729C47.6247 33.7735 47.3284 33.7097 47.0161 33.7097H36.371C36.0587 33.7097 35.7624 33.7735 35.4839 33.8729V32.8226C35.4839 32.3329 35.8822 31.9355 36.371 31.9355H47.0161C47.5049 31.9355 47.9032 32.3329 47.9032 32.8226V33.8729ZM39.0323 35.4839H44.3548V37.2581H39.0323V35.4839ZM47.9032 45.2419C47.9032 45.7316 47.5049 46.129 47.0161 46.129H36.371C35.8822 46.129 35.4839 45.7316 35.4839 45.2419V36.371C35.4839 35.8813 35.8822 35.4839 36.371 35.4839H37.2581V39.0323H46.129V35.4839H47.0161C47.5049 35.4839 47.9032 35.8813 47.9032 36.371V45.2419ZM49.6774 39.2957V32.8226C49.6774 31.3553 48.4834 30.1613 47.0161 30.1613H36.371C34.9037 30.1613 33.7097 31.3553 33.7097 32.8226V39.2957L31.6623 36.9068C30.6944 35.7775 30.1613 34.336 30.1613 32.8483C30.1613 29.4099 32.9583 26.6129 36.3976 26.6129H46.9895C50.4279 26.6129 53.2258 29.4099 53.2258 32.8483C53.2258 34.336 52.6927 35.7775 51.7248 36.9068L49.6774 39.2957Z" fill="#FF6600"/>
</svg>
