<svg width="55" height="55" viewBox="0 0 55 55" fill="none" xmlns="http://www.w3.org/2000/svg">
<path d="M54.0908 38.0765C53.8433 38.0352 48.0264 37.1177 44.8667 40.2765C44.616 40.5323 44.3867 40.8082 44.1811 41.1015C41.3395 38.962 37.1394 39.435 36.9497 39.4579C36.746 39.4825 36.5564 39.5747 36.4113 39.7198C36.2663 39.8649 36.1741 40.0544 36.1495 40.2582C36.1247 40.4644 35.5692 45.3521 38.3558 48.1497C39.6406 49.3278 41.267 50.0662 42.9995 50.2581C42.825 51.0798 42.374 51.8168 41.7218 52.3461C41.0695 52.8754 40.2555 53.1651 39.4155 53.1667H39.0992C38.2248 53.1686 37.3641 52.95 36.5966 52.531C35.8291 52.112 35.1797 51.5062 34.7085 50.7696C34.3765 50.253 33.9201 49.8281 33.3812 49.5338C32.8423 49.2395 32.2381 49.0853 31.624 49.0853C31.01 49.0853 30.4058 49.2395 29.8668 49.5338C29.3279 49.8281 28.8715 50.253 28.5395 50.7696L28.1875 51.3196C27.8239 51.8875 27.3229 52.3545 26.7309 52.6774C26.1388 53.0003 25.4749 53.1685 24.8006 53.1667C23.8148 53.1657 22.8697 52.7737 22.1727 52.0766C21.4757 51.3796 21.0837 50.4344 21.0827 49.4487V46.6207C21.7152 46.4576 22.2927 46.1288 22.7558 45.6681C23.2188 45.2074 23.5507 44.6316 23.7171 44H25.6659C26.1521 44 26.6184 43.8068 26.9622 43.463C27.306 43.1192 27.4992 42.6529 27.4992 42.1667V37.5833C27.4971 37.3494 27.4057 37.1251 27.2436 36.9564C27.0815 36.7876 26.8611 36.6873 26.6274 36.6758C26.8191 34.174 27.9103 31.8262 29.6991 30.0667C31.712 28.1263 33.0855 25.6183 33.6366 22.8772C34.1877 20.1362 33.89 17.2922 32.7834 14.7246C31.6767 12.1571 29.8137 9.98787 27.4426 8.50631C25.0716 7.02476 22.3053 6.30124 19.5125 6.43225C16.8221 6.55915 14.2283 7.47371 12.0533 9.06232C9.87823 10.6509 8.21784 12.8436 7.27837 15.3679C6.33889 17.8922 6.16173 20.6368 6.76888 23.261C7.37604 25.8851 8.74076 28.273 10.6935 30.1281C12.4648 31.8686 13.5364 34.1982 13.7056 36.6758C13.4713 36.6857 13.2499 36.7856 13.0873 36.9546C12.9248 37.1236 12.8337 37.3488 12.8329 37.5833V42.1667C12.8329 42.6529 13.0261 43.1192 13.3699 43.463C13.7137 43.8068 14.18 44 14.6662 44H16.615C16.7814 44.6316 17.1133 45.2074 17.5763 45.6681C18.0394 46.1288 18.6169 46.4576 19.2494 46.6207V49.4487C19.2511 50.9204 19.8365 52.3315 20.8772 53.3722C21.9179 54.4129 23.3288 54.9983 24.8006 55C25.7822 55.0019 26.7486 54.7563 27.6102 54.2859C28.4718 53.8155 29.201 53.1354 29.7303 52.3087L30.0822 51.7587C30.2483 51.5006 30.4764 51.2883 30.7458 51.1413C31.0152 50.9943 31.3172 50.9172 31.624 50.9172C31.9309 50.9172 32.2329 50.9943 32.5022 51.1413C32.7716 51.2883 32.9998 51.5006 33.1658 51.7587C33.8024 52.7544 34.6799 53.5734 35.717 54.1399C36.7542 54.7065 37.9174 55.0023 39.0992 55H39.4155C40.7142 54.9987 41.9706 54.5378 42.9621 53.6989C43.9537 52.86 44.6163 51.6973 44.8328 50.4167H44.9978C45.1664 50.4167 45.3259 50.4167 45.4744 50.4084H45.6248C47.667 50.4084 50.6736 50.0243 52.6453 48.0526C55.805 44.8928 54.8856 39.0747 54.8452 38.8282C54.8134 38.6399 54.7236 38.4663 54.5884 38.3315C54.4531 38.1968 54.2792 38.1076 54.0908 38.0765ZM11.9557 28.7998C10.2313 27.1605 9.03702 25.0425 8.52675 22.7186C8.01647 20.3946 8.21353 17.9711 9.09256 15.7601C9.97159 13.5491 11.4923 11.6519 13.459 10.3128C15.4256 8.97365 17.7481 8.25389 20.1273 8.24622C22.5065 8.23854 24.8336 8.94329 26.8088 10.2697C28.7841 11.5961 30.317 13.4835 31.2103 15.6888C32.1036 17.894 32.3163 20.3162 31.821 22.6434C31.3258 24.9706 30.1452 27.0963 28.4314 28.7467C26.2843 30.8493 24.9854 33.6683 24.7822 36.6667H15.5508C15.3712 33.6888 14.0896 30.8845 11.9557 28.7998ZM20.166 44.9167C19.6798 44.9167 19.2135 44.7235 18.8697 44.3797C18.5259 44.0359 18.3328 43.5696 18.3328 43.0833C18.3328 42.8402 18.2362 42.607 18.0643 42.4351C17.8924 42.2632 17.6592 42.1667 17.4161 42.1667H14.6662V38.5H25.6659V42.1667H22.916C22.6729 42.1667 22.4397 42.2632 22.2678 42.4351C22.0959 42.607 21.9993 42.8402 21.9993 43.0833C21.9993 43.5696 21.8062 44.0359 21.4624 44.3797C21.1186 44.7235 20.6523 44.9167 20.166 44.9167ZM42.7328 44.7489L40.9527 42.9687L39.6565 44.2649L42.5146 47.124C42.51 47.5649 42.5229 47.9655 42.5439 48.3074C41.4639 48.1017 40.4625 47.5992 39.6519 46.8563C38.0579 45.2567 37.8993 42.548 37.9268 41.239C39.1689 41.2124 41.6695 41.371 43.291 42.757C43.0396 43.4009 42.8526 44.0681 42.7328 44.7489ZM51.3492 46.7592C49.8367 48.2707 47.3801 48.5714 45.666 48.5723L50.7075 43.5307L49.4068 42.2372L44.3516 47.2927C44.3516 45.5757 44.6385 43.1017 46.1656 41.5745C48.1107 39.6293 51.6388 39.688 53.1165 39.8099C53.2393 41.2848 53.3007 44.8067 51.3492 46.7592Z" fill="#FF6600"/>
<path d="M19.2494 0H21.0827V3.66667H19.2494V0Z" fill="#FF6600"/>
<path d="M31.1831 7.85969L33.7758 5.26697L35.0721 6.56333L32.4794 9.15606L31.1831 7.85969Z" fill="#FF6600"/>
<path d="M5.25712 6.55508L6.55344 5.25872L9.14608 7.85144L7.84976 9.14781L5.25712 6.55508Z" fill="#FF6600"/>
<path d="M36.6655 19.25H40.3321V21.0833H36.6655V19.25Z" fill="#FF6600"/>
<path d="M0 19.25H3.66655V21.0833H0V19.25Z" fill="#FF6600"/>
<path d="M31.1774 32.4738L32.4738 31.1775L35.0664 33.7702L33.7701 35.0665L31.1774 32.4738Z" fill="#FF6600"/>
<path d="M5.25417 33.7753L7.84682 31.1826L9.14314 32.4789L6.55049 35.0717L5.25417 33.7753Z" fill="#FF6600"/>
<path d="M16.2795 29.0024C16.203 29.2004 16.1975 29.4188 16.2641 29.6203C16.3306 29.8218 16.4651 29.994 16.6444 30.1075C16.8238 30.221 17.0369 30.2687 17.2475 30.2425C17.4582 30.2164 17.6532 30.1179 17.7993 29.964L26.3314 20.9632C26.4442 20.844 26.523 20.6965 26.5594 20.5364C26.5958 20.3763 26.5885 20.2093 26.5383 20.0529C26.4881 19.8966 26.3968 19.7566 26.2739 19.6476C26.1511 19.5386 26.0012 19.4646 25.84 19.4333L22.9985 18.8833L24.9811 13.1312C25.0513 12.9299 25.0491 12.7105 24.9749 12.5106C24.9008 12.3108 24.7593 12.143 24.5748 12.0362C24.3903 11.9295 24.1743 11.8903 23.9641 11.9255C23.7539 11.9608 23.5625 12.0682 23.4229 12.2292L14.8935 21.9807C14.7877 22.1021 14.7157 22.2492 14.6847 22.4073C14.6538 22.5654 14.6651 22.7288 14.7174 22.8811C14.7697 23.0334 14.8613 23.1693 14.9828 23.275C15.1043 23.3807 15.2515 23.4525 15.4096 23.4832L18.2099 24.0249L16.2795 29.0024ZM17.3245 21.9862L21.7243 16.9583L20.9232 19.283C20.8804 19.4071 20.8647 19.5389 20.8772 19.6695C20.8897 19.8002 20.9302 19.9267 20.9958 20.0403C21.0614 20.154 21.1507 20.2523 21.2575 20.3285C21.3644 20.4047 21.4864 20.457 21.6153 20.482L23.8528 20.9147L19.6738 25.322L20.3155 23.6628C20.3638 23.5377 20.384 23.4036 20.3748 23.2698C20.3656 23.1361 20.3272 23.0059 20.2623 22.8886C20.1973 22.7713 20.1075 22.6697 19.999 22.5909C19.8905 22.5121 19.766 22.4581 19.6344 22.4327L17.3245 21.9862Z" fill="#FF6600"/>
</svg>
