<svg xmlns="http://www.w3.org/2000/svg" version="1.1" xmlns:xlink="http://www.w3.org/1999/xlink" xmlns:svgjs="http://svgjs.com/svgjs" width="512" height="512" x="0" y="0" viewBox="0 0 60 60" style="enable-background:new 0 0 512 512" xml:space="preserve" class=""><g><path d="M44.828 44.543a1.965 1.965 0 0 0 .495.111c.054 0 .108.006.161.006a1.983 1.983 0 0 0 1.3-.48l4.52-3.87a2 2 0 0 0 .219-2.821L48 33.386V2a2 2 0 0 0-2-2H20.414A2.015 2.015 0 0 0 19 .586L12.586 7A2.015 2.015 0 0 0 12 8.414v23.658L8.7 34.9a2.005 2.005 0 0 0-.218 2.821l3.88 4.519a2 2 0 0 0 1.522.7 2.044 2.044 0 0 0 .4-.043l.906 1.085a2.954 2.954 0 0 0 2.185 4.44 2.948 2.948 0 0 0 2.59 3.026 2.942 2.942 0 0 0 2.588 3.019 2.971 2.971 0 0 0 4.047 2.852l1.4 1.639a2.968 2.968 0 0 0 2.041 1.033q.117.009.234.009a2.96 2.96 0 0 0 1.939-.717 2.922 2.922 0 0 0 1.014-1.869 2.991 2.991 0 0 0 3.022-2.591 2.938 2.938 0 0 0 2.005-.718 2.981 2.981 0 0 0 1.015-1.87 3.1 3.1 0 0 0 2-.717 3 3 0 0 0 .327-4.21Zm-11.64-7.049a1 1 0 0 0-1.305-1.515l-.755.648-5.281 4.527a.989.989 0 1 1-1.287-1.5l6.29-5.391a.979.979 0 0 1 .58-.237l3.794-.247 8.091 9.427-3.015 2.583ZM50 38.79l-4.52 3.868-10.109-11.779L39.891 27 50 38.789ZM19 3.414V7h-3.586ZM14 9h5a2 2 0 0 0 2-2V2h25v29.054L41.409 25.7a2.005 2.005 0 0 0-2.821-.219l-4.52 3.88a2 2 0 0 0-.429 2.517l-2.339.152a3 3 0 0 0-1.75.714l-.613.525-2.422-.636a1.975 1.975 0 0 0-.133-2.414L22.51 25.7a2.006 2.006 0 0 0-2.821-.219L14 30.358Zm-4 27.419L20.99 27l3.87 4.52-10.981 9.418Zm7.115 8.3a.989.989 0 1 1-.107 1.4.984.984 0 0 1 .108-1.396Zm2.246 3.7a.989.989 0 1 1 1.628.827 1.009 1.009 0 0 1-.718.234.986.986 0 0 1-.91-1.061Zm2.93 2.345a.991.991 0 0 1 1.4.107.991.991 0 0 1-.108 1.394 1 1 0 0 1-.72.234.989.989 0 0 1-.568-1.736Zm2.481 4.414a.989.989 0 1 1 1.395.107.993.993 0 0 1-1.394-.108ZM39.973 50a.991.991 0 0 1-1.395-.106l-1.94-2.265a1 1 0 0 0-1.52 1.3l1.941 2.264a.989.989 0 0 1-1.5 1.287l-1.294-1.509a1 1 0 1 0-1.52 1.3l1.294 1.51a.991.991 0 0 1-.109 1.394 1.009 1.009 0 0 1-.718.234.976.976 0 0 1-.674-.34l-.646-.755a1 1 0 0 0-1.52 1.3l.647.755a.964.964 0 0 1 .227.733.945.945 0 0 1-.336.661.958.958 0 0 1-.718.232.98.98 0 0 1-.675-.34l-1.411-1.645a2.962 2.962 0 0 0-2.2-4.43 2.942 2.942 0 0 0-2.59-3.019 2.964 2.964 0 0 0-.707-2.014 2.97 2.97 0 0 0-1.881-1.005 2.963 2.963 0 0 0-4.025-2.857l-.748-.9 8.8-7.549 2.327.611-3.832 3.286a2.988 2.988 0 0 0 3.889 4.537l4.532-3.87 8.407 9.8a.971.971 0 0 1 .23.734.947.947 0 0 1-.335.666Z" fill="#ff6600" data-original="#000000" class=""></path><path d="M18.293 15.707A1 1 0 0 0 19 16h.071a1 1 0 0 0 .729-.4l3-4a1 1 0 1 0-1.6-1.2l-2.308 3.078-.185-.185a1 1 0 0 0-1.414 1.414ZM32 12h10a1 1 0 0 0 0-2H32a1 1 0 0 0 0 2ZM27 12h1a1 1 0 0 0 0-2h-1a1 1 0 0 0 0 2ZM27 16h7a1 1 0 0 0 0-2h-7a1 1 0 0 0 0 2ZM22.8 19.6a1 1 0 1 0-1.6-1.2l-2.308 3.078-.185-.185a1 1 0 0 0-1.414 1.414l1 1A1 1 0 0 0 19 24h.071a1 1 0 0 0 .729-.4ZM42 18H32a1 1 0 0 0 0 2h10a1 1 0 0 0 0-2ZM27 20h1a1 1 0 0 0 0-2h-1a1 1 0 0 0 0 2ZM27 24h7a1 1 0 0 0 0-2h-7a1 1 0 0 0 0 2Z" fill="#ff6600" data-original="#000000" class=""></path></g></svg>