<svg xmlns="http://www.w3.org/2000/svg" version="1.1" xmlns:xlink="http://www.w3.org/1999/xlink" xmlns:svgjs="http://svgjs.com/svgjs" width="512" height="512" x="0" y="0" viewBox="0 0 482.13 482.13" style="enable-background:new 0 0 512 512" xml:space="preserve" class=""><g><path d="M475.266 126.603h-.002l-.016-.016-31.12-4.44a8 8 0 0 1-3.672-14.32l25.152-18.864a8 8 0 0 0 1.6-11.2l-28.8-38.4a8 8 0 0 0-11.2-1.6l-25.144 18.864a8 8 0 0 1-12.752-7.528l4.448-31.12a8 8 0 0 0-6.783-9.055l-.009-.001-47.488-6.784a8 8 0 0 0-9.056 6.782v.002l-4.448 31.12a8 8 0 0 1-14.32 3.672L292.8 18.563a8 8 0 0 0-11.2-1.6l-24.04 18.04a154.787 154.787 0 0 0-32.72 0C153.614 43.144 97.759 99.946 90.816 171.299c-.216 2.264-.296 4.512-.408 6.76h-2.4a8 8 0 0 0-7.824 6.4l-5.528 26.288-22.144-15.272a8 8 0 0 0-10.2.928l-24 24a8 8 0 0 0-.928 10.192l15.2 22.104-26.296 5.528A8 8 0 0 0 0 266.059v32a8 8 0 0 0 6.352 7.832l26.296 5.528-15.2 22.104a8 8 0 0 0 .928 10.192l24 24a8 8 0 0 0 10.2.928l22.104-15.24 5.528 26.296a8 8 0 0 0 7.824 6.4h32a8 8 0 0 0 7.832-6.352l5.528-26.296 22.104 15.2a8 8 0 0 0 10.192-.928l12.424-12.464v22.8a31.896 31.896 0 0 0 16 27.552v44.448c0 17.673 14.327 32 32 32h32c17.673 0 32-14.327 32-32v-44.448a31.896 31.896 0 0 0 16-27.552v-31.664a39.2 39.2 0 0 1 18.504-32.656 153.525 153.525 0 0 0 18.832-14.4l-10.672-11.92a136.188 136.188 0 0 1-16.856 12.888 55.104 55.104 0 0 0-25.808 46.088v31.664c0 8.837-7.163 16-16 16h-64c-8.837 0-16-7.163-16-16v-32.328a53.824 53.824 0 0 0-25.376-45.152c-63.407-39.842-82.511-123.541-42.669-186.948a135.593 135.593 0 0 1 114.325-63.452 8.698 8.698 0 0 0-.312.872 8 8 0 0 0 1.528 5.928l18.856 25.144a7.832 7.832 0 0 1 .48 8.88 7.952 7.952 0 0 1-8 3.848l-31.12-4.448a8 8 0 0 0-9.055 6.783l-.001.009-6.792 47.512a8.001 8.001 0 0 0 6.783 9.055l.009.001 31.12 4.448a8 8 0 0 1 3.672 14.32l-25.144 18.856a8 8 0 0 0-1.6 11.2l28.8 38.4a8 8 0 0 0 11.2 1.6l25.152-18.856a8 8 0 0 1 12.712 7.528l-4.44 31.12a8 8 0 0 0 6.782 9.056h.002l47.52 6.792c.374.048.751.072 1.128.072a8 8 0 0 0 7.928-6.864l4.44-31.12a8 8 0 0 1 14.32-3.672l18.864 25.144a8 8 0 0 0 11.2 1.6l38.4-28.8a8 8 0 0 0 1.6-11.2l-18.856-25.144a7.863 7.863 0 0 1-.48-8.88 7.768 7.768 0 0 1 8-3.84l31.12 4.44a8 8 0 0 0 9.056-6.782v-.002l6.784-47.52a8 8 0 0 0-6.782-9.056zM210.112 410.059h64v16h-64v-16zm0 32h64v8c0 8.837-7.163 16-16 16h-32c-8.837 0-16-7.163-16-16v-8zm-63.688-137.96a151.206 151.206 0 0 0 13.672 9.96 39.05 39.05 0 0 1 16.12 20.472l-17.16 17.128-16.616-11.456c-7.276-5.014-17.239-3.18-22.254 4.096a16.003 16.003 0 0 0-2.482 5.784l-4.192 19.976H94.496l-4.192-19.944c-1.82-8.647-10.305-14.182-18.952-12.362a16.003 16.003 0 0 0-5.784 2.482l-16.624 11.424-14.576-14.544 11.448-16.608c5.019-7.273 3.191-17.237-4.082-22.256a15.994 15.994 0 0 0-5.79-2.488L16 291.563v-19.008l19.944-4.2c8.644-1.833 14.166-10.326 12.333-18.971a15.996 15.996 0 0 0-2.453-5.725l-11.456-16.656 14.576-14.544 16.632 11.456c7.279 5.009 17.242 3.169 22.251-4.11a15.983 15.983 0 0 0 2.477-5.778l1.4-6.656a152.347 152.347 0 0 0 6.344 27.128c-26.323 3.138-45.118 27.022-41.98 53.345 3.138 26.323 27.022 45.118 53.345 41.98a48.004 48.004 0 0 0 37.011-25.725zM134 292.827c-5.974 16.605-24.277 25.223-40.882 19.25-16.605-5.974-25.223-24.277-19.25-40.882a31.952 31.952 0 0 1 30.131-21.136h.304A151.512 151.512 0 0 0 134 292.827zm326.512-119.856-23.2-3.312c-13.122-1.874-25.278 7.245-27.152 20.366-.9 6.301.74 12.702 4.56 17.794l14.056 18.744-25.6 19.2-14.064-18.736c-7.952-10.605-22.995-12.756-33.599-4.804a24.004 24.004 0 0 0-9.361 15.804l-3.24 23.232-31.672-4.528 3.312-23.2c1.879-13.121-7.235-25.281-20.356-27.159a23.998 23.998 0 0 0-17.804 4.559l-18.744 14.056-19.2-25.6 18.736-14.064c10.605-7.952 12.756-22.995 4.804-33.599a24.004 24.004 0 0 0-15.804-9.361l-23.2-3.312 4.528-31.672 23.2 3.312c13.121 1.879 25.281-7.235 27.159-20.356a23.998 23.998 0 0 0-4.559-17.804l-14.104-18.76 25.6-19.2 14.064 18.744c7.952 10.605 22.995 12.756 33.599 4.804a24.004 24.004 0 0 0 9.361-15.804l3.312-23.2 31.672 4.52-3.312 23.2c-1.874 13.122 7.244 25.278 20.366 27.152 6.301.9 12.702-.74 17.794-4.56l18.744-14.056 19.2 25.6-18.744 14.064c-10.605 7.952-12.756 22.995-4.804 33.599a24.004 24.004 0 0 0 15.804 9.361l23.2 3.312-4.552 31.664z" fill="#ff6600" data-original="#000000" class=""></path><path d="M344 76.171c-35.346 0-64 28.654-64 64 0 35.346 28.654 64 64 64 35.346 0 64-28.654 64-64-.04-35.33-28.67-63.961-64-64zm0 112c-26.51 0-48-21.49-48-48s21.49-48 48-48 48 21.49 48 48c-.031 26.497-21.503 47.969-48 48zM234.112 354.059h16v24h-16zM207.12 275.491c-49.385-19.292-73.78-74.966-54.487-124.351a96.005 96.005 0 0 1 38.279-46.313l-8.552-13.536c-52.336 32.971-68.035 102.126-35.064 154.462a112.001 112.001 0 0 0 54.016 44.626c19.752 7.568 32.795 26.528 32.8 47.68h16c.025-27.752-17.077-52.641-42.992-62.568zM394.112 298.059h56v16h-56zM380.993 352.2l10.241-12.293 48.004 39.994-10.242 12.292zM346.112 362.059h16v56h-16zM8.169 138.29l63.996-15.996 3.878 15.513-63.996 15.998zM21.458 56.572l9.295-13.013 55.995 39.996-9.294 13.013zM90.003 4.03l15.5-3.963 16.363 63.995-15.5 3.963z" fill="#ff6600" data-original="#000000" class=""></path></g></svg>