<svg width="40" height="40" viewBox="0 0 40 40" fill="none" xmlns="http://www.w3.org/2000/svg">
<path d="M0 37.3419L0.529673 38.509L19.5365 30.7939L22.8477 31.183L24.0396 34.7487L22.4503 36.24C21.8543 36.7585 21.6558 37.6011 21.9869 38.3792L22.6492 40L33.6423 35.786L33.0464 34.2301C32.7815 33.452 32.053 32.9984 31.1922 32.9984H29.0065L27.8146 30.2105L30.7285 28.7844C31.6556 28.3305 32.053 27.2931 31.7218 26.3856L27.9472 16.4666C27.5498 15.4293 26.4238 14.9753 25.3642 15.2995C25.3642 15.2995 25.2982 15.2995 25.2982 15.3644L22.5166 16.5312L22.1192 15.5587L23.6426 13.8085C24.7019 12.6413 25.3642 11.2153 25.563 9.65939L27.4835 7.39032C28.7417 5.96392 28.4769 3.82463 27.0198 2.5926C26.7549 2.39823 26.4901 2.20387 26.2253 2.07408C25.4967 1.74993 24.7682 1.68503 23.9737 1.87971L23.7748 1.29599C23.4437 0.258949 22.2518 -0.259886 21.2584 0.129161L7.28478 5.05635C6.22511 5.4454 5.69544 6.54733 6.09286 7.51979V7.58468L6.42398 8.42736C4.70206 9.20545 3.90723 11.1504 4.50319 12.836C4.9669 14.1326 6.15882 15.0402 7.54962 15.2346L10.6623 15.5587C11.9206 16.4666 13.4436 17.05 14.967 17.1795L17.1523 17.3742L17.5497 18.3466C17.086 18.6059 16.7549 19.0598 16.6226 19.6432L16.1589 21.8474L0 28.2656L0.463706 29.4973L9.73525 25.867L11.9868 32.4796L0 37.3419ZM31.7218 34.6192L31.8544 35.0079L23.3774 38.3143L23.1789 37.9253C23.1126 37.666 23.1789 37.4068 23.3114 37.2124L25.563 35.1377L28.4106 34.2301H31.0596C31.3907 34.2301 31.5896 34.3596 31.7218 34.6192ZM27.5498 33.063L25.1656 33.8411L24.3048 31.3777C24.7019 31.4422 25.033 31.3777 25.3642 31.183L26.4901 30.6645L27.5498 33.063ZM25.7616 16.3368C26.0927 16.207 26.4901 16.3368 26.6227 16.661L27.1524 18.0225L23.9074 19.0598L24.3048 20.2916L27.5498 19.2542L28.3443 21.3289L25.2319 22.3659L25.6293 23.598L28.808 22.5606L29.6028 24.635L26.5564 25.6075L26.9538 26.8395L30.0662 25.8022L30.3973 26.6448C30.5299 26.969 30.3973 27.2931 30.0662 27.4229L24.8345 29.9513C24.7019 30.0161 24.5696 30.0161 24.4371 30.0161L19.9339 29.4973L17.4834 22.3014L17.9471 19.9025C18.0134 19.7081 18.1457 19.5135 18.3445 19.4486L25.7616 16.3368ZM25.6953 3.24091C26.7549 3.69485 27.2849 4.92656 26.8212 6.02881C26.7549 6.22318 26.6227 6.35297 26.4901 6.54733L25.6953 7.51979C25.6293 6.87148 25.4967 6.28807 25.2982 5.63977L24.4371 3.11143C24.9008 3.04654 25.2982 3.11143 25.6953 3.24091ZM5.8277 12.5119C5.4306 11.4096 5.89399 10.2428 6.95365 9.72397L7.88074 11.9285C8.21187 12.7062 8.67558 13.4843 9.20525 14.1326L7.81445 14.0029C6.88736 13.938 6.09286 13.3545 5.8277 12.5119ZM15.2318 15.9478C12.5165 15.6885 10.1323 14.0029 9.13896 11.4745L7.41736 7.19564C7.28478 6.87148 7.41736 6.48244 7.74849 6.35297L21.7218 1.42577C21.9206 1.36088 22.0529 1.36088 22.2518 1.42577C22.384 1.49067 22.5166 1.62014 22.5829 1.81482L24.0396 6.09371C24.8345 8.49225 24.3048 11.0855 22.6492 12.9655L20.5961 15.2995L21.1921 16.8553L18.8079 17.8278L18.1457 16.207L15.2318 15.9478ZM10.9935 25.3482L12.5165 24.7648L14.1721 29.692L15.4304 29.3029L13.7088 24.2463L16.3578 23.2089L18.6094 29.7569L13.2451 31.9611L10.9935 25.3482Z" fill="white"/>
<path d="M32.7152 11.3447V11.993H34.0397V11.3447C34.0397 9.52958 35.4968 8.10318 37.351 8.10318V6.80657C35.4968 6.80657 34.0397 5.38049 34.0397 3.56504V2.91673H32.7152V3.56504C32.7152 5.38049 31.2585 6.80657 29.404 6.80657V8.10318C31.2585 8.10318 32.7152 9.52958 32.7152 11.3447ZM33.3775 5.899C33.7749 6.54731 34.3046 7.06615 34.9668 7.45488C34.3046 7.84392 33.7749 8.36276 33.3775 9.01107C32.9801 8.36276 32.4504 7.84392 31.7881 7.45488C32.4504 7.06615 32.9801 6.54731 33.3775 5.899Z" fill="white"/>
<path d="M3.57612 24.3109V24.9592H4.90062V24.3109C4.90062 22.4957 6.35771 21.0693 8.21189 21.0693V19.7727C6.35771 19.7727 4.90062 18.3466 4.90062 16.5312V15.8829H3.57612V16.5312C3.57612 18.3466 2.11935 19.7727 0.264852 19.7727V21.0693C2.11935 21.0693 3.57612 22.4957 3.57612 24.3109ZM4.23837 18.8652C4.63579 19.5135 5.16546 20.0323 5.82771 20.421C5.16546 20.8101 4.63579 21.3289 4.23837 21.9772C3.84095 21.3289 3.31128 20.8101 2.64903 20.421C3.31128 20.0323 3.84095 19.5135 4.23837 18.8652Z" fill="white"/>
<path d="M36.6887 16.5312V15.8829H35.3642V16.5312C35.3642 18.3466 33.9075 19.7727 32.053 19.7727V21.0693C33.9075 21.0693 35.3642 22.4957 35.3642 24.3109V24.9592H36.6887V24.3109C36.6887 22.4957 38.1458 21.0693 40 21.0693V19.7727C38.1458 19.7727 36.6887 18.3466 36.6887 16.5312ZM36.0265 21.9772C35.6291 21.3289 35.0994 20.8101 34.4371 20.421C35.0994 20.0323 35.6291 19.5135 36.0265 18.8652C36.4239 19.5135 36.9536 20.0323 37.6158 20.421C36.9536 20.8101 36.4239 21.3289 36.0265 21.9772Z" fill="white"/>
<path d="M19.669 11.5394L20.5961 12.447C24.2385 8.88129 20.861 3.43558 20.6624 3.2409L19.5365 3.9541C19.6027 3.9541 22.5829 8.68693 19.669 11.5394Z" fill="white"/>
</svg>
