<svg xmlns="http://www.w3.org/2000/svg" version="1.1" xmlns:xlink="http://www.w3.org/1999/xlink" xmlns:svgjs="http://svgjs.com/svgjs" width="512" height="512" x="0" y="0" viewBox="0 0 64 64" style="enable-background:new 0 0 512 512" xml:space="preserve" class=""><g><path d="M52.952 15.401a.998.998 0 0 1-.647-1.763 10.596 10.596 0 0 0 3.363-5.203 1.01 1.01 0 0 1 1.236-.688c.531.152.839.706.688 1.236a12.594 12.594 0 0 1-3.996 6.182.992.992 0 0 1-.644.236z" fill="#ffffff" data-original="#000000"></path><path d="M34.234 27.866a1 1 0 0 1-.528-1.851c5.779-3.58 11.886-7.646 18.668-12.432a1.001 1.001 0 0 1 1.153 1.635c-6.814 4.809-12.953 8.896-18.768 12.498a.986.986 0 0 1-.525.15zM49.171 30.324a.999.999 0 0 1-.645-1.764l2.256-1.898a.996.996 0 0 1 1.408.121.998.998 0 0 1-.121 1.408l-2.256 1.898a.993.993 0 0 1-.642.235z" fill="#ffffff" data-original="#000000"></path><path d="M49.169 30.324c-.445 0-.851-.299-.968-.75l-2.675-10.367a1.002 1.002 0 0 1 .719-1.219 1.003 1.003 0 0 1 1.219.719l2.675 10.367a1.002 1.002 0 0 1-.97 1.25zM51.426 28.426a1 1 0 0 1-1-.986l-.156-11.838a1.001 1.001 0 0 1 .986-1.014h.014a1 1 0 0 1 1 .986l.156 11.838a1.001 1.001 0 0 1-.986 1.014h-.014zM36.108 32.427a1 1 0 0 1-.984-.828l-.903-5.163a1 1 0 1 1 1.97-.344l.903 5.163a1 1 0 0 1-.986 1.172z" fill="#ffffff" data-original="#000000"></path><path d="M37.771 31.285a1.002 1.002 0 0 1-.973-1.234l1.587-6.594a1.002 1.002 0 0 1 1.207-.738c.536.13.867.67.738 1.207l-1.587 6.594a1.001 1.001 0 0 1-.972.765z" fill="#ffffff" data-original="#000000"></path><path d="M36.11 32.427a1 1 0 0 1-.567-1.825l1.66-1.142a1 1 0 0 1 1.133 1.649l-1.66 1.142a.994.994 0 0 1-.566.176zM19.205 50.118a1 1 0 0 1-.891-1.451l1.702-3.367a1 1 0 0 1 1.785.903l-1.702 3.367a1 1 0 0 1-.894.548z" fill="#ffffff" data-original="#000000"></path><path d="M20.908 46.751a1 1 0 0 1-.023-2l1.423-.033.737-.552a1 1 0 0 1 .443-.188l1.424-.226 2.18-1a1.16 1.16 0 0 1 .171-.061l1.762-.446 1.546-1.371.246-.608a163.556 163.556 0 0 0-1.771-1.55 1 1 0 0 1-.157-1.343l.423-.585-.026-.935-.701-1.376-.845-1.325a1 1 0 1 1 1.69-1.07l.891 1.406.85 1.657c.067.132.104.277.109.426l.043 1.499c.006.22-.061.436-.189.614l-.086.118c.547.478 1.091.957 1.632 1.442.313.282.416.729.258 1.12l-.599 1.478a.99.99 0 0 1-.264.372l-1.903 1.688a1.01 1.01 0 0 1-.417.222l-1.909.484-2.222 1.019a.994.994 0 0 1-.261.078l-1.314.209-.795.595a1.001 1.001 0 0 1-.576.2l-1.743.041-.027.001z" fill="#ffffff" data-original="#000000"></path><path d="M29.103 52.425c-5.095 0-10.17-1.688-14.196-4.875l-.335-.267a.998.998 0 0 1-.162-1.404.997.997 0 0 1 1.404-.162l.335.266c5.31 4.203 12.627 5.55 19.097 3.507 7.256-2.288 12.805-8.615 14.138-16.12a.999.999 0 1 1 1.969.349c-1.461 8.229-7.547 15.169-15.505 17.679a22.468 22.468 0 0 1-6.745 1.027zM12.33 44.647a.998.998 0 0 1-.769-.359c-6.07-7.28-6.97-17.679-2.238-25.875 4.111-7.122 11.784-11.459 19.989-11.365a1 1 0 0 1 .986 1.014 1.017 1.017 0 0 1-1.014.986l-.271-.002c-7.284 0-14.311 4.047-17.959 10.367-4.247 7.356-3.407 17.059 2.041 23.594a1 1 0 0 1-.765 1.64zM33.548 25.469c-.114 0-.23-.02-.345-.062l-4.694-1.722a.999.999 0 1 1 .689-1.877l4.694 1.722a.999.999 0 0 1-.344 1.939z" fill="#ffffff" data-original="#000000"></path><path d="M33.684 28.028a2.055 2.055 0 0 1-1.56-.737c-.679-.791-.689-1.89-.023-2.67a.996.996 0 0 1 1.409-.112.998.998 0 0 1 .112 1.409.098.098 0 0 0-.015.021c.004.021.055.081.087.089a1.006 1.006 0 0 1 1.383.318.99.99 0 0 1-.318 1.37c-.338.21-.709.312-1.075.312z" fill="#ffffff" data-original="#000000"></path><path d="M32.861 26.27a1 1 0 0 1-.761-1.648c4.774-5.609 10.133-10.771 15.313-15.763l.478-.46a1 1 0 1 1 1.389 1.439l-.479.461c-5.146 4.958-10.468 10.085-15.178 15.619a1 1 0 0 1-.762.352zM33.345 22.138a.999.999 0 0 1-.898-.559l-1.007-2.047-.637-1.024a1 1 0 0 1-.022-1.01l.666-1.2c.162-.292.459-.484.793-.512l1.487-.121.154-.112-.119-.282a.996.996 0 0 1-.899-.129l-1.571-1.106-.459.086a.998.998 0 0 1-.865-.249l-.721-.668a1.013 1.013 0 0 1-.263-.397l-.359-1.009-1.339-1.119-1.548-.222a1 1 0 0 1-.857-.964l-.031-1.19a1 1 0 0 1 .974-1.026c.508.001 1.012.421 1.026.974l.009.347.993.143a.992.992 0 0 1 .498.223l1.767 1.476c.138.114.241.264.302.432l.368 1.035.171.158.38-.071a.992.992 0 0 1 .762.165l1.489 1.05.385-.141a1 1 0 0 1 1.265.552l.796 1.891a1 1 0 0 1-.334 1.197l-1.023.743a1.015 1.015 0 0 1-.507.188l-1.232.101-.123.221.376.609 1.053 2.13a1.002 1.002 0 0 1-.456 1.339 1.103 1.103 0 0 1-.444.098z" fill="#ffffff" data-original="#000000"></path><path d="M30.271 22.315a1 1 0 0 1-.057-1.998l6.483-.376c.539-.03 1.024.389 1.056.94a1 1 0 0 1-.94 1.056l-6.483.376-.059.002z" fill="#ffffff" data-original="#000000"></path><path d="M28.854 23.747a1.001 1.001 0 0 1-.711-1.704l1.418-1.432a1.001 1.001 0 0 1 1.422 1.408l-1.418 1.432a1.003 1.003 0 0 1-.711.296zM41.123 48.75a1 1 0 0 1-.98-1.204l.28-1.352c.014-.063.033-.125.058-.186l.501-1.188-.17-.937-.675-.643-1.214-.271a.999.999 0 0 1-.718-.625l-.571-1.524a.996.996 0 0 1-.063-.382l.058-1.829a.998.998 0 0 1 .385-.758l1.674-1.303 1.326-1.41a.997.997 0 0 1 .599-.307l1.216-.159.357-.396a1 1 0 0 1 .887-.319l1.662.243c.252.037.48.168.639.368l.803 1.012.82.679a.98.98 0 0 1 .251.31l.669 1.289a.981.981 0 0 1 .106.349l.174 1.543a1 1 0 0 1-.882 1.106 1.002 1.002 0 0 1-1.106-.882l-.152-1.359-.49-.943-.744-.616a.894.894 0 0 1-.146-.149l-.622-.784-.741-.108-.246.273a.99.99 0 0 1-.612.321l-1.227.161-1.135 1.206a.863.863 0 0 1-.114.104l-1.365 1.063-.036 1.162.312.833.956.214a.996.996 0 0 1 .471.251l1.112 1.058c.153.146.257.338.295.546l.281 1.551c.034.191.013.388-.063.567l-.579 1.373-.26 1.256a1.005 1.005 0 0 1-.981.796zM56.632 9.709a.999.999 0 0 1-.962-1.273c.085-.299-.069-.528-.14-.613s-.26-.274-.57-.249a1 1 0 0 1-.18-1.992 2.681 2.681 0 0 1 2.29.965c.567.685.763 1.596.523 2.437a1 1 0 0 1-.961.725z" fill="#ffffff" data-original="#000000"></path><path d="M48.586 10.118a.999.999 0 0 1-.63-1.777 12.59 12.59 0 0 1 6.825-2.76 1 1 0 1 1 .176 1.992c-2.109.188-4.096.99-5.743 2.322a.996.996 0 0 1-.628.223z" fill="#ffffff" data-original="#000000"></path><path d="M47.104 11.546a.997.997 0 0 1-.202-.021L35.306 9.142a1 1 0 1 1 .403-1.959l11.597 2.384a1 1 0 0 1-.202 1.979zM42.894 15.601a.984.984 0 0 1-.427-.096l-9.677-4.581a1.001 1.001 0 0 1 .855-1.809l9.677 4.581a1.001 1.001 0 0 1-.428 1.905z" fill="#ffffff" data-original="#000000"></path><path d="M33.219 11.02a1 1 0 0 1-.631-1.776l2.289-1.857a.999.999 0 1 1 1.26 1.552l-2.289 1.857c-.186.15-.409.224-.629.224zM12.038 58.43c-2.89 0-4.787-1.122-5.372-3.194-.921-3.264 1.188-6.934 3.371-10.094 5.206-7.534 12.071-13.658 18.101-18.655a.996.996 0 0 1 1.407.132.997.997 0 0 1-.132 1.407c-5.924 4.91-12.663 10.919-17.731 18.253-1.161 1.681-3.88 5.616-3.09 8.414.439 1.56 2.372 1.807 3.913 1.726 5.425-.259 10.858-3.162 15.652-5.725l.23-.123a1 1 0 0 1 .944 1.764l-.231.123c-4.98 2.661-10.625 5.678-16.499 5.958-.192.009-.379.014-.563.014z" fill="#ffffff" data-original="#000000"></path><path d="M31.242 31.405a.99.99 0 0 1-.479-.123 6.092 6.092 0 0 1-2.955-3.771 1 1 0 1 1 1.934-.512 4.087 4.087 0 0 0 1.98 2.528.998.998 0 0 1 .397 1.356.993.993 0 0 1-.877.522z" fill="#ffffff" data-original="#000000"></path><path d="M15.988 56.269c-1.21 0-2.404-.211-3.457-.8a3.272 3.272 0 0 1-1.404-4.11c1.701-3.874 4.506-7.2 7.232-10.275 3.029-3.419 6.436-6.469 9.664-9.301.576-.506 1.172-.992 1.768-1.479l.813-.668a1 1 0 1 1 1.277 1.539l-.826.679c-.577.471-1.154.941-1.713 1.432-3.182 2.79-6.534 5.793-9.487 9.124-2.729 3.08-5.312 6.142-6.891 9.738a1.266 1.266 0 0 0 .549 1.579c1.671.935 4.143.488 6.11-.005 3.133-.787 6.052-2.05 8.495-3.182a.996.996 0 0 1 1.327.487.999.999 0 0 1-.487 1.327c-2.526 1.171-5.555 2.479-8.849 3.307-1.255.316-2.698.608-4.121.608zM24.917 31.5a1 1 0 0 1-.959-.718l-.518-1.761-1.448-1.438a1 1 0 0 1-.282-.87l.179-1.092-.56-.731a1.003 1.003 0 0 1-.178-.845l.689-2.824-.445-.868a1.001 1.001 0 0 1-.075-.721l.751-2.739a.999.999 0 0 1 .931-.734l.093-.004-.003-1.539-.396-2.198-.771-1.026-1.251.168-1.023.663a.999.999 0 0 1-1.37-.274l-.478-.699a1.001 1.001 0 0 1 1.573-1.231l.399-.259a.986.986 0 0 1 .41-.152l2.054-.276a1 1 0 0 1 .934.391l1.266 1.685c.094.125.157.27.185.424l.453 2.52a.934.934 0 0 1 .016.175l.004 2.596a1 1 0 0 1-.966 1.001l-.324.012-.453 1.654.438.854c.109.214.139.46.082.693l-.664 2.722.531.694a1 1 0 0 1 .193.769l-.165 1.01 1.265 1.257a.997.997 0 0 1 .254.427l.59 2.007a.999.999 0 0 1-.677 1.241 1.228 1.228 0 0 1-.284.036z" fill="#ffffff" data-original="#000000"></path></g></svg>