<svg width="60" height="60" viewBox="0 0 60 60" fill="none" xmlns="http://www.w3.org/2000/svg">
<path d="M11.6468 5.80973C8.44452 5.80973 5.84032 8.4154 5.84032 11.6195C5.84032 14.8235 8.44452 17.4292 11.6468 17.4292C14.849 17.4292 17.4532 14.8235 17.4532 11.6195C17.4532 8.4154 14.849 5.80973 11.6468 5.80973ZM11.6468 15.4926C9.51194 15.4926 7.77581 13.7555 7.77581 11.6195C7.77581 9.48342 9.51194 7.74631 11.6468 7.74631C13.7816 7.74631 15.5177 9.48342 15.5177 11.6195C15.5177 13.7555 13.7816 15.4926 11.6468 15.4926Z" fill="#FF6600"/>
<path d="M54.8777 46.1603L53.5094 44.7911L46.4516 51.8528L45.2003 50.6008L43.8319 51.97L46.4516 54.5911L54.8777 46.1603Z" fill="#FF6600"/>
<path d="M32.9032 10.6173H34.8387V12.5539H32.9032V10.6173Z" fill="#FF6600"/>
<path d="M44.5161 10.6173H46.4516V12.5539H44.5161V10.6173Z" fill="#FF6600"/>
<path d="M40.6452 10.6173H42.5806V12.5539H40.6452V10.6173Z" fill="#FF6600"/>
<path d="M36.7742 10.6173H38.7097V12.5539H36.7742V10.6173Z" fill="#FF6600"/>
<path d="M22.2581 34.8245H37.7419C39.3426 34.8245 40.6452 33.5212 40.6452 31.9196V30.9513H53.2258C56.9603 30.9513 60 27.9109 60 24.1733V17.3953C60 13.6577 56.9603 10.6173 53.2258 10.6173H50.3226V9.649C50.3226 8.04745 49.02 6.74413 47.4194 6.74413H31.9355C30.3348 6.74413 29.0323 8.04745 29.0323 9.649V10.6173H23.2597V8.94408L20.7194 8.24982C20.6361 8.02711 20.5432 7.80537 20.4426 7.58654L21.75 5.29557L17.9681 1.5115L15.6794 2.81869C15.4597 2.71799 15.239 2.62503 15.0165 2.54176L14.3216 0H8.9729L8.27806 2.54176C8.05548 2.62503 7.83484 2.71702 7.61613 2.81869L5.32645 1.5115L1.54452 5.29557L2.85097 7.58654C2.75032 7.80537 2.65742 8.02711 2.57419 8.24982L0.0338709 8.94408V14.2948L2.57419 14.9901C2.65742 15.2128 2.75032 15.4345 2.85097 15.6534L1.54355 17.9443L5.32548 21.7274L7.61516 20.4202C7.83387 20.5209 8.05452 20.6139 8.2771 20.6972L8.97194 23.2389H14.3206L15.0155 20.6972C15.2371 20.6139 15.4587 20.5209 15.6784 20.4202L17.9671 21.7265L21.749 17.9434L20.4416 15.6524C20.5423 15.4336 20.6352 15.2118 20.7184 14.9891L23.2587 14.2939V12.5539H29.0323V13.5222C29.0323 15.1237 30.3348 16.427 31.9355 16.427H47.4194C49.02 16.427 50.3226 15.1237 50.3226 13.5222V12.5539H53.2258C55.8939 12.5539 58.0645 14.7257 58.0645 17.3953V24.1733C58.0645 26.8429 55.8939 29.0148 53.2258 29.0148H40.6452V28.0465C40.6452 26.4449 39.3426 25.1416 37.7419 25.1416H22.2581C20.6574 25.1416 19.3548 26.4449 19.3548 28.0465V29.0148H6.77419C3.03968 29.0148 0 32.0562 0 35.7928V43.5391C0 47.2757 3.03968 50.3171 6.77419 50.3171H9.67742V51.2854C9.67742 52.887 10.98 54.1903 12.5806 54.1903H28.0645C29.6652 54.1903 30.9677 52.887 30.9677 51.2854V50.3171H38.759C39.2497 55.7376 43.8116 60 49.3548 60C55.2242 60 60 55.2215 60 49.3488C60 43.4762 55.2242 38.6977 49.3548 38.6977C43.8116 38.6977 39.2497 42.9601 38.759 48.3805H30.9677V47.4122C30.9677 45.8107 29.6652 44.5074 28.0645 44.5074H12.5806C10.98 44.5074 9.67742 45.8107 9.67742 47.4122V48.3805H6.77419C4.10613 48.3805 1.93548 46.2087 1.93548 43.5391V35.7928C1.93548 33.1232 4.10613 30.9513 6.77419 30.9513H19.3548V31.9196C19.3548 33.5212 20.6574 34.8245 22.2581 34.8245ZM21.3242 12.8172L19.2019 13.3982L19.0461 13.9066C18.9068 14.3549 18.721 14.8013 18.4926 15.2331L18.2429 15.7037L19.3365 17.6199L17.6448 19.3135L15.7287 18.2203L15.2594 18.4691C14.8287 18.6977 14.3826 18.8836 13.9335 19.022L13.4265 19.1789L12.8448 21.3023H10.4516L9.87 19.1789L9.3629 19.022C8.91581 18.8836 8.46968 18.6986 8.0371 18.4691L7.56677 18.2203L5.65161 19.3135L3.95806 17.6199L5.05161 15.7037L4.80194 15.2331C4.57355 14.8013 4.38677 14.3549 4.24839 13.9066L4.09258 13.3982L1.97032 12.8172V10.4217L4.09258 9.84169L4.24935 9.33333C4.38774 8.88502 4.57355 8.43863 4.80194 8.00775L5.05161 7.53619L3.95806 5.61995L5.64968 3.92641L7.56484 5.01961L8.03516 4.77076C8.46968 4.54127 8.91581 4.35439 9.36097 4.2169L9.86806 4.06003L10.4497 1.93658H12.8429L13.4245 4.06003L13.9316 4.2169C14.3787 4.35536 14.8248 4.54127 15.2574 4.77076L15.7268 5.01961L17.6429 3.92641L19.3345 5.61995L18.241 7.53619L18.4906 8.00678C18.719 8.43767 18.9058 8.88405 19.0432 9.33237L19.2 9.84072L21.3223 10.4207V12.8172H21.3242ZM48.3871 13.5222C48.3871 14.0557 47.9535 14.4904 47.4194 14.4904H31.9355C31.4013 14.4904 30.9677 14.0557 30.9677 13.5222V9.649C30.9677 9.11547 31.4013 8.68071 31.9355 8.68071H47.4194C47.9535 8.68071 48.3871 9.11547 48.3871 9.649V13.5222ZM49.3548 40.6342C54.1577 40.6342 58.0645 44.5432 58.0645 49.3488C58.0645 54.1544 54.1577 58.0634 49.3548 58.0634C44.5519 58.0634 40.6452 54.1544 40.6452 49.3488C40.6452 44.5432 44.5519 40.6342 49.3548 40.6342ZM11.6129 47.4122C11.6129 46.8778 12.0465 46.444 12.5806 46.444H28.0645C28.5987 46.444 29.0323 46.8778 29.0323 47.4122V51.2854C29.0323 51.8199 28.5987 52.2537 28.0645 52.2537H12.5806C12.0465 52.2537 11.6129 51.8199 11.6129 51.2854V47.4122ZM21.2903 28.0465C21.2903 27.513 21.7239 27.0782 22.2581 27.0782H37.7419C38.2761 27.0782 38.7097 27.513 38.7097 28.0465V31.9196C38.7097 32.4541 38.2761 32.8879 37.7419 32.8879H22.2581C21.7239 32.8879 21.2903 32.4541 21.2903 31.9196V28.0465Z" fill="#FF6600"/>
<path d="M30.9677 29.0148H32.9032V30.9513H30.9677V29.0148Z" fill="#FF6600"/>
<path d="M27.0968 29.0148H29.0323V30.9513H27.0968V29.0148Z" fill="#FF6600"/>
<path d="M23.2258 29.0148H25.1613V30.9513H23.2258V29.0148Z" fill="#FF6600"/>
<path d="M34.8387 29.0148H36.7742V30.9513H34.8387V29.0148Z" fill="#FF6600"/>
<path d="M17.4194 48.3805H19.3548V50.3171H17.4194V48.3805Z" fill="#FF6600"/>
<path d="M25.1613 48.3805H27.0968V50.3171H25.1613V48.3805Z" fill="#FF6600"/>
<path d="M21.2903 48.3805H23.2258V50.3171H21.2903V48.3805Z" fill="#FF6600"/>
<path d="M13.5484 48.3805H15.4839V50.3171H13.5484V48.3805Z" fill="#FF6600"/>
</svg>
