<svg width="66" height="60" viewBox="0 0 66 60" fill="none" xmlns="http://www.w3.org/2000/svg">
<path d="M26.7177 60C26.5657 60 26.4141 59.9671 26.2731 59.9016C26.2028 59.8686 19.0378 56.414 12.1988 48.8799C8.36763 44.6595 5.38749 39.9857 3.34097 34.9889C0.794914 28.7716 -0.30479 22.0358 0.0721764 14.9684C0.098977 14.4688 0.472868 14.0567 0.967581 13.982C7.5412 12.9886 13.6539 10.4861 19.1353 6.54419C23.0249 3.74682 25.2982 1.12343 25.9023 0.386193C26.1026 0.141912 26.4018 0 26.7181 0C27.034 0 27.3337 0.141912 27.534 0.386193L27.5762 0.438037C28.7721 1.90943 33.2918 6.99145 41.2485 10.6069C41.7788 10.8477 42.013 11.4729 41.7722 12.0032C41.5314 12.5335 40.9062 12.7681 40.3759 12.5269C36.5874 10.8055 33.1072 8.58411 30.0313 5.92426C29.132 5.14616 27.8939 4.00384 26.7085 2.67128C25.5604 3.93003 23.4318 6.05167 20.3664 8.25591C17.8309 10.0792 15.1086 11.6354 12.2757 12.8806C9.03281 14.3058 5.62694 15.33 2.13978 15.9284C1.70438 27.8788 5.61112 38.4848 13.7603 47.4621C16.3797 50.3478 19.4754 53.0556 22.7126 55.2923C24.593 56.5915 26.0328 57.399 26.7195 57.7624C28.0788 57.0484 32.3546 54.6329 36.9586 50.3013C44.0524 43.6266 48.5747 35.7283 50.3989 26.8252C50.5158 26.2545 51.0738 25.8872 51.6436 26.0041C52.2143 26.1209 52.5821 26.678 52.4648 27.2488C51.4143 32.3752 49.4688 37.2595 46.6824 41.7659C44.4439 45.3866 41.6584 48.7749 38.4037 51.8372C32.5124 57.3801 27.2155 59.8765 27.1628 59.9011C27.0213 59.9671 26.8693 60 26.7177 60Z" fill="#FF6600"/>
<path d="M26.7177 53.8337C26.5657 53.8337 26.4141 53.8007 26.2731 53.7352C26.2173 53.7093 20.5373 50.9708 15.1258 45.0088C12.0934 41.6679 9.73402 37.9677 8.11368 34.0113C6.09704 29.0875 5.22624 23.7537 5.52457 18.159C5.55137 17.6594 5.92526 17.2473 6.41997 17.1726C11.5578 16.3963 16.3353 14.4403 20.6199 11.3591C23.6589 9.17328 25.4317 7.12809 25.9023 6.55297C26.1026 6.30869 26.4018 6.16678 26.7181 6.16678C27.0345 6.16678 27.3337 6.30869 27.534 6.55297L27.5771 6.60613C28.7216 8.01954 33.0528 12.8432 40.7419 15.5681C41.2907 15.7627 41.578 16.3651 41.3838 16.9143C41.1892 17.463 40.5868 17.7504 40.0376 17.5562C36.326 16.2407 32.9201 14.3269 29.9149 11.867C29.0432 11.1535 27.8477 10.0968 26.7063 8.83103C25.7626 9.84505 24.1343 11.4298 21.8519 13.0717C19.8436 14.5158 17.6877 15.7482 15.4439 16.7346C12.9308 17.8391 10.2946 18.6392 7.59524 19.1176C7.30088 28.3876 10.3575 36.6184 16.6881 43.5928C20.96 48.2987 25.3399 50.8562 26.7199 51.5956C27.9352 50.9489 31.4592 48.9173 35.1362 45.3409C40.9392 39.6974 44.4233 33.0039 45.4918 25.447C45.5735 24.8705 46.1069 24.469 46.6833 24.5507C47.2597 24.632 47.6613 25.1658 47.5796 25.7422C44.8125 45.3146 27.3394 53.6544 27.1632 53.7366C27.0213 53.8007 26.8693 53.8337 26.7177 53.8337Z" fill="#FF6600"/>
<path d="M52.3083 28.1235C48.8181 28.1235 45.5366 26.7646 43.0687 24.2976C40.6004 21.8302 39.2415 18.5495 39.2415 15.0602C39.2415 11.5708 40.6009 8.29018 43.0687 5.82277C45.5366 3.35535 48.8181 1.99687 52.3083 1.99687C55.7986 1.99687 59.0801 3.35579 61.548 5.82277C64.0163 8.29018 65.3752 11.5708 65.3752 15.0602C65.3752 18.5495 64.0158 21.8302 61.548 24.2976C59.0797 26.7646 55.7986 28.1235 52.3083 28.1235ZM52.3083 4.10533C46.2659 4.10533 41.3504 9.01951 41.3504 15.0598C41.3504 21.1 46.2663 26.0142 52.3083 26.0142C58.3504 26.0142 63.2663 21.1004 63.2663 15.0602C63.2663 9.01995 58.3504 4.10533 52.3083 4.10533Z" fill="#FF6600"/>
<path d="M48.9943 20.1624C48.7092 20.1624 48.4253 20.0473 48.218 19.8215L45.4307 16.7899C45.0366 16.3611 45.0647 15.6942 45.4931 15.3001C45.9215 14.906 46.5888 14.9341 46.9829 15.3625L49.08 17.6432L57.7229 10.2124C58.1645 9.83275 58.8301 9.88284 59.2097 10.3244C59.5893 10.7659 59.5392 11.4316 59.0977 11.8116L49.6814 19.9076C49.4824 20.0781 49.2377 20.1624 48.9943 20.1624Z" fill="#FF6600"/>
<path d="M27.2867 35.7283C24.0943 35.7283 21.4973 33.1313 21.4973 29.9389C21.4973 26.7466 24.0943 24.1496 27.2867 24.1496C30.479 24.1496 33.076 26.7466 33.076 29.9389C33.076 33.1313 30.4786 35.7283 27.2867 35.7283ZM27.2867 26.2589C25.2573 26.2589 23.6062 27.91 23.6062 29.9394C23.6062 31.9688 25.2573 33.6198 27.2867 33.6198C29.3161 33.6198 30.9671 31.9688 30.9671 29.9394C30.9671 27.91 29.3156 26.2589 27.2867 26.2589Z" fill="#FF6600"/>
<path d="M28.6135 42.7764H25.4058C24.8689 42.7764 24.4172 42.3727 24.3579 41.8389L24.0974 39.5046C23.4871 39.3011 22.8988 39.0402 22.3378 38.7234L20.554 40.1487C20.1344 40.4839 19.5299 40.4505 19.1503 40.0704L16.8819 37.8021C16.5023 37.4225 16.4684 36.8179 16.8037 36.3983L18.3045 34.5205C18.0176 33.9595 17.7852 33.3747 17.609 32.7701L15.309 32.5136C14.7752 32.4538 14.3714 32.0026 14.3714 31.4657V28.258C14.3714 27.7206 14.7752 27.2694 15.309 27.2101L17.6569 26.9482C17.848 26.331 18.0985 25.7352 18.4051 25.1658L16.9992 23.4066C16.664 22.987 16.6973 22.3825 17.0774 22.0029L19.3458 19.7345C19.7254 19.3544 20.3299 19.3211 20.7495 19.6563L22.5078 21.0613C23.1106 20.7358 23.7428 20.4744 24.3984 20.2788L24.6347 18.1616C24.6945 17.6278 25.1457 17.224 25.6826 17.224H28.8903C29.4272 17.224 29.8789 17.6278 29.9382 18.1616L30.1745 20.2788C30.8657 20.4849 31.5304 20.7643 32.1622 21.1145L33.7421 19.8518C34.1617 19.5166 34.7662 19.55 35.1458 19.93L37.4142 22.1984C37.7938 22.578 37.8277 23.183 37.4924 23.6021L36.1977 25.2225C36.5434 25.8731 36.8145 26.5568 37.0091 27.2663L38.9871 27.4869C39.5209 27.5466 39.9247 27.9979 39.9247 28.5348V31.7425C39.9247 32.2798 39.5209 32.731 38.9871 32.7903L36.8861 33.025C36.6665 33.7095 36.3747 34.3659 36.0136 34.9884L37.2969 36.5943C37.6322 37.0139 37.5988 37.6184 37.2187 37.998L34.9503 40.2664C34.5707 40.646 33.9657 40.6798 33.5466 40.3446L31.805 38.9527C31.196 39.2585 30.5603 39.5006 29.903 39.6768L29.6618 41.8393C29.6021 42.3727 29.1509 42.7764 28.6135 42.7764ZM26.3491 40.6675H27.6702L27.8899 38.6975C27.9413 38.2357 28.2893 37.8618 28.7462 37.7775C29.6759 37.6057 30.5599 37.2718 31.3727 36.7854C31.7501 36.5596 32.2285 36.5916 32.5725 36.8667L34.1261 38.1083L35.0602 37.1742L33.8968 35.7182C33.6063 35.3549 33.5883 34.8439 33.8528 34.4608C34.4108 33.6524 34.8093 32.7605 35.0378 31.8093C35.1415 31.3774 35.5048 31.0571 35.9459 31.0079L37.8154 30.7992V29.4781L36.0342 29.2795C35.5747 29.2281 35.2025 28.8836 35.1155 28.4298C34.9288 27.4544 34.5641 26.5322 34.0321 25.6899C33.7922 25.3099 33.8194 24.8196 34.0997 24.4685L35.2557 23.0222L34.3216 22.0881L32.9047 23.2208C32.5479 23.5059 32.0475 23.5288 31.6662 23.2774C30.8446 22.7362 29.9421 22.3561 28.9839 22.1487C28.5415 22.053 28.2093 21.6852 28.1592 21.2353L27.947 19.3334H26.6259L26.4137 21.2353C26.3636 21.6852 26.0314 22.053 25.589 22.1487C24.6624 22.3495 23.7868 22.712 22.9863 23.2256C22.6054 23.4699 22.1115 23.4444 21.7583 23.1619L20.1696 21.8922L19.2355 22.8262L20.5057 24.4154C20.7877 24.7686 20.8137 25.2624 20.5698 25.6429C20.0747 26.4153 19.7197 27.2593 19.5154 28.1512C19.4152 28.5884 19.0501 28.9139 18.6046 28.964L16.4803 29.2013V30.5224L18.5699 30.7557C19.0224 30.8062 19.3915 31.1414 19.4851 31.587C19.67 32.4683 20.0022 33.3066 20.4714 34.0777C20.7016 34.4559 20.6709 34.9379 20.3945 35.2841L19.0404 36.9787L19.9745 37.9128L21.6005 36.6132C21.9599 36.3258 22.4648 36.3047 22.847 36.5618C23.6071 37.0727 24.4414 37.4449 25.3258 37.6685C25.752 37.7761 26.0666 38.1369 26.1154 38.574L26.3491 40.6675Z" fill="#FF6600"/>
</svg>
