<svg width="54" height="60" viewBox="0 0 54 60" fill="none" xmlns="http://www.w3.org/2000/svg">
<path fill-rule="evenodd" clip-rule="evenodd" d="M33.2775 37.1009C33.4201 37.432 33.7349 37.6564 34.0944 37.6831C34.1186 37.6849 34.1426 37.6858 34.1666 37.6858C34.4995 37.6858 34.8114 37.5141 34.9888 37.2283L37.3336 33.4497L41.69 34.3419C42.0436 34.414 42.4074 34.2842 42.6349 34.0046C42.8625 33.725 42.9157 33.342 42.7732 33.0109L39.5378 25.499C39.6368 25.4571 39.738 25.4139 39.8447 25.3683C41.5132 24.6538 42.4893 22.9628 42.274 21.1607C42.2339 20.826 42.1965 20.5282 42.163 20.2608C42.0286 19.1884 41.961 18.6501 42.0336 18.2388C42.1062 17.8274 42.3537 17.3446 42.8469 16.3829C42.9699 16.143 43.1068 15.876 43.2589 15.5751C44.0778 13.9552 43.7387 12.0324 42.4152 10.7905C42.1696 10.5598 41.9494 10.3557 41.752 10.1723C40.9595 9.43728 40.5617 9.06832 40.353 8.70661C40.1441 8.3449 40.0235 7.81601 39.7831 6.76234C39.7231 6.49959 39.6563 6.20684 39.5794 5.87852C39.1654 4.11135 37.6697 2.85639 35.8576 2.75562C35.521 2.73686 35.2213 2.72198 34.9521 2.70856C33.8725 2.65485 33.3307 2.62787 32.9383 2.485C32.5458 2.34213 32.1135 2.01454 31.2519 1.36177C31.0372 1.19894 30.7978 1.01773 30.528 0.815702C29.0749 -0.27184 27.1226 -0.271961 25.6695 0.815702C25.3998 1.01773 25.1603 1.19894 24.9456 1.36177C24.0841 2.01454 23.6517 2.34213 23.2593 2.485C22.8668 2.62787 22.3249 2.65485 21.2454 2.70856C20.9762 2.72198 20.6765 2.73686 20.34 2.75562C18.5278 2.85639 17.032 4.11147 16.6181 5.87852C16.5412 6.20684 16.4744 6.49947 16.4144 6.76234C16.174 7.81601 16.0534 8.34503 15.8445 8.70661C15.6357 9.06832 15.238 9.43728 14.4456 10.1723C14.248 10.3557 14.028 10.5598 13.7823 10.7905C12.459 12.0325 12.1198 13.9554 12.9385 15.5752C13.0906 15.8759 13.2275 16.1429 13.3504 16.3827C13.8436 17.3445 14.0913 17.8273 14.1638 18.2386C14.2364 18.6498 14.1688 19.1881 14.0344 20.2604C14.0009 20.5279 13.9635 20.8259 13.9235 21.1607C13.7081 22.9628 14.6843 24.6538 16.3527 25.3683C16.6626 25.501 16.9392 25.6176 17.1875 25.7222C17.263 25.754 17.3346 25.7843 17.4046 25.8138L13.4358 34.338C13.2836 34.6649 13.3259 35.0491 13.5451 35.3353C13.7644 35.6214 14.1245 35.7623 14.4798 35.6998L18.8606 34.9344L21.0948 38.7793C21.2687 39.0782 21.5878 39.2607 21.9315 39.2607C21.946 39.2607 21.9607 39.2604 21.9754 39.2598C22.3356 39.2434 22.6568 39.0282 22.809 38.7015L26.7586 30.2178C27.3923 30.0274 27.7764 29.9315 28.099 29.9315C28.5166 29.9315 29.0351 30.0914 30.068 30.4101C30.1875 30.447 30.314 30.4861 30.4467 30.5268L33.2775 37.1009ZM37.061 31.4181C36.664 31.3369 36.2582 31.5116 36.0445 31.8559L34.3217 34.6322L32.677 30.8132C33.8059 30.6566 34.8391 30.024 35.4996 29.0139C35.6841 28.7317 35.8469 28.4796 35.9932 28.2531C36.5795 27.3451 36.8737 26.8894 37.1937 26.6208C37.3373 26.5003 37.5177 26.3914 37.7623 26.2701L40.2618 32.0735L37.061 31.4181ZM21.836 36.2036L20.1946 33.3787C19.9908 33.0282 19.5904 32.8421 19.1912 32.9116L15.9726 33.4739L19.1152 26.7241C19.396 27.0031 19.6861 27.4519 20.2035 28.2532C20.3498 28.4797 20.5126 28.7318 20.6971 29.0139C21.5136 30.2627 22.8991 30.9354 24.3314 30.8437L21.836 36.2036ZM28.0983 27.9949C27.4397 27.9949 26.7809 28.1835 25.5586 28.5607C25.3042 28.6392 25.0211 28.7266 24.7025 28.8229C23.781 29.1011 22.8442 28.7607 22.3169 27.9545C22.1346 27.6759 21.9738 27.4268 21.8295 27.2033C20.4416 25.0541 20.2962 24.9322 17.9385 23.9386C17.6933 23.8353 17.4202 23.7201 17.1141 23.589C16.2287 23.2098 15.7304 22.3467 15.8447 21.3903C15.8843 21.0597 15.9212 20.7654 15.9543 20.5013C16.2726 17.9631 16.2396 17.776 15.0721 15.4993C14.9506 15.2625 14.8155 14.9989 14.6654 14.7019C14.2309 13.8423 14.404 12.8609 15.1063 12.2017C15.3491 11.974 15.5664 11.7724 15.7615 11.5913C17.6372 9.85137 17.732 9.68697 18.3011 7.19288C18.3602 6.93328 18.4262 6.64427 18.5021 6.31995C18.7217 5.38217 19.4852 4.74162 20.4469 4.68815C20.7793 4.66964 21.0754 4.65488 21.3413 4.6417C23.8964 4.51443 24.075 4.44947 26.1141 2.90453C26.3263 2.74376 26.5625 2.56472 26.829 2.36524C27.6002 1.78808 28.5966 1.78808 29.3678 2.36524C29.6343 2.56472 29.8705 2.74376 30.0827 2.90453C32.1218 4.44947 32.3004 4.51443 34.8556 4.6417C35.1213 4.65488 35.4175 4.66964 35.7499 4.68815C36.7116 4.74162 37.475 5.38217 37.6947 6.31995C37.7706 6.64415 37.8366 6.93316 37.8957 7.19276C38.4648 9.68685 38.5596 9.85137 40.4353 11.5912C40.6304 11.7723 40.8477 11.9738 41.0905 12.2016C41.7928 12.8608 41.9657 13.8421 41.5313 14.7018C41.3812 14.9989 41.2459 15.2627 41.1244 15.4996C39.9571 17.776 39.9241 17.9631 40.2425 20.5015C40.2755 20.7656 40.3125 21.0597 40.3519 21.3902C40.4663 22.3466 39.968 23.2098 39.0826 23.5889C38.7765 23.7199 38.5034 23.8351 38.2582 23.9385C35.9006 24.932 35.7552 25.0541 34.3673 27.2032C34.223 27.4268 34.0622 27.6758 33.8799 27.9545C33.3528 28.7606 32.4168 29.1016 31.4943 28.8229C31.1757 28.7266 30.8925 28.6391 30.6382 28.5607C29.4157 28.1835 28.7569 27.9949 28.0983 27.9949ZM37.7031 15.4257C37.7031 10.1295 33.3945 5.82081 28.0983 5.82081C22.8022 5.82081 18.4936 10.1295 18.4936 15.4257C18.4936 20.7218 22.8022 25.0306 28.0983 25.0306C33.3943 25.0306 37.7031 20.722 37.7031 15.4257ZM28.0982 23.0951C23.8693 23.0951 20.429 19.6546 20.429 15.4257C20.429 11.1968 23.8693 7.75637 28.0982 7.75637C32.327 7.75637 35.7675 11.1968 35.7675 15.4257C35.7676 19.6546 32.327 23.0951 28.0982 23.0951ZM33.4134 13.1438L26.8048 19.1412C26.62 19.309 26.3871 19.3923 26.1546 19.3923C25.9064 19.3923 25.6586 19.2974 25.4702 19.1089L22.7492 16.388C22.3713 16.0101 22.3713 15.3974 22.7492 15.0194C23.1273 14.6415 23.7399 14.6415 24.1179 15.0194L26.1869 17.0884L32.1128 11.7106C32.5085 11.3516 33.1206 11.3811 33.4797 11.7769C33.8389 12.1725 33.8093 12.7846 33.4134 13.1438ZM51.7861 44.8526C53.0618 43.5772 53.7096 41.9681 53.6596 40.1994L53.1883 23.5617C53.1419 21.9187 51.5085 20.4466 49.7473 20.4466C49.7303 20.4466 49.7135 20.4467 49.6967 20.447C48.8374 20.4608 46.0358 20.9236 46.0562 26.3012L46.0906 35.3389C46.0915 35.5456 46.0784 35.7462 46.0516 35.9419C45.9833 35.8603 45.9103 35.7806 45.8324 35.7027C44.6379 34.5083 42.6818 34.4932 41.3789 35.6682C41.3465 35.6974 41.316 35.7287 41.2879 35.762C39.8301 37.4856 38.0388 38.9953 36.5994 40.2083C36.0946 40.6338 35.6179 41.0355 35.2265 41.3883C33.585 42.8678 33.3659 44.9063 33.3681 46.7051L33.3758 53.1416L32.5412 53.1345C31.9762 53.1293 31.4437 53.3457 31.0396 53.7427C30.6356 54.1399 30.4103 54.6695 30.4055 55.2338L30.3838 57.7515C30.379 58.3158 30.595 58.8492 30.9922 59.2532C31.3892 59.6573 31.9188 59.8824 32.4832 59.8873L45.5622 59.9996C45.5684 59.9996 45.5746 59.9998 45.5807 59.9998C46.1382 59.9998 46.6643 59.7841 47.0639 59.3913C47.4679 58.9941 47.693 58.4646 47.6979 57.9003L47.7195 55.3826C47.7244 54.8183 47.5083 54.2849 47.1112 53.8809C46.7141 53.4768 46.1845 53.2517 45.6202 53.2468L44.5441 53.2376V52.0946L51.7861 44.8526ZM45.784 55.366L45.7623 57.8837C45.7618 57.9444 45.7319 57.9865 45.7069 58.0111C45.682 58.0358 45.643 58.0646 45.5787 58.0643L32.4996 57.9519C32.439 57.9515 32.3969 57.9216 32.3724 57.8965C32.3478 57.8715 32.3186 57.829 32.3193 57.7683L32.3409 55.2506C32.3414 55.1899 32.3713 55.1478 32.3963 55.1232C32.421 55.0989 32.4631 55.07 32.5227 55.07H32.5245L45.6036 55.1824C45.7023 55.1834 45.7849 55.2673 45.784 55.366ZM35.3114 53.1584L35.3036 46.703C35.3012 44.7317 35.6543 43.6086 36.5224 42.8262C36.8898 42.4949 37.3332 42.1212 37.8466 41.6886C39.3263 40.4414 41.1645 38.8924 42.7179 37.0685C43.2612 36.6128 44.0029 36.6107 44.4637 37.0715C44.9541 37.5618 44.9547 38.1451 44.4678 38.8054C43.6983 39.6703 42.8892 40.4539 42.0331 41.2823C41.6222 41.6801 41.1971 42.0914 40.7683 42.5202C40.3904 42.8981 40.3904 43.5109 40.7685 43.8888C40.9574 44.0777 41.2049 44.1722 41.4527 44.1722C41.7004 44.1722 41.9482 44.0777 42.137 43.8887C42.5545 43.4712 42.9737 43.0654 43.3792 42.6731C44.2736 41.8076 45.1184 40.99 45.9459 40.0564C45.9503 40.0514 46.5941 39.2639 46.5941 39.2639C47.5632 38.0709 48.0316 36.7845 48.0262 35.3318L47.9917 26.2939C47.9826 23.8986 48.6479 22.3997 49.7277 22.3824C49.7343 22.3823 49.7407 22.3823 49.7473 22.3823C50.466 22.3823 51.2364 23.0108 51.2535 23.6166L51.7248 40.2543C51.7599 41.495 51.32 42.5817 50.4175 43.484L42.892 51.0095C42.7105 51.1909 42.6086 51.4371 42.6086 51.6937V53.2211L35.3114 53.1584ZM33.2719 56.2349C33.4315 55.8333 33.8865 55.6373 34.288 55.7969C34.6895 55.9565 34.8856 56.4115 34.726 56.813C34.5663 57.2145 34.1115 57.4106 33.71 57.2509C33.3083 57.0912 33.1122 56.6364 33.2719 56.2349ZM22.6226 53.7429C22.2185 53.3457 21.6848 53.1303 21.1208 53.1347L20.2864 53.1418L20.2941 46.7054C20.2963 44.9064 20.0772 42.8679 18.4357 41.3885C18.0445 41.0356 17.5676 40.634 17.0629 40.2087C15.6236 38.9956 13.8323 37.4858 12.3744 35.7622C12.3463 35.7289 12.316 35.6976 12.2836 35.6685C10.9801 34.4935 9.02384 34.5087 7.82996 35.7029C7.75194 35.7808 7.67899 35.8606 7.61076 35.9421C7.58378 35.7465 7.57084 35.5459 7.57169 35.3393L7.60617 26.3013C7.62649 20.9237 4.82489 20.461 3.96562 20.4471C3.94869 20.4469 3.93211 20.4467 3.91505 20.4467C2.15382 20.4467 0.520327 21.919 0.473995 23.5618L0.00268623 40.1996C-0.0472754 41.9683 0.600532 43.5773 1.87607 44.8527L9.11808 52.0948V53.2379L8.04203 53.2471C7.47769 53.2519 6.94808 53.477 6.55104 53.8811C6.15389 54.2851 5.93783 54.8185 5.94267 55.3828L5.96433 57.9005C5.96917 58.4649 6.1943 58.9944 6.59834 59.3915C6.99792 59.7843 7.5239 60 8.08147 60C8.08764 60 8.09393 60 8.09997 59.9999L21.179 59.8875C21.7434 59.8827 22.273 59.6575 22.67 59.2535C23.0672 58.8494 23.2832 58.3161 23.2784 57.7517L23.2567 55.2341C23.252 54.6697 23.0266 54.1401 22.6226 53.7429ZM11.0536 51.6937C11.0536 51.437 10.9517 51.1909 10.7702 51.0095L3.24463 43.4839C2.34217 42.5815 1.90232 41.495 1.9374 40.2543L2.40871 23.6165C2.42601 23.0051 3.21535 22.3719 3.93453 22.3824C5.01433 22.3997 5.67956 23.8986 5.67049 26.2938L5.63601 35.3318C5.63056 36.7845 6.09897 38.0707 7.06977 39.2659L7.69109 40.0266C7.69532 40.0318 7.71202 40.0514 7.71637 40.0564C8.54394 40.99 9.38869 41.8076 10.2832 42.6731C10.6887 43.0656 11.1077 43.4712 11.5253 43.8887C11.7143 44.0776 11.9619 44.1722 12.2096 44.1722C12.4573 44.1722 12.705 44.0777 12.8939 43.8888C13.2719 43.5109 13.2719 42.8981 12.894 42.5202C12.4653 42.0915 12.0402 41.6801 11.6292 41.2823C10.7731 40.4538 9.96404 39.6703 9.19453 38.8054C8.70774 38.1452 8.70822 37.5619 9.19865 37.0716C9.65967 36.6107 10.4011 36.6128 10.9445 37.0685C12.4978 38.8925 14.3359 40.4415 15.8158 41.6888C16.3291 42.1215 16.7725 42.4951 17.14 42.8264C18.008 43.6086 18.3611 44.7318 18.3587 46.7031L18.3509 53.1585L11.0538 53.2212L11.0536 51.6937ZM21.2897 57.8967C21.2652 57.9217 21.2231 57.9516 21.1625 57.9521L8.0834 58.0644C8.02158 58.0646 7.98009 58.0359 7.95517 58.0112C7.93013 57.9867 7.90025 57.9447 7.89977 57.8838L7.87811 55.3662C7.87751 55.3054 7.90666 55.2628 7.93122 55.2379C7.95578 55.213 7.99787 55.183 8.05848 55.1825L21.1374 55.0701H21.1392C21.199 55.0701 21.2411 55.099 21.2658 55.1234C21.2908 55.1479 21.3207 55.19 21.3212 55.2507L21.3428 57.7684C21.3434 57.8292 21.3143 57.8716 21.2897 57.8967ZM20.3903 56.2349C20.55 56.6364 20.3539 57.0912 19.9524 57.2509C19.5509 57.4106 19.0959 57.2145 18.9363 56.813C18.7766 56.4115 18.9727 55.9566 19.3742 55.7969C19.7757 55.6373 20.2306 55.8333 20.3903 56.2349Z" fill="#FF6600"/>
</svg>
