<svg width="58" height="55" viewBox="0 0 58 55" fill="none" xmlns="http://www.w3.org/2000/svg">
<path d="M57.148 25.1882C53.7187 23.4824 50.5471 21.3013 47.7269 18.7096C49.1776 13.2172 50.2541 7.63271 50.9493 1.99463C51.1597 1.24633 50.8132 0.453423 50.1211 0.0995921C49.4589 -0.154901 48.709 0.0914408 48.3267 0.689073C43.341 6.65279 36.5015 5.96793 29.2646 5.24615C22.6969 4.58902 15.9446 3.9346 10.5744 8.44693C10.219 5.86758 8.04632 3.92609 5.44338 3.86187C2.84044 3.79765 0.574661 5.62963 0.0924539 8.18832C-0.389753 10.747 1.05378 13.278 3.50154 14.1657L14.3383 52.9621C14.5374 53.6749 15.0116 54.2792 15.6566 54.642C16.3015 55.0048 17.0643 55.0962 17.7767 54.8962L18.6506 54.6461C19.3605 54.4485 19.9627 53.9766 20.3242 53.3344C20.6858 52.6923 20.777 51.9327 20.5777 51.2233L17.1448 38.9259C22.1596 32.5017 29.1487 33.1828 36.5481 33.9223C43.9681 34.6621 51.6427 35.4298 57.2853 28.6819L57.2881 28.6786C57.8508 27.9775 58.0826 27.0672 57.9238 26.1824C57.8386 25.7462 57.5504 25.3769 57.148 25.1882ZM1.93323 9.17625C1.93323 7.30827 3.44753 5.79398 5.3155 5.79398C7.18348 5.79398 8.69777 7.30827 8.69777 9.17625C8.69512 9.79296 8.52209 10.3969 8.19778 10.9215C8.07476 11.0779 7.94652 11.2162 7.82582 11.3803C7.81179 11.4086 7.79924 11.4377 7.78823 11.4673C6.84698 12.4927 5.37229 12.8343 4.07606 12.3271C2.77983 11.8199 1.92858 10.5682 1.93323 9.17625ZM18.6403 52.3866C18.5289 52.5836 18.3431 52.7277 18.1245 52.7866L17.2507 53.0367C16.7963 53.1607 16.327 52.8948 16.1998 52.4413L5.59575 14.4771C6.47868 14.4318 7.33604 14.1651 8.08896 13.7017L15.1489 38.9674L15.1521 38.9746L18.7166 51.7438C18.7777 51.9597 18.7502 52.191 18.6403 52.3866ZM55.8009 27.4442C50.8157 33.4052 43.9797 32.7223 36.7403 31.999C29.5312 31.2785 22.0916 30.5355 16.5111 36.6569C14.6932 30.1629 12.8785 23.6676 11.067 17.1709L9.68047 12.201C9.73777 12.1186 9.78986 12.0329 9.84252 11.9472C14.8454 5.75909 21.7609 6.4398 29.0726 7.16921C36.0679 7.8675 43.2891 8.58976 48.8722 2.96157C48.1912 8.11616 47.1817 13.222 45.8499 18.2479C45.6572 18.9242 45.8705 19.6511 46.3982 20.116C49.2992 22.7693 52.544 25.0203 56.0453 26.8083C56.0211 27.038 55.9368 27.2573 55.8009 27.4442Z" fill="#FF6600"/>
</svg>
