<svg width="56" height="60" viewBox="0 0 56 60" fill="none" xmlns="http://www.w3.org/2000/svg">
<path fill-rule="evenodd" clip-rule="evenodd" d="M53.1243 21.5359V21.5124C54.6524 22.7405 54.6524 22.7484 53.1243 21.5359ZM2.26027 41.6402V41.6167C0.740159 42.837 0.740159 42.8449 2.26027 41.6402ZM8.19746 60L11.564 57.4185V60H8.19746ZM2.26027 59.1317C1.64745 59.6167 1.28135 59.9061 1.16197 60H2.24435L2.26027 59.1317C3.80426 57.9035 6.9002 55.4316 11.564 51.708V48.6728C6.7649 52.3494 3.05614 55.1969 0.437729 57.2073V59.8983L0.501398 59.9922H1.15401C1.26543 59.8983 1.63153 59.601 2.26027 59.1004V59.1317ZM2.26027 50.3859C0.740159 51.5906 0.740159 51.5906 2.26027 50.3625V50.3859ZM11.564 42.9622C6.9002 46.6858 3.7963 49.1578 2.26027 50.3859L2.21252 53.867L0.437729 51.1525V48.4615C3.04818 46.4511 6.75694 43.6036 11.564 39.927V42.9622ZM13.3627 60V23.6402L1.92601 32.8631V36.0469L0 33.395V30.6884L13.8004 20.0965L26.6855 35.9687V59.9922H13.3627V60ZM11.564 34.2164C6.9002 37.94 3.7963 40.412 2.26027 41.6402L2.21252 45.1213L0.437729 42.4068V39.7158C3.05614 37.7053 6.7649 34.8657 11.564 31.1812V34.2164ZM27.37 33.6063V2.71447L33.8643 6.39896V7.40026L35.8778 5.42112V4.95176L27.3302 0.0938722L19.6341 8.88657V24.133L27.37 33.6063ZM53.1243 56.5189V56.4954C54.6524 57.7158 54.6524 57.7236 53.1243 56.5189ZM43.8206 49.0952C48.4844 52.8188 51.5883 55.2907 53.1243 56.5189L53.1721 60L54.9389 57.2934V54.6023C52.3285 52.5919 48.6197 49.7445 43.8206 46.06V49.0952ZM53.1243 47.7731V47.7497C54.6524 48.97 54.6524 48.9778 53.1243 47.7731ZM43.8206 40.3494V37.3142C48.6197 40.9987 52.3285 43.8462 54.9389 45.8566V48.5476L53.1721 51.2542L53.1243 47.7731C51.5883 46.545 48.4844 44.073 43.8206 40.3494ZM53.1243 39.0274C54.6445 40.2321 54.6445 40.2321 53.1243 39.0039V39.0274ZM43.8206 31.6037C48.4844 35.3272 51.5883 37.7992 53.1243 39.0274L53.1721 42.5085L54.9389 39.8018V37.1108C52.3285 35.1004 48.6197 32.2529 43.8206 28.5763V31.6037ZM53.1243 30.2816V30.2581C54.6524 31.4863 54.6524 31.4941 53.1243 30.2816ZM43.8206 22.8579C48.4844 26.5815 51.5883 29.0535 53.1243 30.2816L53.1721 33.7627L54.9389 31.0561V28.3651C52.3285 26.3546 48.6197 23.5072 43.8206 19.8227V22.8579ZM42.0219 60V3.54368L53.4586 12.7666V15.9505L55.3846 13.3064V10.5997L41.5842 0L28.6911 15.8722V60H42.0219ZM43.8206 14.1121C48.4844 17.8357 51.5883 20.3077 53.1243 21.5359L53.1721 25.0169L54.9389 22.3025V19.6115C52.3285 17.601 48.6197 14.7536 43.8206 11.0691V14.1121Z" fill="#FF6600"/>
</svg>
