<svg width="70" height="65" viewBox="0 0 70 65" fill="none" xmlns="http://www.w3.org/2000/svg">
<circle cx="30" cy="30" r="30" fill="#FF6600" fill-opacity="0.1"/>
<circle cx="40" cy="35" r="30" fill="white"/>
<path d="M53.7735 49.5353L49.9117 39.1416C50.2933 38.9081 50.6249 38.5982 50.8868 38.2305C51.1682 37.8347 51.3607 37.3802 51.4508 36.8994C51.5409 36.4186 51.5263 35.9234 51.408 35.4491C51.308 35.0343 51.3248 34.5991 51.4565 34.1937C51.5882 33.7883 51.8293 33.4294 52.152 33.1585C52.5255 32.8451 52.8264 32.4507 53.0327 32.0037C53.2391 31.5566 53.3458 31.0683 53.3452 30.5739C53.3446 30.0795 53.2367 29.5914 53.0292 29.1449C52.8218 28.6985 52.52 28.3047 52.1457 27.9923C51.8242 27.7203 51.5844 27.3608 51.4542 26.9552C51.324 26.5496 51.3086 26.1145 51.4098 25.7004C51.5271 25.2269 51.5411 24.7327 51.4508 24.253C51.3604 23.7734 51.1679 23.32 50.887 22.9251C50.5989 22.5194 50.2271 22.1838 49.7978 21.9421C49.3686 21.7004 48.8925 21.5585 48.4036 21.5266C47.983 21.4977 47.5785 21.3495 47.2355 21.0986C46.8925 20.8478 46.6244 20.5042 46.4612 20.1063C46.2785 19.6508 46.0009 19.2416 45.6479 18.9072C45.2948 18.5729 44.8747 18.3214 44.4168 18.1703C43.9525 18.0149 43.4606 17.965 42.9754 18.0241C42.4903 18.0833 42.0236 18.25 41.6079 18.5127C41.2454 18.7394 40.8288 18.8593 40.404 18.8593C39.9792 18.8593 39.5626 18.7394 39.2001 18.5127C38.7844 18.25 38.3177 18.0832 37.8325 18.0241C37.3474 17.965 36.8555 18.0149 36.3911 18.1703C35.9335 18.3215 35.5135 18.573 35.1606 18.9074C34.8076 19.2418 34.5302 19.6509 34.3475 20.1063C34.1839 20.5049 33.915 20.849 33.571 21.1C33.227 21.3509 32.8215 21.4988 32.3999 21.5271C31.9119 21.5595 31.4368 21.7016 31.0084 21.9433C30.5801 22.185 30.2091 22.5203 29.9217 22.9255C29.6404 23.3213 29.4478 23.7759 29.3577 24.2566C29.2676 24.7374 29.2822 25.2326 29.4005 25.7069C29.5005 26.1217 29.4837 26.557 29.352 26.9623C29.2203 27.3677 28.9792 27.7266 28.6565 27.9975C28.283 28.3109 27.9822 28.7054 27.7758 29.1524C27.5695 29.5994 27.4627 30.0878 27.4633 30.5822C27.4639 31.0766 27.5718 31.5646 27.7793 32.0111C27.9867 32.4576 28.2885 32.8513 28.6628 33.1637C28.9843 33.4357 29.224 33.7952 29.3543 34.2008C29.4845 34.6063 29.4999 35.0413 29.3987 35.4555C29.2814 35.929 29.2674 36.4232 29.3578 36.9028C29.4481 37.3825 29.6406 37.8359 29.9215 38.2308C30.1835 38.5983 30.5152 38.908 30.8967 39.1413L27.035 49.5353C26.9986 49.633 26.9904 49.7394 27.0113 49.8417C27.0322 49.9441 27.0813 50.0382 27.1529 50.1128C27.2245 50.1875 27.3154 50.2395 27.415 50.2628C27.5146 50.2861 27.6187 50.2796 27.7148 50.2442L31.921 48.6966L34.0585 52.7145C34.1044 52.8009 34.1722 52.873 34.2547 52.9232C34.3372 52.9735 34.4315 53 34.5275 53C34.5396 53 34.5515 52.9995 34.5635 52.9987C34.6655 52.9916 34.7633 52.9548 34.8454 52.8926C34.9275 52.8303 34.9905 52.7453 35.0268 52.6475L38.6424 42.9218C38.8365 42.8467 39.0234 42.7533 39.2007 42.6429C39.5631 42.4163 39.9796 42.2965 40.4043 42.2965C40.8289 42.2965 41.2454 42.4163 41.6079 42.6429L41.6084 42.6432C41.7852 42.7521 41.9715 42.8441 42.1648 42.9181L45.7817 52.647C45.818 52.7448 45.881 52.8298 45.9631 52.8921C46.0452 52.9543 46.143 52.9911 46.245 52.9982C46.257 52.999 46.269 52.9995 46.281 52.9995C46.377 52.9995 46.4713 52.973 46.5538 52.9227C46.6364 52.8725 46.7041 52.8004 46.75 52.714L48.8875 48.6961L53.0937 50.2437C53.1898 50.2792 53.2939 50.2856 53.3935 50.2623C53.4931 50.239 53.5841 50.187 53.6556 50.1123C53.7272 50.0377 53.7763 49.9436 53.7972 49.8413C53.8181 49.7389 53.8099 49.633 53.7735 49.5353ZM34.4415 51.1473L32.6405 47.7622C32.5794 47.6476 32.4805 47.5592 32.3614 47.5128C32.2423 47.4663 32.1109 47.465 31.9909 47.509L28.4463 48.813L31.889 39.5476C32.0588 39.5883 32.2313 39.6156 32.4051 39.6292C32.8257 39.6582 33.2302 39.8064 33.5732 40.0572C33.9163 40.3081 34.1844 40.6516 34.3475 41.0495C34.5302 41.505 34.8077 41.9142 35.1608 42.2485C35.5138 42.5829 35.9339 42.8344 36.3917 42.9855C36.7218 43.0946 37.0664 43.151 37.4134 43.1527L34.4415 51.1473ZM38.6387 41.7124C38.3551 41.8917 38.0367 42.0054 37.7057 42.0457C37.3748 42.0859 37.0392 42.0517 36.7224 41.9455C36.4123 41.8434 36.1276 41.6733 35.8883 41.447C35.649 41.2208 35.4607 40.9438 35.3367 40.6354C35.0967 40.048 34.7016 39.5405 34.1957 39.17C33.6898 38.7995 33.0931 38.5805 32.4724 38.5377C32.1406 38.5159 31.8175 38.4195 31.5262 38.2554C31.2348 38.0914 30.9823 37.8636 30.7867 37.5883C30.5975 37.3222 30.468 37.0165 30.4075 36.6932C30.347 36.3699 30.357 36.0369 30.4367 35.718C30.5856 35.1024 30.5614 34.4562 30.3668 33.8541C30.1722 33.2519 29.8151 32.7185 29.3369 32.3153C29.0848 32.1044 28.8817 31.8388 28.7424 31.5376C28.6032 31.2363 28.5312 30.9071 28.5318 30.5739C28.5324 30.2406 28.6055 29.9117 28.7459 29.611C28.8862 29.3103 29.0903 29.0454 29.3431 28.8356C29.8202 28.4314 30.1759 27.8973 30.3691 27.295C30.5624 26.6928 30.5853 26.0468 30.4352 25.4318C30.3564 25.1137 30.347 24.7817 30.4078 24.4595C30.4686 24.1372 30.598 23.8327 30.7868 23.5674C30.9832 23.2916 31.2366 23.0634 31.529 22.8993C31.8214 22.7351 32.1455 22.639 32.4783 22.6178C33.098 22.5741 33.6936 22.3548 34.1984 21.9844C34.7032 21.6139 35.0974 21.107 35.3368 20.5203C35.4607 20.2119 35.6489 19.9349 35.8883 19.7087C36.1276 19.4825 36.4123 19.3124 36.7225 19.2105C37.0394 19.1044 37.375 19.0702 37.7061 19.1105C38.0371 19.1508 38.3556 19.2644 38.6394 19.4436C39.171 19.7759 39.7818 19.9517 40.4046 19.9517C41.0275 19.9517 41.6383 19.7759 42.1699 19.4436C42.4535 19.2645 42.7719 19.1508 43.1029 19.1106C43.4339 19.0703 43.7694 19.1044 44.0862 19.2105C44.3963 19.3126 44.681 19.4827 44.9203 19.709C45.1597 19.9352 45.3479 20.2122 45.4719 20.5206C45.7119 21.1081 46.107 21.6155 46.6129 21.986C47.1188 22.3565 47.7155 22.5755 48.3362 22.6184C48.668 22.6402 48.9911 22.7365 49.2825 22.9006C49.5738 23.0647 49.8263 23.2924 50.0219 23.5677C50.2111 23.8339 50.3406 24.1395 50.4011 24.4628C50.4616 24.7861 50.4517 25.1191 50.3719 25.438C50.223 26.0536 50.2472 26.6998 50.4418 27.302C50.6364 27.9041 50.9935 28.4376 51.4717 28.8408C51.7239 29.0516 51.9269 29.3173 52.0662 29.6185C52.2055 29.9197 52.2774 30.2489 52.2768 30.5821C52.2762 30.9154 52.2031 31.2443 52.0627 31.545C51.9224 31.8457 51.7184 32.1106 51.4655 32.3205C50.9884 32.7246 50.6327 33.2586 50.4395 33.8609C50.2462 34.4631 50.2233 35.1091 50.3733 35.7241C50.4521 36.0422 50.4615 36.3742 50.4007 36.6964C50.3399 37.0187 50.2105 37.3232 50.0217 37.5884C49.8253 37.8643 49.5719 38.0925 49.2795 38.2566C48.9872 38.4207 48.663 38.5168 48.3302 38.538C47.7105 38.5817 47.115 38.8011 46.6101 39.1715C46.1053 39.5419 45.7111 40.0489 45.4717 40.6355C45.3478 40.944 45.1596 41.221 44.9202 41.4472C44.6809 41.6734 44.3962 41.8434 44.086 41.9453C43.7692 42.0518 43.4335 42.0861 43.1024 42.0459C42.7713 42.0056 42.4528 41.8917 42.1691 41.7122C41.6376 41.38 41.0268 41.2042 40.4039 41.2043C39.7811 41.2043 39.1703 41.3801 38.6387 41.7124ZM48.8176 47.5088C48.6976 47.4647 48.5662 47.466 48.4471 47.5125C48.328 47.5589 48.229 47.6474 48.1681 47.7619L46.3671 51.1471L43.3956 43.154C43.7424 43.1519 44.0869 43.0952 44.4168 42.9858C44.8747 42.8346 45.2948 42.5831 45.6479 42.2487C46.0011 41.9143 46.2787 41.505 46.4615 41.0495C46.625 40.6509 46.8937 40.3067 47.2377 40.0557C47.5816 39.8048 47.9871 39.6569 48.4086 39.6288C48.5807 39.6153 48.7516 39.5882 48.9197 39.548L52.3622 48.8128L48.8176 47.5088Z" fill="#FF6600"/>
<path d="M48.418 30.5779C48.418 28.9555 47.948 27.3695 47.0674 26.0205C46.1869 24.6715 44.9353 23.62 43.471 22.9992C42.0067 22.3783 40.3954 22.2158 38.8409 22.5324C37.2863 22.8489 35.8584 23.6302 34.7377 24.7774C33.617 25.9246 32.8537 27.3863 32.5445 28.9776C32.2353 30.5688 32.394 32.2182 33.0005 33.7172C33.6071 35.2161 34.6342 36.4973 35.9521 37.3986C37.2699 38.3 38.8193 38.7811 40.4043 38.7811C42.5289 38.7787 44.5659 37.9137 46.0682 36.3758C47.5706 34.8379 48.4156 32.7528 48.418 30.5779ZM40.4043 37.6874C39.0306 37.6874 37.6878 37.2704 36.5457 36.4892C35.4036 35.708 34.5134 34.5977 33.9877 33.2986C33.462 31.9995 33.3245 30.57 33.5925 29.1909C33.8605 27.8119 34.5219 26.5451 35.4932 25.5508C36.4645 24.5565 37.7021 23.8794 39.0493 23.6051C40.3966 23.3308 41.793 23.4716 43.0621 24.0097C44.3312 24.5478 45.4158 25.459 46.179 26.6281C46.9422 27.7973 47.3495 29.1718 47.3495 30.5779C47.3474 32.4628 46.615 34.2699 45.313 35.6027C44.0109 36.9355 42.2456 37.6852 40.4043 37.6874Z" fill="#FF6600"/>
<path d="M44.6532 28.7645L42.0482 28.3771L40.8832 25.961C40.8341 25.8757 40.764 25.805 40.68 25.7559C40.596 25.7068 40.501 25.681 40.4043 25.681C40.3075 25.681 40.2125 25.7068 40.1285 25.7559C40.0445 25.805 39.9745 25.8757 39.9253 25.961L38.7603 28.3771L36.1553 28.7645C36.0566 28.7791 35.9639 28.8217 35.8876 28.8875C35.8113 28.9533 35.7546 29.0396 35.7237 29.1367C35.6929 29.2338 35.6892 29.3378 35.7131 29.4369C35.737 29.536 35.7875 29.6263 35.859 29.6975L37.7445 31.5782L37.2995 34.2339C37.2827 34.3344 37.2937 34.4377 37.3312 34.5321C37.3688 34.6266 37.4314 34.7084 37.5119 34.7684C37.5925 34.8283 37.6878 34.864 37.7872 34.8715C37.8865 34.8789 37.9859 34.8577 38.0741 34.8104L40.4043 33.5567L42.7343 34.8104C42.8225 34.8577 42.9219 34.8789 43.0212 34.8715C43.1206 34.864 43.2159 34.8283 43.2965 34.7684C43.3771 34.7084 43.4396 34.6266 43.4772 34.5321C43.5147 34.4377 43.5257 34.3344 43.5089 34.2339L43.0639 31.5782L44.9494 29.6975C45.0209 29.6263 45.0714 29.536 45.0953 29.4369C45.1192 29.3378 45.1155 29.2338 45.0847 29.1367C45.0539 29.0396 44.9971 28.9533 44.9208 28.8875C44.8445 28.8217 44.7519 28.7791 44.6532 28.7645ZM42.1171 30.9958C42.0552 31.0578 42.0088 31.1342 41.9821 31.2185C41.9554 31.3028 41.9491 31.3925 41.9637 31.4799L42.2731 33.3267L40.6526 32.4548C40.576 32.4136 40.4907 32.392 40.4042 32.392C40.3176 32.392 40.2323 32.4136 40.1557 32.4548L38.5355 33.3265L38.8448 31.4797C38.8595 31.3923 38.8531 31.3026 38.8264 31.2183C38.7997 31.134 38.7534 31.0575 38.6914 30.9956L37.3804 29.6877L39.1919 29.4182C39.2776 29.4055 39.3591 29.3716 39.4292 29.3194C39.4992 29.2673 39.5559 29.1984 39.5941 29.1189L40.4043 27.4388L41.2145 29.119C41.2528 29.1985 41.3094 29.2674 41.3795 29.3195C41.4496 29.3717 41.531 29.4056 41.6167 29.4183L43.4282 29.6878L42.1171 30.9958Z" fill="#FF6600"/>
</svg>
