<svg width="70" height="65" viewBox="0 0 70 65" fill="none" xmlns="http://www.w3.org/2000/svg">
<circle opacity="0.1" cx="30" cy="30" r="30" fill="#FF6600"/>
<circle cx="40" cy="35" r="30" fill="white"/>
<path d="M50.5553 29.5966L46.9513 25.9879C46.877 25.913 46.7834 25.8602 46.6808 25.8357C46.5783 25.8111 46.4709 25.8157 46.3708 25.8489C46.2707 25.8821 46.1818 25.9426 46.1142 26.0236C46.0466 26.1046 46.0029 26.2029 45.988 26.3074C45.9284 26.7246 45.7539 27.117 45.4842 27.4405C45.2145 27.764 44.8601 28.006 44.4607 28.1392C44.0614 28.2725 43.6329 28.2918 43.2233 28.1949C42.8136 28.0981 42.439 27.8889 42.1414 27.5909C41.8437 27.2929 41.6348 26.9178 41.5381 26.5076C41.4414 26.0974 41.4607 25.6684 41.5937 25.2685C41.7268 24.8687 41.9684 24.5138 42.2916 24.2438C42.6147 23.9737 43.0066 23.799 43.4232 23.7393C43.5276 23.7244 43.6258 23.6807 43.7067 23.6129C43.7876 23.5452 43.848 23.4562 43.8812 23.356C43.9143 23.2558 43.9189 23.1483 43.8943 23.0456C43.8698 22.9429 43.8171 22.8491 43.7423 22.7748L40.1383 19.1661C40.032 19.0598 39.8879 19 39.7376 19C39.5874 19 39.4433 19.0598 39.337 19.1661L36.2073 22.2987C36.0532 21.7212 35.75 21.1945 35.3281 20.7716C34.9062 20.3487 34.3805 20.0444 33.8039 19.8895C33.2273 19.7345 32.6202 19.7343 32.0435 19.8889C31.4668 20.0434 30.9409 20.3473 30.5187 20.7699C30.0965 21.1925 29.7929 21.719 29.6384 22.2964C29.4839 22.8738 29.4839 23.4817 29.6385 24.0591C29.7931 24.6365 30.0968 25.1629 30.5191 25.5855C30.9413 26.008 31.4673 26.3118 32.044 26.4663L28.9177 29.5966C28.8115 29.703 28.7518 29.8473 28.7518 29.9977C28.7518 30.1482 28.8115 30.2925 28.9177 30.3989L32.0451 33.5343C31.3586 33.719 30.7471 34.1145 30.2967 34.6652C29.8463 35.2159 29.5796 35.8941 29.5342 36.6044C29.4887 37.3147 29.6667 38.0215 30.0432 38.6252C30.4198 39.229 30.9758 39.6994 31.6332 39.9703L30.31 43.7917C30.1342 44.1882 30.0516 44.6198 30.0685 45.0533C30.0854 45.4868 30.2014 45.9106 30.4075 46.2922L32.3965 51.0016C32.4038 51.0197 32.4123 51.0374 32.422 51.0544C32.5613 51.31 32.634 51.5967 32.6333 51.8879V52.4326C32.6333 52.5831 32.693 52.7274 32.7993 52.8338C32.9056 52.9402 33.0497 53 33.2 53C33.3503 53 33.4944 52.9402 33.6007 52.8338C33.707 52.7274 33.7667 52.5831 33.7667 52.4326V51.8879C33.7661 51.4159 33.6493 50.9513 33.4267 50.5352L31.4371 45.8258C31.4292 45.8064 31.4201 45.7874 31.4099 45.7691C31.28 45.5317 31.2078 45.2671 31.1992 44.9966C31.1905 44.7261 31.2456 44.4574 31.36 44.2122L32.7461 40.2177C32.8056 40.2177 32.864 40.2262 32.924 40.2262C33.6719 40.2269 34.3991 39.9801 34.9925 39.5243C35.586 39.0686 36.0124 38.4293 36.2056 37.7058L37.1667 38.6642V44.489C37.1667 44.6395 37.2264 44.7838 37.3326 44.8903C37.4389 44.9967 37.583 45.0564 37.7333 45.0564C37.8836 45.0564 38.0278 44.9967 38.134 44.8903C38.2403 44.7838 38.3 44.6395 38.3 44.489V36.5455C38.3 36.094 38.4791 35.6611 38.7979 35.3419C39.1167 35.0226 39.5491 34.8433 40 34.8433C40.4509 34.8433 40.8833 35.0226 41.2021 35.3419C41.5209 35.6611 41.7 36.094 41.7 36.5455V43.4172C41.701 44.2099 41.8853 44.9916 42.2383 45.701L42.4457 46.1175C42.7199 46.6692 42.8626 47.2771 42.8626 47.8934C42.8626 48.5097 42.7199 49.1176 42.4457 49.6694L41.8791 50.8042C41.7614 51.0407 41.7001 51.3014 41.7 51.5656V52.4326C41.7 52.5831 41.7597 52.7274 41.866 52.8338C41.9722 52.9402 42.1164 53 42.2667 53C42.417 53 42.5611 52.9402 42.6674 52.8338C42.7736 52.7274 42.8333 52.5831 42.8333 52.4326V51.5656C42.8328 51.4779 42.8521 51.3911 42.89 51.312L43.4567 50.1772C43.8091 49.4677 43.9926 48.6861 43.9926 47.8937C43.9926 47.1013 43.8091 46.3197 43.4567 45.6102L43.2493 45.1938C43.0461 44.7852 42.9144 44.3447 42.86 43.8916C43.228 44.2614 43.6655 44.5547 44.1471 44.7547C44.6288 44.9546 45.1452 45.0571 45.6667 45.0564C46.1175 45.0564 46.5499 44.8771 46.8687 44.5579C47.1876 44.2387 47.3667 43.8057 47.3667 43.3543V40.1201C48.098 39.9389 48.7485 39.5193 49.2157 38.9275C49.6828 38.3356 49.9402 37.605 49.9473 36.8506C49.9544 36.0962 49.7107 35.3609 49.2547 34.7604C48.7988 34.1598 48.1563 33.7281 47.4284 33.5332L50.5553 30.3977C50.6612 30.2914 50.7206 30.1473 50.7206 29.9972C50.7206 29.847 50.6612 29.7029 50.5553 29.5966ZM45.6667 43.9216C44.9155 43.9207 44.1954 43.6216 43.6642 43.0897C43.133 42.5579 42.8342 41.8368 42.8333 41.0847V38.1342L43.2663 37.7007C43.4449 38.3726 43.8252 38.9735 44.3558 39.422C44.8864 39.8705 45.5418 40.1451 46.2333 40.2086V43.3543C46.2333 43.5047 46.1736 43.6491 46.0674 43.7555C45.9611 43.8619 45.817 43.9216 45.6667 43.9216ZM45.7477 33.6138C45.6627 33.6979 45.6064 33.8069 45.587 33.925C45.5675 34.0432 45.5859 34.1644 45.6395 34.2715C45.6931 34.3785 45.7791 34.4659 45.8852 34.521C45.9914 34.5761 46.1123 34.5962 46.2305 34.5783C46.7013 34.5116 47.1811 34.5948 47.6021 34.8162C48.023 35.0376 48.3638 35.3859 48.5762 35.8118C48.7885 36.2378 48.8617 36.7199 48.7854 37.1898C48.7091 37.6597 48.4871 38.0937 48.1509 38.4304C47.8147 38.767 47.3813 38.9893 46.9119 39.0657C46.4426 39.1421 45.9612 39.0688 45.5358 38.8562C45.1103 38.6435 44.7625 38.3023 44.5414 37.8808C44.3203 37.4593 44.2372 36.9789 44.3038 36.5075C44.3216 36.3891 44.3016 36.2681 44.2466 36.1618C44.1915 36.0555 44.1043 35.9693 43.9974 35.9157C43.8905 35.862 43.7694 35.8436 43.6514 35.8631C43.5334 35.8826 43.4246 35.9389 43.3405 36.0241L42.8333 36.533C42.8325 36.1604 42.7584 35.7917 42.6153 35.4478C42.4721 35.1039 42.2627 34.7916 41.9991 34.5288C41.7354 34.2659 41.4226 34.0576 41.0785 33.9158C40.7344 33.774 40.3658 33.7014 39.9938 33.7023C39.6217 33.7031 39.2534 33.7773 38.91 33.9206C38.5665 34.0639 38.2546 34.2736 37.9921 34.5376C37.4619 35.0708 37.165 35.7931 37.1667 36.5455V37.0596L36.128 36.0195C36.0439 35.9344 35.9351 35.878 35.8171 35.8586C35.6991 35.8391 35.578 35.8575 35.4711 35.9112C35.3642 35.9648 35.277 36.0509 35.2219 36.1572C35.1669 36.2635 35.1468 36.3845 35.1646 36.5029C35.2313 36.9743 35.1482 37.4548 34.9271 37.8763C34.706 38.2978 34.3581 38.639 33.9327 38.8516C33.5073 39.0643 33.0258 39.1376 32.5565 39.0611C32.0872 38.9847 31.6538 38.7625 31.3176 38.4258C30.9813 38.0892 30.7594 37.6552 30.6831 37.1853C30.6067 36.7153 30.6799 36.2333 30.8923 35.8073C31.1047 35.3813 31.4454 35.033 31.8664 34.8117C32.2874 34.5903 32.7672 34.5071 33.238 34.5738C33.3563 34.5918 33.4772 34.5718 33.5835 34.5168C33.6897 34.4617 33.7759 34.3744 33.8295 34.2673C33.8832 34.1602 33.9016 34.0389 33.8822 33.9207C33.8628 33.8024 33.8064 33.6934 33.7213 33.6092L30.119 29.9977L33.7253 26.3891C33.8103 26.3049 33.8666 26.196 33.886 26.0778C33.9055 25.9597 33.8871 25.8384 33.8335 25.7314C33.7799 25.6243 33.6939 25.537 33.5878 25.4819C33.4816 25.4268 33.3607 25.4067 33.2425 25.4245C32.7723 25.4903 32.2934 25.4066 31.8733 25.1853C31.4531 24.9639 31.113 24.6161 30.9009 24.1908C30.6888 23.7655 30.6154 23.2843 30.6911 22.815C30.7667 22.3458 30.9876 21.9121 31.3226 21.5753C31.7547 21.1632 32.3285 20.9333 32.9252 20.9333C33.5219 20.9333 34.0957 21.1632 34.5277 21.5753C34.7757 21.8242 34.9625 22.1275 35.0734 22.4611C35.1844 22.7947 35.2164 23.1495 35.1669 23.4976C35.1491 23.616 35.1691 23.737 35.2242 23.8433C35.2792 23.9496 35.3664 24.0358 35.4733 24.0894C35.5803 24.1431 35.7014 24.1615 35.8194 24.142C35.9373 24.1225 36.0462 24.0662 36.1302 23.9811L39.7393 20.3713L42.2786 22.9143C41.7877 23.1491 41.3603 23.4983 41.0322 23.9326C40.7041 24.367 40.4848 24.8739 40.3928 25.4107C40.3008 25.9475 40.3388 26.4985 40.5036 27.0176C40.6683 27.5366 40.9551 28.0085 41.3397 28.3936C41.7243 28.7787 42.1956 29.0658 42.714 29.2308C43.2323 29.3958 43.7827 29.4338 44.3188 29.3417C44.8549 29.2496 45.3611 29.0301 45.7949 28.7015C46.2287 28.373 46.5775 27.945 46.8119 27.4535L49.3517 29.996L45.7477 33.6138Z" fill="#FF6600"/>
<path d="M56.4333 30.8715H53.0333C52.883 30.8715 52.7389 30.8117 52.6326 30.7053C52.5264 30.5989 52.4667 30.4546 52.4667 30.3041C52.4667 30.1536 52.5264 30.0093 52.6326 29.9029C52.7389 29.7965 52.883 29.7367 53.0333 29.7367H56.4333C56.5836 29.7367 56.7278 29.7965 56.834 29.9029C56.9403 30.0093 57 30.1536 57 30.3041C57 30.4546 56.9403 30.5989 56.834 30.7053C56.7278 30.8117 56.5836 30.8715 56.4333 30.8715Z" fill="#FF6600"/>
<path d="M52.4208 24.3465C52.296 24.3465 52.1748 24.3052 52.0758 24.2292C51.9769 24.1532 51.9057 24.0466 51.8734 23.9259C51.8411 23.8053 51.8495 23.6773 51.8973 23.5619C51.945 23.4466 52.0294 23.3502 52.1374 23.2877L55.0841 21.5855C55.2142 21.5115 55.3682 21.4919 55.5126 21.5312C55.6571 21.5704 55.7801 21.6653 55.8549 21.795C55.9297 21.9248 55.9503 22.0789 55.912 22.2238C55.8738 22.3686 55.7799 22.4925 55.6508 22.5682L52.7041 24.2704C52.618 24.3204 52.5203 24.3467 52.4208 24.3465Z" fill="#FF6600"/>
<path d="M55.3646 39.0988C55.2651 39.099 55.1673 39.0728 55.0813 39.0227L52.1346 37.3206C52.0696 37.2836 52.0126 37.2341 51.9668 37.1749C51.921 37.1158 51.8874 37.0482 51.8678 36.976C51.8482 36.9038 51.8431 36.8284 51.8527 36.7542C51.8624 36.68 51.8866 36.6084 51.9239 36.5436C51.9613 36.4788 52.0111 36.422 52.0705 36.3766C52.1298 36.3311 52.1976 36.2979 52.2698 36.2788C52.3421 36.2596 52.4174 36.255 52.4914 36.2651C52.5655 36.2753 52.6368 36.3 52.7013 36.3378L55.6479 38.04C55.756 38.1025 55.8404 38.1989 55.8881 38.3143C55.9358 38.4297 55.9442 38.5576 55.9119 38.6782C55.8796 38.7989 55.8085 38.9055 55.7095 38.9815C55.6106 39.0576 55.4893 39.0988 55.3646 39.0988Z" fill="#FF6600"/>
<path d="M26.9667 30.8715H23.5667C23.4164 30.8715 23.2722 30.8117 23.166 30.7053C23.0597 30.5989 23 30.4546 23 30.3041C23 30.1536 23.0597 30.0093 23.166 29.9029C23.2722 29.7965 23.4164 29.7367 23.5667 29.7367H26.9667C27.117 29.7367 27.2611 29.7965 27.3674 29.9029C27.4736 30.0093 27.5333 30.1536 27.5333 30.3041C27.5333 30.4546 27.4736 30.5989 27.3674 30.7053C27.2611 30.8117 27.117 30.8715 26.9667 30.8715Z" fill="#FF6600"/>
<path d="M27.5792 24.3465C27.4797 24.3467 27.382 24.3204 27.2959 24.2704L24.3492 22.5682C24.2201 22.4925 24.1262 22.3686 24.088 22.2238C24.0497 22.0789 24.0703 21.9248 24.1451 21.795C24.2199 21.6653 24.3429 21.5704 24.4873 21.5312C24.6318 21.4919 24.7858 21.5115 24.9159 21.5855L27.8626 23.2877C27.9706 23.3502 28.055 23.4466 28.1027 23.5619C28.1505 23.6773 28.1589 23.8053 28.1266 23.9259C28.0943 24.0466 28.0231 24.1532 27.9242 24.2292C27.8252 24.3052 27.704 24.3465 27.5792 24.3465Z" fill="#FF6600"/>
<path d="M24.6354 39.0988C24.5107 39.0988 24.3894 39.0576 24.2905 38.9815C24.1915 38.9055 24.1204 38.7989 24.0881 38.6782C24.0558 38.5576 24.0642 38.4297 24.1119 38.3143C24.1596 38.1989 24.244 38.1025 24.3521 38.04L27.2987 36.3378C27.3632 36.3 27.4345 36.2753 27.5086 36.2651C27.5826 36.255 27.6579 36.2596 27.7302 36.2788C27.8024 36.2979 27.8702 36.3311 27.9295 36.3766C27.9889 36.422 28.0387 36.4788 28.0761 36.5436C28.1134 36.6084 28.1376 36.68 28.1473 36.7542C28.1569 36.8284 28.1518 36.9038 28.1322 36.976C28.1126 37.0482 28.079 37.1158 28.0332 37.1749C27.9874 37.2341 27.9304 37.2836 27.8654 37.3206L24.9187 39.0227C24.8327 39.0728 24.7349 39.099 24.6354 39.0988Z" fill="#FF6600"/>
</svg>
