<svg width="70" height="65" viewBox="0 0 70 65" fill="none" xmlns="http://www.w3.org/2000/svg">
<circle opacity="0.1" cx="30" cy="30" r="30" fill="#FF6600"/>
<circle cx="40" cy="35" r="30" fill="white"/>
<path d="M39.9183 26.7038C41.1476 26.7038 42.3257 26.0811 43.2354 24.9508C44.0663 23.9187 44.5428 22.6168 44.5428 21.3779C44.5428 18.8821 42.5549 17 39.9183 17C37.2816 17 35.2938 18.8796 35.2938 21.3779C35.2938 22.6168 35.7702 23.9187 36.6011 24.9508C37.5109 26.0819 38.689 26.7038 39.9183 26.7038ZM39.9183 18.3484C41.8208 18.3484 43.2013 19.6225 43.2013 21.3779C43.2013 23.5844 41.4053 25.3554 39.9183 25.3554C38.0996 25.3554 36.6353 23.1791 36.6353 21.3779C36.6353 19.6258 38.0158 18.3484 39.9183 18.3484Z" fill="#FF6600"/>
<path d="M34.4458 33.1746L33.9751 39.9242C33.9689 40.0125 33.98 40.1012 34.0079 40.1852C34.0359 40.2691 34.0799 40.3468 34.1377 40.4136C34.1955 40.4805 34.2657 40.5353 34.3446 40.5748C34.4234 40.6144 34.5092 40.6379 34.597 40.6441H34.6442C34.8139 40.644 34.9772 40.5792 35.1013 40.4629C35.2255 40.3466 35.3012 40.1874 35.3133 40.0173L35.7841 33.2735C35.7902 33.1852 35.7791 33.0965 35.7512 33.0125C35.7233 32.9286 35.6792 32.8509 35.6214 32.7841C35.5637 32.7172 35.4934 32.6624 35.4146 32.6229C35.3357 32.5833 35.25 32.5598 35.1621 32.5535C35.0742 32.5473 34.986 32.5586 34.9024 32.5866C34.8189 32.6147 34.7416 32.659 34.6751 32.717C34.6086 32.7751 34.5541 32.8457 34.5148 32.925C34.4754 33.0042 34.452 33.0904 34.4458 33.1787V33.1746Z" fill="#FF6600"/>
<path d="M49.0152 40.6433C49.1972 40.6271 49.3654 40.5391 49.4829 40.3984C49.6004 40.2578 49.6576 40.0761 49.6421 39.8931C49.6421 39.8931 48.9331 34.783 48.8291 33.0684C48.6364 29.9899 46.7656 27.5202 43.8428 27.0707C42.8151 26.9122 40.9484 26.7929 39.9728 26.7921C38.641 26.8153 37.3112 26.9077 35.9889 27.0691C34.6181 27.2578 33.3625 27.9419 32.4572 28.9937C31.5059 30.0978 31.0807 31.5091 30.9937 33.0717C30.8961 34.7879 30.2498 39.9005 30.2498 39.9005C30.2389 39.9891 30.2456 40.079 30.2696 40.165C30.2936 40.251 30.3343 40.3314 30.3894 40.4014C30.4446 40.4714 30.513 40.5298 30.5907 40.573C30.6685 40.6163 30.754 40.6435 30.8423 40.6533C30.9306 40.663 31.02 40.655 31.1052 40.6298C31.1904 40.6045 31.2698 40.5625 31.3387 40.5061C31.4077 40.4498 31.4648 40.3802 31.5067 40.3015C31.5487 40.2228 31.5747 40.1365 31.5831 40.0476C31.5831 40.0476 32.2393 34.8794 32.3328 33.146C32.4661 30.6894 33.9125 28.715 36.1719 28.4061C37.4329 28.2521 38.701 28.1638 39.9711 28.1413C40.8801 28.1413 42.6842 28.2574 43.6387 28.4045C44.6881 28.5641 45.6476 29.0915 46.3477 29.8935C47.0924 30.7532 47.4152 31.9079 47.4859 33.1501C47.5892 34.8859 48.3095 40.0549 48.3095 40.0549C48.3356 40.2226 48.4217 40.3749 48.5517 40.4833C48.6816 40.5916 48.8465 40.6485 49.0152 40.6433Z" fill="#FF6600"/>
<path d="M44.655 32.5495C44.5667 32.5556 44.4804 32.5792 44.4012 32.6189C44.3221 32.6587 44.2515 32.7138 44.1936 32.7811C44.1357 32.8484 44.0916 32.9266 44.0639 33.0111C44.0362 33.0956 44.0254 33.1848 44.0322 33.2735L44.5038 40.0222C44.5155 40.1924 44.591 40.3518 44.715 40.4683C44.839 40.5848 45.0023 40.6497 45.1721 40.6499H45.22C45.3974 40.6371 45.5625 40.5541 45.6791 40.4191C45.7957 40.2842 45.8543 40.1082 45.842 39.9299L45.3704 33.1804C45.3648 33.0917 45.3417 33.005 45.3027 32.9253C45.2636 32.8456 45.2093 32.7744 45.1429 32.7158C45.0764 32.6572 44.9991 32.6123 44.9154 32.5838C44.8317 32.5552 44.7432 32.5436 44.655 32.5495Z" fill="#FF6600"/>
<path d="M44.1981 46.748L47.4241 43.587C47.5137 43.4992 47.5771 43.3879 47.607 43.2658C47.637 43.1437 47.6324 43.0156 47.5938 42.896C47.5551 42.7764 47.484 42.6701 47.3883 42.589C47.2927 42.5079 47.1764 42.4553 47.0526 42.4371L42.5948 41.7834L40.6012 37.7258C40.5459 37.6129 40.4602 37.5178 40.3539 37.4514C40.2475 37.3849 40.1248 37.3497 39.9996 37.3497C39.8744 37.3497 39.7517 37.3849 39.6453 37.4514C39.539 37.5178 39.4533 37.6129 39.398 37.7258L37.4044 41.7858L32.9466 42.4396C32.8228 42.4577 32.7065 42.5103 32.6109 42.5914C32.5152 42.6725 32.4441 42.7789 32.4054 42.8985C32.3668 43.0181 32.3622 43.1462 32.3921 43.2683C32.4221 43.3904 32.4855 43.5016 32.575 43.5894L35.8011 46.7505L35.0401 51.2101C35.0186 51.3345 35.0322 51.4624 35.0794 51.5793C35.1266 51.6963 35.2056 51.7976 35.3072 51.8716C35.4089 51.9457 35.5292 51.9896 35.6544 51.9984C35.7797 52.0071 35.9049 51.9804 36.0158 51.9211L39.9996 49.8143L43.9834 51.9211C44.0798 51.9718 44.1869 51.9985 44.2956 51.9988C44.3933 51.9986 44.4898 51.9771 44.5783 51.9356C44.6668 51.8941 44.7453 51.8337 44.8082 51.7587C44.8711 51.6836 44.917 51.5956 44.9427 51.5009C44.9683 51.4061 44.973 51.3069 44.9566 51.2101L44.1981 46.748ZM39.6874 48.4561C38.9085 48.8549 36.5914 50.0905 36.5914 50.0905L37.1825 46.6246C37.2008 46.5169 37.1929 46.4064 37.1593 46.3025C37.1258 46.1985 37.0676 46.1044 36.9898 46.0281L34.4848 43.5764L37.9467 43.0705C38.0542 43.0547 38.1564 43.0129 38.2443 42.9487C38.3323 42.8845 38.4034 42.7998 38.4516 42.7019L39.9963 39.5482L41.5411 42.7019C41.5893 42.7998 41.6604 42.8845 41.7484 42.9487C41.8363 43.0129 41.9384 43.0547 42.046 43.0705L45.5078 43.5764L43.0029 46.0281C42.9251 46.1044 42.8669 46.1985 42.8333 46.3025C42.7998 46.4064 42.7918 46.5169 42.8102 46.6246L43.4013 50.0905C43.4013 50.0905 41.0842 48.8532 40.3053 48.4561C40.2104 48.4046 40.1042 48.3776 39.9963 48.3776C39.8885 48.3776 39.7823 48.4046 39.6874 48.4561Z" fill="#FF6600"/>
<path d="M58.4252 44.4868L55.1658 44.0103L53.708 41.0421C53.6528 40.9292 53.5672 40.8341 53.4609 40.7676C53.3547 40.701 53.232 40.6658 53.1068 40.6658C52.9816 40.6658 52.8589 40.701 52.7526 40.7676C52.6464 40.8341 52.5608 40.9292 52.5056 41.0421L51.0478 44.0103L47.7884 44.4868C47.6646 44.5049 47.5483 44.5575 47.4526 44.6386C47.357 44.7197 47.2858 44.826 47.2472 44.9457C47.2085 45.0653 47.2039 45.1934 47.2339 45.3155C47.2639 45.4376 47.3273 45.5488 47.4168 45.6366L49.7746 47.9477L49.2177 51.2101C49.1961 51.3345 49.2098 51.4624 49.257 51.5793C49.3042 51.6963 49.3831 51.7976 49.4848 51.8716C49.5864 51.9457 49.7067 51.9896 49.832 51.9984C49.9572 52.0071 50.0824 51.9804 50.1933 51.9211L53.108 50.3806L56.0235 51.9211C56.1199 51.9718 56.227 51.9985 56.3357 51.9988C56.4334 51.9986 56.5299 51.9771 56.6184 51.9356C56.7069 51.8941 56.7854 51.8337 56.8483 51.7587C56.9112 51.6836 56.9571 51.5956 56.9827 51.5009C57.0084 51.4061 57.0131 51.3069 56.9967 51.2101L56.4398 47.9477L58.7976 45.6366C58.8871 45.5488 58.9505 45.4376 58.9805 45.3155C59.0104 45.1934 59.0058 45.0653 58.9672 44.9457C58.9285 44.826 58.8574 44.7197 58.7617 44.6386C58.6661 44.5575 58.5498 44.5049 58.426 44.4868H58.4252ZM52.795 49.0224C52.2836 49.2806 50.7697 50.0922 50.7697 50.0922L51.1567 47.826C51.1751 47.7183 51.1672 47.6077 51.1336 47.5038C51.1001 47.3999 51.0419 47.3057 50.9641 47.2294L49.3258 45.6243L51.5893 45.2975C51.697 45.2818 51.7992 45.24 51.8872 45.1756C51.9752 45.1112 52.0462 45.0263 52.0942 44.9281L53.1064 42.867L54.1186 44.9281C54.1668 45.0262 54.2381 45.1111 54.3261 45.1754C54.4142 45.2398 54.5165 45.2816 54.6243 45.2975L56.8869 45.6243L55.2495 47.2294C55.1716 47.3056 55.1133 47.3998 55.0798 47.5037C55.0462 47.6077 55.0383 47.7183 55.0568 47.826L55.4471 50.0922C55.4471 50.0922 53.934 49.2806 53.4226 49.0224C53.3262 48.9702 53.2184 48.9428 53.1088 48.9428C52.9993 48.9428 52.8914 48.9702 52.795 49.0224Z" fill="#FF6600"/>
<path d="M32.2108 44.4868L28.9514 44.0103L27.4936 41.0421C27.4384 40.9292 27.3528 40.8341 27.2465 40.7676C27.1403 40.701 27.0176 40.6658 26.8924 40.6658C26.7672 40.6658 26.6445 40.701 26.5383 40.7676C26.432 40.8341 26.3464 40.9292 26.2912 41.0421L24.8334 44.0103L21.574 44.4868C21.4502 44.5049 21.3339 44.5575 21.2383 44.6386C21.1426 44.7197 21.0715 44.826 21.0328 44.9457C20.9942 45.0653 20.9896 45.1934 21.0195 45.3155C21.0495 45.4376 21.1129 45.5488 21.2024 45.6366L23.5602 47.9477L23.0074 51.2101C22.9858 51.3345 22.9994 51.4624 23.0467 51.5793C23.0939 51.6963 23.1728 51.7976 23.2745 51.8716C23.3761 51.9457 23.4964 51.9896 23.6217 51.9984C23.7469 52.0071 23.8721 51.9804 23.983 51.9211L26.8985 50.3806L29.8132 51.9211C29.9095 51.9718 30.0166 51.9985 30.1254 51.9988C30.2231 51.9986 30.3195 51.9771 30.4081 51.9356C30.4966 51.8941 30.5751 51.8337 30.638 51.7587C30.7009 51.6836 30.7468 51.5956 30.7724 51.5009C30.7981 51.4061 30.8028 51.3069 30.7864 51.2101L30.2295 47.9477L32.5872 45.6366C32.6768 45.5488 32.7402 45.4376 32.7701 45.3155C32.8001 45.1934 32.7955 45.0653 32.7569 44.9457C32.7182 44.826 32.6471 44.7197 32.5514 44.6386C32.4558 44.5575 32.3395 44.5049 32.2157 44.4868H32.2108ZM26.5847 49.0224L24.5562 50.0922L24.9424 47.826C24.9609 47.7183 24.953 47.6077 24.9194 47.5037C24.8859 47.3998 24.8276 47.3056 24.7497 47.2294L23.1122 45.6243L25.3749 45.2975C25.4826 45.2816 25.585 45.2398 25.673 45.1754C25.7611 45.1111 25.8324 45.0262 25.8806 44.9281L26.8928 42.867L27.905 44.9281C27.953 45.0263 28.024 45.1112 28.112 45.1756C28.1999 45.24 28.3022 45.2818 28.4099 45.2975L30.6734 45.6243L29.0351 47.2294C28.9573 47.3057 28.8991 47.3999 28.8656 47.5038C28.832 47.6077 28.8241 47.7183 28.8424 47.826L29.2294 50.0922L27.2042 49.0224C27.1109 48.965 27.0038 48.9347 26.8944 48.9347C26.7851 48.9347 26.6779 48.965 26.5847 49.0224Z" fill="#FF6600"/>
</svg>
