<svg width="57" height="50" viewBox="0 0 57 50" fill="none" xmlns="http://www.w3.org/2000/svg">
<path d="M48.3068 32.6163L38.4213 36.7925C38.439 36.6692 38.4566 36.5459 38.4566 36.4137C38.4566 34.493 36.8971 32.9335 34.9764 32.9335H27.8575C27.5667 32.9335 27.2848 32.8718 27.0205 32.7485L20.9852 30.0172C20.0425 29.5943 18.994 29.3652 17.9632 29.3652H13.0469V31.1273H17.9632C18.7473 31.1273 19.5403 31.2948 20.2628 31.6207L26.298 34.352C26.7914 34.5723 27.32 34.6868 27.8663 34.6868H34.9852C35.9368 34.6868 36.7033 35.4622 36.7033 36.4049C36.7033 37.3476 35.928 38.1229 34.9852 38.1229H25.7606V39.8851H34.9764C35.5843 39.8851 36.1482 39.7177 36.6416 39.4445V39.4533L48.9852 34.2287C50.0072 33.797 51.1262 33.8058 52.1394 34.2463C52.9147 34.5899 53.5491 35.145 53.972 35.8674L32.1835 47.4269C30.5183 48.308 28.5359 48.4842 26.7385 47.9115L16.0777 44.4842L13.0381 44.4401V46.2022H15.6724L26.2011 49.5855C27.0733 49.8674 27.972 49.9996 28.8795 49.9996C30.3068 49.9996 31.7341 49.656 33.0028 48.9776L56.2187 36.678L55.9632 35.9555C55.4258 34.4577 54.3156 33.2771 52.8531 32.634C51.3905 32.0084 49.7782 31.9908 48.3068 32.6163Z" fill="white"/>
<path d="M11.1344 47.5861V28.8813C11.1344 27.9121 10.3414 27.1191 9.37225 27.1191H0.5V28.8813H9.37225V47.5949H0.5V49.357H9.37225C10.3414 49.3482 11.1344 48.5553 11.1344 47.5861Z" fill="white"/>
<path d="M7.05438 44.8458C7.05438 45.5242 6.49932 46.0793 5.8209 46.0793C5.13368 46.0793 4.57861 45.5242 4.57861 44.8458C4.57861 44.1586 5.13368 43.6035 5.8209 43.6035C6.49932 43.6035 7.05438 44.1586 7.05438 44.8458Z" fill="white"/>
<path d="M21.3461 20.9692L22.2977 21.674L28.8527 18.0441L34.7822 21.6123L35.2933 21.9119L36.2448 21.2247L34.8175 13.8766L40.0598 9.3304L40.4827 8.92511L40.1126 7.8326L32.6941 6.9163L29.9981 0.537445L29.7514 0.00881035L29.1875 0H28.5884L25.4254 6.79295L18.5179 7.37445L17.9276 7.44493L17.5752 8.54626L23.0466 13.6476L21.3461 20.9692ZM20.5972 8.96916L26.0774 8.49339L26.5972 8.43172L29.1259 3.00441L31.2668 8.05286L31.4871 8.53744L37.443 9.26872L33.3197 12.8458L32.9056 13.1982L34.051 19.1013L29.3285 16.2555L28.8792 16.0176L23.6545 18.9163L24.8792 13.63L25.0289 13.0837L20.5972 8.96916Z" fill="white"/>
<path d="M9.76027 17.718L8.48274 23.207L8.30653 23.8413L9.30212 24.5726L14.7911 21.533L19.6369 24.4405L20.1832 24.7841L21.1612 24.0704L19.9629 17.9118L21.2404 16.8105L20.0863 15.4801L18.3858 16.9515L18.1303 17.251V17.6035L18.9585 21.9823L15.3814 19.8237L15.1964 19.6475L14.4475 19.6299L14.2713 19.8061L10.6149 21.8325L11.6017 17.5506V17.0308L8.17437 13.8413L12.3682 13.4713L12.7735 13.4625L13.1435 13.0924L15.0202 9.0572L16.7118 13.0484L16.9849 13.5682H17.4783L19.6017 13.8325L19.8219 12.0792L18.1215 11.8766L15.8836 6.59024L15.5841 6.02637L14.3682 6.12328L14.2008 6.64311L11.8219 11.762L6.21842 12.2466L5.52239 12.2819L5.15234 13.5682L5.63693 13.8854L9.76027 17.718Z" fill="white"/>
<path d="M38.7197 11.8775L38.8783 13.6308L40.5787 13.4722L40.9752 13.4546L41.3452 13.0845L43.2219 9.04928L44.8342 12.8466L44.8518 13.5603H45.68L49.8827 14.0801L46.6139 16.9171L46.3232 17.2255V17.6044L47.1602 21.9744L43.5743 19.8246L43.3893 19.6396L42.6139 19.6484L42.4554 19.8158L38.8166 21.8334L39.8122 17.5515L39.8034 17.0317L37.5479 14.9259L36.3408 16.2123L37.9532 17.7189L36.6844 23.2079L36.5082 23.7982L37.4686 24.5911L42.9928 21.5339L47.8474 24.4502L48.3937 24.785L49.354 24.0625L48.1558 17.9127L52.3937 14.2387C52.6844 14.0096 52.8078 13.622 52.7109 13.2695L52.5082 12.644L46.3232 11.8863L44.0677 6.58232L43.8034 6.09774L42.7549 6.0625L42.4818 6.49422L40.0148 11.7629L38.7197 11.8775Z" fill="white"/>
</svg>
