<svg width="46" height="52" viewBox="0 0 46 52" fill="none" xmlns="http://www.w3.org/2000/svg">
<path fill-rule="evenodd" clip-rule="evenodd" d="M36.4074 34.113C36.8006 34.113 37.1195 34.4302 37.1195 34.8213C37.1195 35.2124 36.8006 35.5296 36.4074 35.5296H32.4599C32.0667 35.5296 31.7477 35.2124 31.7477 34.8213C31.7477 34.4302 32.0667 34.113 32.4599 34.113H36.4074ZM36.4074 38.7049C36.8006 38.7049 37.1195 39.0221 37.1195 39.4132C37.1195 39.8042 36.8006 40.1214 36.4074 40.1214H31.4884C31.0952 40.1214 30.7763 39.8042 30.7763 39.4132C30.7763 39.0221 31.0952 38.7049 31.4884 38.7049H36.4074ZM9.0527 35.5296C8.65952 35.5296 8.34058 35.2124 8.34058 34.8213C8.34058 34.4302 8.65952 34.113 9.0527 34.113H13.0003C13.3934 34.113 13.7124 34.4302 13.7124 34.8213C13.7124 35.2124 13.3934 35.5296 13.0003 35.5296H9.0527ZM9.0527 40.1214C8.65952 40.1214 8.34058 39.8042 8.34058 39.4132C8.34058 39.0221 8.65952 38.7049 9.0527 38.7049H13.9717C14.3649 38.7049 14.6838 39.0221 14.6838 39.4132C14.6838 39.8042 14.3649 40.1214 13.9717 40.1214H9.0527ZM29.1596 26.6391C29.7776 26.9491 30.1792 27.6199 30.3726 28.4166C30.4626 28.7879 30.5075 29.181 30.5075 29.5659C30.5075 29.9507 30.4626 30.3438 30.3726 30.7151C30.1049 31.8166 29.4398 32.6777 28.3554 32.6777H28.0219L27.1728 34.9721C26.927 35.6367 26.6018 36.1651 26.218 36.5364C25.7736 36.9659 25.2581 37.1916 24.6923 37.1916H23.5274V45.0794C23.5504 45.0617 23.5734 45.0451 23.5964 45.0285C24.3054 44.5136 25.143 44.2474 25.9148 44.2474H40.2033V23.961H30.9551C30.3946 24.8877 29.7703 25.7759 29.1596 26.6391ZM26.5066 32.6767L25.8374 34.4843C25.6648 34.9503 25.4578 35.2997 25.2277 35.5233C25.0573 35.6887 24.8764 35.775 24.6923 35.775H21.4088C21.2248 35.775 21.0438 35.6887 20.8734 35.5233C20.6433 35.3008 20.4363 34.9503 20.2638 34.4843L19.5945 32.6767H26.5066ZM18.0793 32.6767H17.7457C16.6623 32.6767 15.9962 31.8165 15.7285 30.7141C15.6386 30.3428 15.5936 29.9496 15.5936 29.5648C15.5936 29.18 15.6386 28.7868 15.7285 28.4155C15.9251 27.6074 16.335 26.9293 16.9677 26.6246C16.3549 25.7634 15.7275 24.8793 15.1649 23.9599H5.42723V44.2443H19.7158C20.4875 44.2443 21.3251 44.5116 22.0341 45.0253C22.0571 45.042 22.0801 45.0597 22.1032 45.0763V37.1906H21.4088C20.8431 37.1906 20.3275 36.9649 19.8831 36.5353C19.4993 36.164 19.1741 35.6357 18.9284 34.9711L18.0793 32.6767ZM28.3554 27.8706C28.6535 27.8706 28.8731 28.2554 28.9923 28.7484C29.0529 28.9969 29.0833 29.2767 29.0833 29.5648C29.0833 29.8529 29.0529 30.1327 28.9923 30.3813C28.8731 30.8743 28.6535 31.2591 28.3554 31.2591H17.7467C17.4487 31.2591 17.2291 30.8743 17.1099 30.3813C17.0492 30.1327 17.0189 29.8529 17.0189 29.5648C17.0189 29.2767 17.0492 28.9969 17.1099 28.7484C17.2291 28.2554 17.4487 27.8706 17.7467 27.8706H28.3554ZM22.1063 0.705162C22.1063 0.315139 22.4242 0 22.8153 0C23.2064 0 23.5243 0.316179 23.5243 0.705162V4.24969C23.5243 4.63972 23.2064 4.95486 22.8153 4.95486C22.4242 4.95486 22.1063 4.63868 22.1063 4.24969V0.705162ZM6.19478 17.9411C5.80264 17.9411 5.48579 17.6249 5.48579 17.2359C5.48579 16.8459 5.80369 16.5308 6.19478 16.5308H9.75856C10.1507 16.5308 10.4675 16.8469 10.4675 17.2359C10.4675 17.6249 10.1497 17.9411 9.75856 17.9411H6.19478ZM10.5596 6.04692C10.2814 5.77027 10.2814 5.322 10.5596 5.04534C10.8377 4.76869 11.2884 4.76869 11.5666 5.04534L14.0867 7.55189C14.3649 7.82855 14.3649 8.27682 14.0867 8.55347C13.8086 8.83013 13.3579 8.83013 13.0797 8.55347L10.5596 6.04692ZM39.4358 16.5276C39.829 16.5276 40.1479 16.8449 40.1479 17.2359C40.1479 17.627 39.829 17.9442 39.4358 17.9442H35.872C35.4788 17.9442 35.1599 17.627 35.1599 17.2359C35.1599 16.8449 35.4788 16.5276 35.872 16.5276H39.4358ZM34.064 5.04534C34.3421 4.76869 34.7928 4.76869 35.071 5.04534C35.3492 5.322 35.3492 5.77027 35.071 6.04692L32.5508 8.55347C32.2727 8.83013 31.822 8.83013 31.5438 8.55347C31.2657 8.27682 31.2657 7.82855 31.5438 7.55189L34.064 5.04534ZM23.0506 8.2945C20.337 8.2945 17.8795 9.38864 16.1018 11.1578C14.3231 12.9269 13.223 15.37 13.223 18.069C13.223 19.678 13.6894 21.1559 14.3775 22.5444H4.7151C4.32192 22.5444 4.00297 22.8616 4.00297 23.2527V25.0853H0.712128C0.318941 25.0853 0 25.4025 0 25.7935V48.936C0 49.327 0.318941 49.6443 0.712128 49.6443H16.4438C16.6383 49.6443 16.8087 50.0228 16.9802 50.4014C17.341 51.2002 17.7018 52 18.8123 52H26.8203C27.9309 52 28.2917 51.2012 28.6524 50.4014C28.8239 50.0228 28.9944 49.6443 29.1889 49.6443H44.9205C45.3137 49.6443 45.6327 49.327 45.6327 48.936V25.7935C45.6327 25.4025 45.3137 25.0853 44.9205 25.0853H41.6286V23.2527C41.6286 22.8616 41.3097 22.5444 40.9165 22.5444H31.7341C32.417 21.1517 32.8792 19.6707 32.8792 18.069C32.8792 15.37 31.7791 12.9259 30.0003 11.1578C28.2216 9.38864 25.7642 8.2945 23.0506 8.2945ZM28.9933 12.1594C30.5138 13.6716 31.4549 15.7611 31.4549 18.069C31.4549 20.9417 29.6082 23.5501 27.9152 25.9423C27.8054 26.0972 27.6967 26.2512 27.5544 26.454H18.5823C18.4536 26.273 18.2989 26.0546 18.1431 25.8351C17.479 24.9012 16.7941 23.9391 16.2095 22.9407C16.1949 22.9105 16.1782 22.8824 16.1593 22.8543C15.2883 21.3494 14.6483 19.7633 14.6483 18.068C14.6483 15.7601 15.5884 13.6706 17.1099 12.1583C18.6304 10.6461 20.7312 9.71002 23.0516 9.71002C25.372 9.71002 27.4718 10.6471 28.9933 12.1594ZM41.6265 26.5018V44.9536C41.6265 45.3446 41.3076 45.6619 40.9144 45.6619H25.9148C25.4243 45.6619 24.8889 45.8345 24.4309 46.1663C24.1036 46.4034 23.8181 46.7238 23.6194 47.1211C23.3967 47.5662 23.1332 47.7732 22.8163 47.7784C22.5831 47.7815 22.3165 47.7701 22.0425 47.1845C21.8428 46.7581 21.5437 46.4169 21.1997 46.1663C20.7416 45.8345 20.2062 45.6619 19.7158 45.6619H4.7151C4.32192 45.6619 4.00297 45.3446 4.00297 44.9536V26.5018H1.42426V48.2277H16.4438C17.5543 48.2277 17.9151 49.0265 18.2759 49.8263C18.4474 50.2049 18.6178 50.5834 18.8123 50.5834H26.8203C27.0148 50.5834 27.1853 50.2049 27.3568 49.8263C27.7176 49.0275 28.0783 48.2277 29.1889 48.2277H44.2084V26.5018H41.6265Z" fill="white"/>
</svg>
