<svg width="50" height="50" viewBox="0 0 50 50" fill="none" xmlns="http://www.w3.org/2000/svg">
<path d="M25.0003 20.8341C26.4837 20.8341 27.9337 20.3943 29.1671 19.5702C30.4004 18.7461 31.3617 17.5748 31.9293 16.2044C32.497 14.834 32.6455 13.326 32.3561 11.8712C32.0667 10.4164 31.3524 9.08004 30.3036 8.03117C29.2547 6.9823 27.9183 6.26802 26.4635 5.97864C25.0087 5.68926 23.5007 5.83778 22.1303 6.40542C20.7598 6.97306 19.5885 7.93433 18.7644 9.16766C17.9403 10.401 17.5005 11.851 17.5005 13.3343C17.5027 15.3227 18.2935 17.229 19.6996 18.635C21.1056 20.0411 23.0119 20.8319 25.0003 20.8341ZM25.0003 7.50115C26.1541 7.50115 27.2819 7.84326 28.2411 8.48422C29.2004 9.12518 29.9481 10.0362 30.3896 11.1021C30.8311 12.1679 30.9466 13.3408 30.7215 14.4723C30.4964 15.6039 29.9409 16.6432 29.1251 17.459C28.3093 18.2748 27.2699 18.8303 26.1384 19.0554C25.0068 19.2805 23.834 19.165 22.7681 18.7235C21.7022 18.282 20.7912 17.5343 20.1502 16.5751C19.5092 15.6158 19.1671 14.488 19.1671 13.3343C19.1689 11.7878 19.784 10.3052 20.8776 9.2116C21.9711 8.11805 23.4538 7.50292 25.0003 7.50115Z" fill="white"/>
<path d="M25.0003 17.5009C25.8244 17.5009 26.63 17.2565 27.3152 16.7987C28.0004 16.3409 28.5344 15.6901 28.8498 14.9288C29.1651 14.1675 29.2477 13.3297 29.0869 12.5215C28.9261 11.7132 28.5293 10.9708 27.9466 10.3881C27.3639 9.80543 26.6215 9.4086 25.8132 9.24783C25.005 9.08706 24.1672 9.16958 23.4059 9.48493C22.6445 9.80029 21.9938 10.3343 21.5359 11.0195C21.0781 11.7047 20.8337 12.5103 20.8337 13.3343C20.8351 14.439 21.2745 15.498 22.0556 16.2791C22.8367 17.0602 23.8957 17.4996 25.0003 17.5009ZM25.0003 10.8344C25.4948 10.8344 25.9781 10.981 26.3893 11.2557C26.8004 11.5304 27.1208 11.9208 27.31 12.3776C27.4992 12.8344 27.5487 13.3371 27.4523 13.822C27.3558 14.307 27.1177 14.7524 26.7681 15.102C26.4185 15.4517 25.973 15.6898 25.4881 15.7862C25.0031 15.8827 24.5005 15.8332 24.0437 15.644C23.5868 15.4548 23.1964 15.1343 22.9217 14.7232C22.647 14.3121 22.5004 13.8288 22.5004 13.3343C22.5004 12.6713 22.7638 12.0354 23.2326 11.5666C23.7014 11.0978 24.3373 10.8344 25.0003 10.8344Z" fill="white"/>
<path d="M50 31.6672C49.999 31.3207 49.8896 30.9833 49.6873 30.7021C49.485 30.4209 49.1998 30.2099 48.8716 30.0989L40.4409 27.084L48.8725 24.0682C49.201 23.958 49.4865 23.7474 49.6888 23.4662C49.8912 23.1849 50 22.8472 50 22.5007C50 22.1543 49.8912 21.8166 49.6888 21.5353C49.4865 21.2541 49.201 21.0435 48.8725 20.9333L35.7893 16.2501C35.8118 16.1668 35.8402 16.0834 35.8602 16.0001L37.3993 15.5293C37.6396 15.4573 37.8528 15.315 38.0115 15.1208C38.1701 14.9265 38.2669 14.6891 38.2893 14.4393C38.3226 14.0751 38.3385 13.706 38.3385 13.3343C38.3385 12.9627 38.3226 12.5935 38.2893 12.2294C38.2667 11.9794 38.1698 11.7419 38.0111 11.5474C37.8523 11.353 37.6389 11.2106 37.3985 11.1386L35.8552 10.6677C35.5865 9.56646 35.1494 8.51326 34.5594 7.54532L35.3152 6.12869C35.435 5.90765 35.4857 5.65573 35.4608 5.40553C35.4358 5.15534 35.3363 4.91841 35.1752 4.72539C34.9407 4.44485 34.6908 4.17319 34.4252 3.91042C34.1597 3.64765 33.8877 3.39765 33.6094 3.16044C33.4165 3.00003 33.18 2.90099 32.9304 2.87604C32.6808 2.85109 32.4294 2.90138 32.2086 3.02044L30.7853 3.77709C29.8185 3.18704 28.7668 2.74915 27.667 2.47879L27.197 0.939663C27.124 0.699649 26.9812 0.486808 26.7868 0.328297C26.5924 0.169785 26.3551 0.0727902 26.1053 0.0496871C25.3702 -0.0165624 24.6305 -0.0165624 23.8954 0.0496871C23.6455 0.0725747 23.4081 0.169604 23.2138 0.328326C23.0194 0.487048 22.8769 0.700222 22.8046 0.940496L22.3337 2.47879C21.2328 2.74831 20.18 3.18564 19.2121 3.77542L17.7905 3.01961C17.5691 2.90027 17.3171 2.84991 17.0668 2.875C16.8166 2.9001 16.5796 2.99951 16.3863 3.16044C16.1063 3.39376 15.8347 3.64376 15.5722 3.91042C15.3097 4.17708 15.0588 4.44457 14.8222 4.72456C14.6609 4.91732 14.5613 5.15402 14.536 5.40404C14.5108 5.65406 14.5611 5.90591 14.6805 6.12702L15.4372 7.54948C14.8496 8.51667 14.4139 9.56834 14.1455 10.6677L12.6064 11.1386C12.3661 11.2105 12.1529 11.3528 11.9942 11.5471C11.8356 11.7414 11.7388 11.9787 11.7164 12.2285C11.6831 12.5927 11.6672 12.9618 11.6672 13.3335C11.6672 13.7052 11.6831 14.0743 11.7164 14.4368C11.7387 14.6871 11.8355 14.9249 11.9943 15.1196C12.1531 15.3143 12.3666 15.457 12.6072 15.5293L14.1455 15.9993C14.1655 16.0826 14.1939 16.1659 14.2164 16.2492L1.12822 20.9333C0.799743 21.0435 0.514178 21.2541 0.31186 21.5353C0.109543 21.8166 0.000697301 22.1543 0.000697301 22.5007C0.000697301 22.8472 0.109543 23.1849 0.31186 23.4662C0.514178 23.7474 0.799743 23.958 1.12822 24.0682L9.55976 27.084L1.12822 30.0989C0.799546 30.2091 0.513804 30.4198 0.311359 30.7012C0.108915 30.9826 0 31.3205 0 31.6672C0 32.0138 0.108915 32.3517 0.311359 32.6331C0.513804 32.9145 0.799546 33.1252 1.12822 33.2355L8.39394 35.8337L1.12822 38.4328C0.799546 38.543 0.513804 38.7537 0.311359 39.0351C0.108915 39.3165 0 39.6544 0 40.0011C0 40.3478 0.108915 40.6857 0.311359 40.9671C0.513804 41.2485 0.799546 41.4592 1.12822 41.5694L24.4012 49.895C24.7875 50.035 25.2107 50.035 25.597 49.895L48.8716 41.5694C49.2003 41.4592 49.4861 41.2485 49.6885 40.9671C49.8909 40.6857 49.9999 40.3478 49.9999 40.0011C49.9999 39.6544 49.8909 39.3165 49.6885 39.0351C49.4861 38.7537 49.2003 38.543 48.8716 38.4328L41.6076 35.8337L48.8725 33.2355C49.2005 33.1242 49.4855 32.9133 49.6877 32.6321C49.8898 32.3509 49.999 32.0135 50 31.6672ZM13.3547 14.0151C13.3405 13.7901 13.3339 13.5627 13.3339 13.3343C13.3339 13.106 13.3405 12.8793 13.3547 12.6535L15.0963 12.121C15.2407 12.0771 15.3704 11.9949 15.4717 11.8831C15.5729 11.7712 15.6419 11.634 15.6713 11.486C15.9135 10.2567 16.3985 9.08812 17.098 8.04864C17.182 7.92328 17.2304 7.77746 17.2381 7.62673C17.2457 7.476 17.2123 7.32603 17.1413 7.19283L16.2838 5.58454C16.4338 5.41788 16.5888 5.25121 16.7513 5.08872C16.9138 4.92622 17.078 4.77039 17.2513 4.62123L18.8638 5.47871C18.9971 5.54954 19.1471 5.58284 19.2978 5.57506C19.4485 5.56728 19.5943 5.51872 19.7196 5.43454C20.757 4.73376 21.9235 4.24653 23.1512 4.00125C23.299 3.972 23.4361 3.90325 23.5479 3.80229C23.6597 3.70134 23.7421 3.57196 23.7862 3.42793L24.3195 1.68548C24.773 1.65714 25.2277 1.65714 25.6812 1.68548L26.2145 3.42793C26.2586 3.57196 26.341 3.70134 26.4528 3.80229C26.5646 3.90325 26.7017 3.972 26.8495 4.00125C28.0783 4.24339 29.2464 4.72841 30.2853 5.42788C30.4105 5.51205 30.5563 5.56062 30.7071 5.5684C30.8578 5.57618 31.0078 5.54287 31.1411 5.47204L32.7502 4.6179C32.9169 4.76706 33.0836 4.92372 33.2461 5.08538C33.4086 5.24705 33.5635 5.41204 33.7135 5.5812L32.8594 7.19283C32.7883 7.32613 32.7547 7.47626 32.7624 7.62715C32.77 7.77805 32.8185 7.92402 32.9027 8.04947C33.604 9.08817 34.0904 10.2566 34.3335 11.486C34.3629 11.634 34.4319 11.7712 34.5332 11.8831C34.6345 11.9949 34.7642 12.0771 34.9085 12.121L36.6502 12.6535C36.6643 12.8785 36.671 13.106 36.671 13.3343C36.671 13.5627 36.6643 13.7893 36.6502 14.0151L34.9085 14.5476C34.7642 14.5915 34.6345 14.6738 34.5332 14.7856C34.4319 14.8974 34.3629 15.0346 34.3335 15.1826C34.0914 16.4119 33.6064 17.5805 32.9069 18.62C32.8228 18.7454 32.7744 18.8912 32.7668 19.0419C32.7592 19.1927 32.7926 19.3426 32.8636 19.4758L33.7169 21.0841C33.5669 21.2508 33.4119 21.4174 33.2494 21.5841C33.0869 21.7508 32.9227 21.9024 32.7536 22.0516L31.1411 21.1941C31.0078 21.1233 30.8578 21.09 30.7071 21.0978C30.5563 21.1055 30.4105 21.1541 30.2853 21.2383C29.2466 21.9386 28.0785 22.4245 26.8495 22.6674C26.7017 22.6967 26.5646 22.7654 26.4528 22.8664C26.341 22.9673 26.2586 23.0967 26.2145 23.2407L25.6812 24.9832C25.2277 25.0115 24.773 25.0115 24.3195 24.9832L23.7862 23.2407C23.7421 23.0967 23.6597 22.9673 23.5479 22.8664C23.4361 22.7654 23.299 22.6967 23.1512 22.6674C21.922 22.4252 20.7536 21.9399 19.7146 21.2399C19.5892 21.1559 19.4434 21.1075 19.2927 21.0999C19.142 21.0922 18.992 21.1257 18.8588 21.1966L17.2505 22.0499C17.0838 21.9016 16.9171 21.7449 16.7505 21.5833C16.5838 21.4216 16.433 21.2566 16.283 21.0833L17.1405 19.4717C17.2116 19.3384 17.2451 19.1882 17.2375 19.0373C17.2299 18.8864 17.1813 18.7405 17.0971 18.615C16.3974 17.576 15.9123 16.4076 15.6705 15.1784C15.6411 15.0305 15.5721 14.8932 15.4708 14.7814C15.3696 14.6696 15.2399 14.5873 15.0955 14.5435L13.3547 14.0151ZM14.7713 17.8217C14.9665 18.2695 15.1909 18.7041 15.443 19.1225L14.6872 20.5391C14.5673 20.7602 14.5166 21.0121 14.5416 21.2623C14.5666 21.5125 14.666 21.7494 14.8272 21.9424C15.0616 22.223 15.3116 22.4946 15.5772 22.7574C15.8427 23.0202 16.1147 23.2702 16.393 23.5074C16.586 23.6675 16.8225 23.7663 17.072 23.7913C17.3216 23.8162 17.5729 23.7661 17.7938 23.6474L19.2163 22.8907C20.1828 23.4808 21.2342 23.9189 22.3337 24.1899L22.8037 25.729C22.8764 25.969 23.019 26.1818 23.2133 26.3402C23.4076 26.4986 23.6448 26.5954 23.8945 26.6181C24.2587 26.6515 24.6279 26.6673 24.9995 26.6673C25.3712 26.6673 25.7403 26.6515 26.1045 26.6181C26.3544 26.5954 26.5918 26.4984 26.7862 26.3396C26.9806 26.1809 27.1231 25.9677 27.1953 25.7273L27.6653 24.1899C28.7662 23.9203 29.8191 23.483 30.7869 22.8932L32.2086 23.649C32.4299 23.7686 32.682 23.8191 32.9322 23.794C33.1825 23.7689 33.4196 23.6694 33.6127 23.5082C33.8927 23.2749 34.1644 23.0249 34.4269 22.7582C34.6894 22.4916 34.9402 22.2241 35.1769 21.9441C35.3381 21.7513 35.4378 21.5146 35.463 21.2646C35.4883 21.0146 35.4379 20.7627 35.3185 20.5416L34.5619 19.1192C34.8137 18.7007 35.0378 18.2662 35.2327 17.8184L48.3108 22.5007L24.9645 30.8239L1.68988 22.5007L14.7713 17.8217ZM48.3108 40.0003L24.9645 48.3259L1.68988 40.0003L10.8672 36.717L24.402 41.5577C24.7883 41.6977 25.2115 41.6977 25.5978 41.5577L39.1335 36.7187L48.3108 40.0003ZM24.9645 39.9903L1.68988 31.6672L12.0339 27.9689L24.402 32.393C24.7883 32.533 25.2115 32.533 25.5978 32.393L37.9668 27.9689L48.3108 31.6672L24.9645 39.9903Z" fill="white"/>
<path d="M22.7921 35.8829L13.473 32.5496C13.267 32.4829 13.0431 32.4991 12.8487 32.5946C12.6544 32.6902 12.5049 32.8576 12.4319 33.0615C12.3588 33.2654 12.3681 33.4897 12.4576 33.6869C12.5471 33.8841 12.7098 34.0387 12.9114 34.1179L22.2304 37.4512C22.3204 37.4838 22.4155 37.5004 22.5112 37.5003C22.7073 37.5001 22.897 37.4306 23.047 37.3043C23.1969 37.178 23.2975 37.0028 23.3311 36.8096C23.3646 36.6164 23.329 36.4175 23.2304 36.248C23.1318 36.0785 22.9766 35.9492 22.7921 35.8829Z" fill="white"/>
<path d="M22.7921 44.216L13.473 40.8828C13.267 40.8161 13.0431 40.8322 12.8487 40.9277C12.6544 41.0233 12.5049 41.1907 12.4319 41.3946C12.3588 41.5985 12.3681 41.8228 12.4576 42.02C12.5471 42.2172 12.7098 42.3718 12.9114 42.451L22.2304 45.7843C22.3204 45.8169 22.4155 45.8335 22.5112 45.8335C22.7073 45.8332 22.897 45.7638 23.047 45.6374C23.1969 45.5111 23.2975 45.3359 23.3311 45.1427C23.3646 44.9495 23.329 44.7506 23.2304 44.5812C23.1318 44.4117 22.9766 44.2823 22.7921 44.216Z" fill="white"/>
</svg>
